G04 EAGLE Gerber RS-274X export*
G75*
%MOMM*%
%FSLAX34Y34*%
%LPD*%
%INBottom Copper*%
%IPPOS*%
%AMOC8*
5,1,8,0,0,1.08239X$1,22.5*%
G01*
%ADD10C,0.152400*%
%ADD11C,1.930400*%
%ADD12C,1.854200*%
%ADD13C,3.000000*%
%ADD14C,1.524000*%
%ADD15P,2.336880X8X22.500000*%
%ADD16P,1.649562X8X22.500000*%
%ADD17P,1.649562X8X202.500000*%
%ADD18P,1.539592X8X292.500000*%
%ADD19C,1.422400*%
%ADD20P,1.539592X8X112.500000*%
%ADD21P,1.649562X8X292.500000*%
%ADD22P,1.539592X8X22.500000*%
%ADD23P,1.649562X8X112.500000*%
%ADD24P,1.732040X8X112.500000*%
%ADD25C,1.600200*%
%ADD26P,1.732040X8X292.500000*%
%ADD27C,1.500000*%
%ADD28C,0.906400*%

G36*
X381369Y528029D02*
X381369Y528029D01*
X381702Y528034D01*
X381755Y528041D01*
X381809Y528042D01*
X382140Y528087D01*
X382471Y528126D01*
X382523Y528138D01*
X382576Y528145D01*
X382902Y528224D01*
X383226Y528297D01*
X383277Y528314D01*
X383329Y528327D01*
X383645Y528439D01*
X383960Y528545D01*
X383998Y528564D01*
X384059Y528585D01*
X384758Y528918D01*
X384870Y528986D01*
X384945Y529022D01*
X385961Y529609D01*
X392955Y531483D01*
X522533Y531483D01*
X522606Y531487D01*
X522680Y531484D01*
X522993Y531507D01*
X523306Y531523D01*
X523378Y531534D01*
X523452Y531539D01*
X523761Y531594D01*
X524071Y531642D01*
X524142Y531661D01*
X524214Y531674D01*
X524517Y531760D01*
X524819Y531840D01*
X524888Y531866D01*
X524959Y531886D01*
X525251Y532003D01*
X525544Y532114D01*
X525609Y532147D01*
X525678Y532174D01*
X525956Y532320D01*
X526236Y532461D01*
X526298Y532501D01*
X526363Y532535D01*
X526624Y532709D01*
X526888Y532878D01*
X526946Y532923D01*
X527007Y532964D01*
X527121Y533062D01*
X527495Y533359D01*
X527719Y533579D01*
X527835Y533679D01*
X596862Y602706D01*
X596911Y602760D01*
X596965Y602811D01*
X597170Y603048D01*
X597380Y603281D01*
X597424Y603340D01*
X597472Y603396D01*
X597652Y603653D01*
X597837Y603906D01*
X597874Y603970D01*
X597916Y604030D01*
X598068Y604304D01*
X598226Y604575D01*
X598257Y604642D01*
X598292Y604707D01*
X598416Y604995D01*
X598545Y605281D01*
X598568Y605351D01*
X598597Y605419D01*
X598690Y605718D01*
X598789Y606016D01*
X598805Y606088D01*
X598826Y606158D01*
X598888Y606466D01*
X598956Y606772D01*
X598964Y606845D01*
X598978Y606917D01*
X598989Y607068D01*
X599044Y607541D01*
X599047Y607855D01*
X599058Y608008D01*
X599058Y609503D01*
X599044Y609783D01*
X599037Y610064D01*
X599024Y610169D01*
X599018Y610276D01*
X598975Y610554D01*
X598940Y610832D01*
X598915Y610936D01*
X598899Y611041D01*
X598827Y611312D01*
X598763Y611586D01*
X598728Y611687D01*
X598701Y611790D01*
X598602Y612052D01*
X598510Y612317D01*
X598465Y612414D01*
X598427Y612514D01*
X598302Y612765D01*
X598183Y613019D01*
X598128Y613111D01*
X598080Y613206D01*
X597929Y613443D01*
X597785Y613683D01*
X597721Y613769D01*
X597663Y613859D01*
X597489Y614078D01*
X597321Y614303D01*
X597248Y614382D01*
X597182Y614465D01*
X596986Y614665D01*
X596795Y614872D01*
X596715Y614942D01*
X596640Y615019D01*
X596424Y615198D01*
X596214Y615383D01*
X596145Y615430D01*
X596044Y615513D01*
X595401Y615943D01*
X595344Y615973D01*
X595309Y615998D01*
X592407Y617673D01*
X587193Y622887D01*
X583507Y629272D01*
X581598Y636393D01*
X581598Y640270D01*
X581590Y640423D01*
X581592Y640577D01*
X581570Y640810D01*
X581558Y641043D01*
X581535Y641195D01*
X581520Y641348D01*
X581475Y641577D01*
X581439Y641808D01*
X581400Y641956D01*
X581370Y642107D01*
X581301Y642331D01*
X581241Y642556D01*
X581187Y642700D01*
X581141Y642847D01*
X581050Y643062D01*
X580967Y643281D01*
X580898Y643418D01*
X580838Y643560D01*
X580725Y643764D01*
X580620Y643973D01*
X580537Y644102D01*
X580463Y644237D01*
X580329Y644429D01*
X580203Y644626D01*
X580108Y644746D01*
X580020Y644872D01*
X579867Y645049D01*
X579722Y645232D01*
X579614Y645342D01*
X579514Y645458D01*
X579344Y645618D01*
X579180Y645785D01*
X579062Y645883D01*
X578950Y645989D01*
X578764Y646130D01*
X578584Y646280D01*
X578456Y646365D01*
X578334Y646458D01*
X578135Y646580D01*
X577941Y646710D01*
X577805Y646782D01*
X577674Y646862D01*
X577463Y646963D01*
X577256Y647072D01*
X577113Y647129D01*
X576975Y647195D01*
X576755Y647274D01*
X576538Y647361D01*
X576390Y647404D01*
X576245Y647455D01*
X576018Y647510D01*
X575794Y647575D01*
X575643Y647602D01*
X575493Y647638D01*
X575261Y647670D01*
X575031Y647711D01*
X574878Y647722D01*
X574726Y647743D01*
X574492Y647750D01*
X574259Y647767D01*
X574106Y647762D01*
X573952Y647767D01*
X573719Y647751D01*
X573485Y647744D01*
X573333Y647723D01*
X573180Y647712D01*
X572950Y647672D01*
X572718Y647641D01*
X572568Y647604D01*
X572417Y647578D01*
X572193Y647514D01*
X571965Y647459D01*
X571820Y647408D01*
X571672Y647365D01*
X571455Y647278D01*
X571235Y647200D01*
X571096Y647135D01*
X570954Y647077D01*
X570747Y646968D01*
X570536Y646868D01*
X570405Y646788D01*
X570268Y646717D01*
X570074Y646587D01*
X569874Y646466D01*
X569752Y646373D01*
X569624Y646287D01*
X569508Y646187D01*
X569258Y645997D01*
X568910Y645671D01*
X568796Y645572D01*
X509940Y586716D01*
X509694Y586443D01*
X509446Y586171D01*
X509437Y586158D01*
X509422Y586141D01*
X509331Y586017D01*
X506780Y583555D01*
X506726Y583497D01*
X506686Y583462D01*
X504184Y580960D01*
X504158Y580939D01*
X501056Y579220D01*
X500989Y579178D01*
X500941Y579155D01*
X497877Y577386D01*
X497846Y577373D01*
X494405Y576515D01*
X494329Y576492D01*
X494277Y576482D01*
X490860Y575567D01*
X490827Y575562D01*
X487281Y575624D01*
X487202Y575621D01*
X487149Y575625D01*
X483611Y575625D01*
X483578Y575629D01*
X481492Y576227D01*
X481382Y576253D01*
X481274Y576286D01*
X481005Y576340D01*
X480738Y576402D01*
X480626Y576416D01*
X480515Y576438D01*
X480354Y576450D01*
X479969Y576498D01*
X479584Y576507D01*
X479424Y576518D01*
X478913Y576518D01*
X471792Y578427D01*
X465407Y582113D01*
X460193Y587327D01*
X456507Y593712D01*
X454598Y600833D01*
X454598Y608466D01*
X454605Y608504D01*
X454624Y608763D01*
X454652Y609022D01*
X454652Y609149D01*
X454661Y609276D01*
X454654Y609536D01*
X454655Y609796D01*
X454642Y609923D01*
X454638Y610050D01*
X454603Y610308D01*
X454577Y610567D01*
X454552Y610691D01*
X454535Y610817D01*
X454474Y611071D01*
X454421Y611325D01*
X454383Y611446D01*
X454353Y611570D01*
X454266Y611815D01*
X454188Y612064D01*
X454137Y612180D01*
X454095Y612300D01*
X453983Y612535D01*
X453879Y612774D01*
X453817Y612885D01*
X453763Y612999D01*
X453627Y613221D01*
X453499Y613448D01*
X453426Y613552D01*
X453360Y613661D01*
X453202Y613868D01*
X453052Y614080D01*
X452968Y614176D01*
X452891Y614277D01*
X452713Y614467D01*
X452542Y614663D01*
X452449Y614749D01*
X452362Y614842D01*
X452165Y615012D01*
X451974Y615189D01*
X451873Y615266D01*
X451777Y615349D01*
X451563Y615498D01*
X451355Y615655D01*
X451246Y615720D01*
X451142Y615793D01*
X450915Y615919D01*
X450692Y616054D01*
X450577Y616108D01*
X450466Y616169D01*
X450226Y616272D01*
X449991Y616382D01*
X449871Y616424D01*
X449754Y616474D01*
X449505Y616551D01*
X449259Y616637D01*
X449135Y616666D01*
X449014Y616703D01*
X448759Y616755D01*
X448506Y616814D01*
X448380Y616830D01*
X448255Y616855D01*
X448095Y616867D01*
X447738Y616913D01*
X447323Y616924D01*
X447164Y616935D01*
X444695Y616935D01*
X444388Y616919D01*
X444081Y616910D01*
X444002Y616899D01*
X443922Y616895D01*
X443619Y616848D01*
X443314Y616807D01*
X443236Y616788D01*
X443157Y616776D01*
X442860Y616698D01*
X442561Y616625D01*
X442485Y616598D01*
X442408Y616578D01*
X442122Y616470D01*
X441831Y616367D01*
X441759Y616332D01*
X441684Y616304D01*
X441410Y616167D01*
X441132Y616035D01*
X441063Y615993D01*
X440992Y615957D01*
X440733Y615792D01*
X440470Y615632D01*
X440407Y615584D01*
X440339Y615540D01*
X440099Y615350D01*
X439854Y615163D01*
X439795Y615109D01*
X439733Y615059D01*
X439513Y614844D01*
X439289Y614634D01*
X439237Y614573D01*
X439179Y614517D01*
X438983Y614280D01*
X438782Y614049D01*
X438736Y613983D01*
X438685Y613921D01*
X438514Y613666D01*
X438338Y613414D01*
X438299Y613344D01*
X438254Y613278D01*
X438111Y613006D01*
X437962Y612738D01*
X437930Y612664D01*
X437893Y612593D01*
X437778Y612308D01*
X437657Y612026D01*
X437633Y611949D01*
X437603Y611875D01*
X437519Y611580D01*
X437428Y611286D01*
X437412Y611208D01*
X437390Y611131D01*
X437336Y610829D01*
X437276Y610527D01*
X437271Y610463D01*
X437254Y610368D01*
X437197Y609596D01*
X437200Y609500D01*
X437196Y609436D01*
X437196Y584144D01*
X419156Y566104D01*
X393644Y566104D01*
X375604Y584144D01*
X375604Y609436D01*
X375588Y609743D01*
X375579Y610050D01*
X375568Y610129D01*
X375564Y610209D01*
X375517Y610512D01*
X375476Y610817D01*
X375457Y610895D01*
X375445Y610974D01*
X375367Y611271D01*
X375294Y611570D01*
X375267Y611646D01*
X375247Y611723D01*
X375139Y612009D01*
X375036Y612300D01*
X375001Y612372D01*
X374973Y612447D01*
X374836Y612721D01*
X374704Y612999D01*
X374662Y613068D01*
X374626Y613139D01*
X374461Y613398D01*
X374301Y613661D01*
X374253Y613724D01*
X374209Y613792D01*
X374019Y614032D01*
X373832Y614277D01*
X373778Y614336D01*
X373728Y614398D01*
X373513Y614618D01*
X373303Y614842D01*
X373242Y614894D01*
X373186Y614952D01*
X372949Y615148D01*
X372718Y615349D01*
X372652Y615395D01*
X372590Y615446D01*
X372335Y615617D01*
X372083Y615793D01*
X372013Y615832D01*
X371947Y615877D01*
X371675Y616020D01*
X371407Y616169D01*
X371333Y616201D01*
X371262Y616238D01*
X370977Y616353D01*
X370695Y616474D01*
X370618Y616498D01*
X370544Y616528D01*
X370249Y616612D01*
X369955Y616703D01*
X369877Y616719D01*
X369800Y616741D01*
X369498Y616795D01*
X369196Y616855D01*
X369132Y616860D01*
X369037Y616877D01*
X368265Y616934D01*
X368169Y616931D01*
X368105Y616935D01*
X311929Y616935D01*
X311856Y616931D01*
X311782Y616934D01*
X311469Y616911D01*
X311156Y616895D01*
X311084Y616884D01*
X311010Y616879D01*
X310701Y616824D01*
X310391Y616776D01*
X310320Y616757D01*
X310248Y616744D01*
X309946Y616658D01*
X309643Y616578D01*
X309574Y616552D01*
X309503Y616532D01*
X309211Y616415D01*
X308918Y616304D01*
X308853Y616271D01*
X308784Y616244D01*
X308506Y616098D01*
X308226Y615957D01*
X308164Y615917D01*
X308099Y615883D01*
X307838Y615709D01*
X307574Y615540D01*
X307516Y615495D01*
X307455Y615454D01*
X307341Y615356D01*
X306967Y615059D01*
X306743Y614839D01*
X306627Y614739D01*
X256186Y564298D01*
X256083Y564184D01*
X255973Y564076D01*
X255823Y563896D01*
X255667Y563723D01*
X255577Y563599D01*
X255478Y563480D01*
X255348Y563286D01*
X255211Y563097D01*
X255133Y562964D01*
X255048Y562837D01*
X254939Y562630D01*
X254821Y562428D01*
X254758Y562288D01*
X254686Y562152D01*
X254599Y561935D01*
X254503Y561722D01*
X254454Y561576D01*
X254397Y561434D01*
X254332Y561209D01*
X254259Y560987D01*
X254226Y560837D01*
X254183Y560690D01*
X254142Y560460D01*
X254092Y560231D01*
X254074Y560079D01*
X254047Y559927D01*
X254030Y559694D01*
X254004Y559462D01*
X254002Y559308D01*
X253991Y559155D01*
X253998Y558922D01*
X253995Y558688D01*
X254010Y558535D01*
X254014Y558381D01*
X254045Y558149D01*
X254067Y557917D01*
X254097Y557766D01*
X254117Y557614D01*
X254172Y557386D01*
X254218Y557157D01*
X254263Y557011D01*
X254299Y556861D01*
X254377Y556641D01*
X254446Y556417D01*
X254506Y556276D01*
X254558Y556131D01*
X254658Y555920D01*
X254749Y555705D01*
X254824Y555571D01*
X254890Y555432D01*
X255011Y555232D01*
X255125Y555028D01*
X255212Y554902D01*
X255292Y554770D01*
X255434Y554584D01*
X255568Y554393D01*
X255668Y554276D01*
X255761Y554154D01*
X255921Y553983D01*
X256074Y553807D01*
X256186Y553701D01*
X256291Y553589D01*
X256467Y553436D01*
X256637Y553276D01*
X256759Y553183D01*
X256876Y553082D01*
X257067Y552948D01*
X257253Y552806D01*
X257384Y552726D01*
X257510Y552638D01*
X257714Y552524D01*
X257914Y552403D01*
X258052Y552336D01*
X258187Y552262D01*
X258402Y552170D01*
X258613Y552069D01*
X258757Y552018D01*
X258899Y551957D01*
X259122Y551888D01*
X259342Y551809D01*
X259491Y551773D01*
X259638Y551728D01*
X259868Y551682D01*
X260094Y551626D01*
X260246Y551606D01*
X260397Y551576D01*
X260551Y551564D01*
X260862Y551522D01*
X261339Y551507D01*
X261488Y551496D01*
X355656Y551496D01*
X374132Y533019D01*
X374170Y532919D01*
X374285Y532603D01*
X374308Y532555D01*
X374327Y532505D01*
X374476Y532207D01*
X374622Y531906D01*
X374650Y531861D01*
X374674Y531813D01*
X374853Y531532D01*
X375029Y531248D01*
X375062Y531205D01*
X375091Y531160D01*
X375298Y530899D01*
X375502Y530635D01*
X375539Y530596D01*
X375572Y530554D01*
X375806Y530315D01*
X376036Y530074D01*
X376076Y530039D01*
X376114Y530001D01*
X376371Y529787D01*
X376625Y529571D01*
X376668Y529540D01*
X376710Y529506D01*
X376988Y529320D01*
X377262Y529131D01*
X377309Y529106D01*
X377353Y529076D01*
X377649Y528920D01*
X377941Y528760D01*
X377991Y528739D01*
X378038Y528714D01*
X378347Y528589D01*
X378655Y528460D01*
X378707Y528445D01*
X378756Y528425D01*
X379076Y528333D01*
X379397Y528236D01*
X379449Y528226D01*
X379500Y528211D01*
X379828Y528153D01*
X380157Y528089D01*
X380210Y528085D01*
X380263Y528075D01*
X380596Y528051D01*
X380928Y528022D01*
X380982Y528023D01*
X381035Y528019D01*
X381369Y528029D01*
G37*
G36*
X735786Y20009D02*
X735786Y20009D01*
X735940Y20007D01*
X736173Y20029D01*
X736406Y20041D01*
X736558Y20064D01*
X736711Y20079D01*
X736940Y20124D01*
X737171Y20160D01*
X737320Y20199D01*
X737471Y20229D01*
X737694Y20298D01*
X737920Y20358D01*
X738063Y20412D01*
X738210Y20458D01*
X738426Y20549D01*
X738644Y20632D01*
X738781Y20701D01*
X738923Y20761D01*
X739127Y20874D01*
X739336Y20979D01*
X739466Y21062D01*
X739600Y21136D01*
X739792Y21270D01*
X739989Y21396D01*
X740109Y21491D01*
X740235Y21579D01*
X740412Y21732D01*
X740595Y21877D01*
X740705Y21985D01*
X740821Y22085D01*
X740981Y22255D01*
X741148Y22419D01*
X741247Y22537D01*
X741352Y22649D01*
X741494Y22835D01*
X741643Y23015D01*
X741728Y23143D01*
X741822Y23265D01*
X741943Y23464D01*
X742073Y23658D01*
X742145Y23794D01*
X742225Y23925D01*
X742326Y24136D01*
X742435Y24343D01*
X742493Y24486D01*
X742559Y24624D01*
X742637Y24844D01*
X742724Y25061D01*
X742767Y25209D01*
X742818Y25354D01*
X742874Y25581D01*
X742938Y25805D01*
X742965Y25956D01*
X743001Y26106D01*
X743033Y26338D01*
X743074Y26568D01*
X743085Y26721D01*
X743106Y26873D01*
X743113Y27107D01*
X743130Y27340D01*
X743126Y27493D01*
X743131Y27647D01*
X743114Y27880D01*
X743107Y28114D01*
X743086Y28266D01*
X743076Y28419D01*
X743035Y28649D01*
X743004Y28881D01*
X742968Y29031D01*
X742941Y29182D01*
X742877Y29407D01*
X742822Y29634D01*
X742771Y29779D01*
X742729Y29927D01*
X742642Y30144D01*
X742564Y30364D01*
X742498Y30503D01*
X742441Y30645D01*
X742332Y30852D01*
X742232Y31063D01*
X742152Y31194D01*
X742080Y31331D01*
X741950Y31525D01*
X741829Y31725D01*
X741736Y31847D01*
X741651Y31975D01*
X741550Y32091D01*
X741360Y32341D01*
X741034Y32689D01*
X740936Y32803D01*
X734379Y39359D01*
X734379Y42446D01*
X734374Y42546D01*
X734377Y42646D01*
X734354Y42932D01*
X734339Y43219D01*
X734324Y43318D01*
X734316Y43418D01*
X734264Y43700D01*
X734220Y43984D01*
X734194Y44081D01*
X734176Y44180D01*
X734095Y44455D01*
X734022Y44732D01*
X733987Y44826D01*
X733958Y44923D01*
X733850Y45189D01*
X733748Y45457D01*
X733703Y45546D01*
X733665Y45639D01*
X733530Y45893D01*
X733401Y46149D01*
X733347Y46233D01*
X733300Y46322D01*
X733139Y46560D01*
X732984Y46802D01*
X732922Y46880D01*
X732866Y46963D01*
X732681Y47183D01*
X732503Y47408D01*
X732433Y47479D01*
X732368Y47556D01*
X732162Y47756D01*
X731961Y47961D01*
X731884Y48025D01*
X731812Y48095D01*
X731586Y48272D01*
X731365Y48456D01*
X731282Y48511D01*
X731203Y48573D01*
X730960Y48727D01*
X730722Y48886D01*
X730633Y48933D01*
X730548Y48986D01*
X730291Y49114D01*
X730037Y49248D01*
X729944Y49285D01*
X729854Y49330D01*
X729703Y49382D01*
X729319Y49537D01*
X728972Y49637D01*
X728821Y49689D01*
X725841Y50488D01*
X725592Y50541D01*
X725346Y50603D01*
X725214Y50621D01*
X725084Y50649D01*
X724831Y50676D01*
X724580Y50712D01*
X724446Y50718D01*
X724314Y50732D01*
X724060Y50733D01*
X723806Y50743D01*
X723673Y50734D01*
X723539Y50735D01*
X723287Y50709D01*
X723034Y50693D01*
X722934Y50674D01*
X722769Y50658D01*
X722011Y50501D01*
X721981Y50492D01*
X721959Y50488D01*
X714836Y48579D01*
X707564Y48579D01*
X704163Y49491D01*
X703889Y49549D01*
X703616Y49615D01*
X703510Y49630D01*
X703405Y49652D01*
X703126Y49682D01*
X702849Y49720D01*
X702742Y49723D01*
X702636Y49735D01*
X702355Y49736D01*
X702075Y49745D01*
X701968Y49737D01*
X701861Y49737D01*
X701582Y49709D01*
X701302Y49690D01*
X701197Y49671D01*
X701091Y49660D01*
X700816Y49604D01*
X700540Y49555D01*
X700437Y49526D01*
X700332Y49504D01*
X700066Y49420D01*
X699795Y49343D01*
X699696Y49303D01*
X699594Y49271D01*
X699338Y49159D01*
X699076Y49055D01*
X698982Y49005D01*
X698884Y48962D01*
X698640Y48825D01*
X698391Y48694D01*
X698302Y48635D01*
X698209Y48582D01*
X697980Y48420D01*
X697747Y48265D01*
X697684Y48210D01*
X697577Y48135D01*
X696995Y47625D01*
X696952Y47578D01*
X696919Y47550D01*
X693299Y43930D01*
X693299Y50800D01*
X693284Y51107D01*
X693274Y51413D01*
X693264Y51493D01*
X693259Y51573D01*
X693212Y51876D01*
X693171Y52181D01*
X693152Y52259D01*
X693140Y52338D01*
X693062Y52634D01*
X692989Y52934D01*
X692963Y53009D01*
X692942Y53087D01*
X692834Y53373D01*
X692731Y53663D01*
X692697Y53736D01*
X692668Y53811D01*
X692531Y54085D01*
X692399Y54363D01*
X692357Y54431D01*
X692321Y54503D01*
X692156Y54762D01*
X691996Y55024D01*
X691948Y55088D01*
X691905Y55156D01*
X691714Y55396D01*
X691528Y55641D01*
X691473Y55699D01*
X691423Y55762D01*
X691208Y55981D01*
X690998Y56205D01*
X690998Y56206D01*
X690997Y56206D01*
X690937Y56258D01*
X690881Y56316D01*
X690644Y56512D01*
X690412Y56713D01*
X690347Y56759D01*
X690285Y56810D01*
X690029Y56981D01*
X689778Y57157D01*
X689708Y57196D01*
X689641Y57241D01*
X689370Y57384D01*
X689101Y57533D01*
X689028Y57565D01*
X688957Y57602D01*
X688672Y57717D01*
X688389Y57838D01*
X688313Y57862D01*
X688239Y57892D01*
X687943Y57976D01*
X687650Y58068D01*
X687571Y58083D01*
X687494Y58105D01*
X687192Y58159D01*
X686891Y58220D01*
X686827Y58224D01*
X686732Y58241D01*
X685960Y58298D01*
X685863Y58295D01*
X685800Y58299D01*
X678930Y58299D01*
X682550Y61919D01*
X682738Y62128D01*
X682931Y62330D01*
X682997Y62415D01*
X683068Y62494D01*
X683233Y62721D01*
X683405Y62942D01*
X683462Y63033D01*
X683525Y63120D01*
X683666Y63362D01*
X683814Y63600D01*
X683860Y63696D01*
X683914Y63789D01*
X684030Y64044D01*
X684152Y64297D01*
X684189Y64397D01*
X684233Y64494D01*
X684321Y64761D01*
X684417Y65024D01*
X684443Y65128D01*
X684477Y65229D01*
X684537Y65504D01*
X684605Y65775D01*
X684620Y65881D01*
X684643Y65985D01*
X684675Y66264D01*
X684715Y66542D01*
X684719Y66649D01*
X684732Y66755D01*
X684735Y67035D01*
X684745Y67316D01*
X684739Y67422D01*
X684740Y67529D01*
X684714Y67809D01*
X684696Y68088D01*
X684680Y68170D01*
X684668Y68300D01*
X684517Y69059D01*
X684499Y69120D01*
X684491Y69163D01*
X683579Y72564D01*
X683579Y73009D01*
X683573Y73136D01*
X683575Y73263D01*
X683553Y73522D01*
X683539Y73782D01*
X683520Y73908D01*
X683509Y74034D01*
X683460Y74290D01*
X683420Y74547D01*
X683387Y74670D01*
X683364Y74795D01*
X683288Y75044D01*
X683222Y75296D01*
X683177Y75415D01*
X683141Y75536D01*
X683040Y75777D01*
X682948Y76020D01*
X682891Y76134D01*
X682842Y76251D01*
X682718Y76479D01*
X682601Y76712D01*
X682533Y76819D01*
X682472Y76931D01*
X682324Y77146D01*
X682184Y77365D01*
X682106Y77464D01*
X682034Y77569D01*
X681864Y77768D01*
X681703Y77971D01*
X681614Y78062D01*
X681532Y78159D01*
X681343Y78338D01*
X681161Y78524D01*
X681063Y78606D01*
X680972Y78693D01*
X680766Y78853D01*
X680565Y79019D01*
X680460Y79090D01*
X680359Y79167D01*
X680138Y79305D01*
X679922Y79449D01*
X679810Y79509D01*
X679701Y79576D01*
X679467Y79690D01*
X679237Y79811D01*
X679119Y79859D01*
X679005Y79914D01*
X678760Y80003D01*
X678519Y80101D01*
X678397Y80136D01*
X678277Y80179D01*
X678024Y80242D01*
X677775Y80314D01*
X677650Y80336D01*
X677526Y80367D01*
X677268Y80404D01*
X677012Y80450D01*
X676886Y80459D01*
X676760Y80477D01*
X676499Y80488D01*
X676240Y80506D01*
X676113Y80503D01*
X675986Y80508D01*
X675727Y80491D01*
X675466Y80483D01*
X675340Y80466D01*
X675214Y80458D01*
X675057Y80428D01*
X674699Y80380D01*
X674296Y80283D01*
X674139Y80253D01*
X672843Y79905D01*
X417742Y79905D01*
X416993Y80106D01*
X416869Y80132D01*
X416747Y80167D01*
X416491Y80213D01*
X416236Y80267D01*
X416109Y80281D01*
X415984Y80303D01*
X415725Y80322D01*
X415466Y80350D01*
X415339Y80350D01*
X415212Y80360D01*
X414952Y80352D01*
X414692Y80353D01*
X414565Y80340D01*
X414438Y80336D01*
X414180Y80302D01*
X413921Y80276D01*
X413797Y80250D01*
X413671Y80233D01*
X413417Y80172D01*
X413163Y80120D01*
X413042Y80081D01*
X412918Y80051D01*
X412673Y79964D01*
X412425Y79886D01*
X412308Y79835D01*
X412188Y79793D01*
X411953Y79681D01*
X411714Y79578D01*
X411604Y79515D01*
X411489Y79461D01*
X411267Y79326D01*
X411040Y79198D01*
X410936Y79124D01*
X410827Y79058D01*
X410621Y78901D01*
X410408Y78750D01*
X410312Y78666D01*
X410211Y78590D01*
X410021Y78412D01*
X409825Y78240D01*
X409739Y78147D01*
X409646Y78060D01*
X409476Y77863D01*
X409299Y77672D01*
X409222Y77571D01*
X409139Y77475D01*
X408990Y77261D01*
X408833Y77053D01*
X408768Y76945D01*
X408695Y76840D01*
X408568Y76613D01*
X408434Y76390D01*
X408380Y76275D01*
X408319Y76164D01*
X408216Y75924D01*
X408106Y75689D01*
X408064Y75569D01*
X408014Y75452D01*
X407937Y75203D01*
X407851Y74957D01*
X407822Y74834D01*
X407785Y74712D01*
X407733Y74457D01*
X407674Y74204D01*
X407658Y74078D01*
X407633Y73953D01*
X407621Y73794D01*
X407575Y73436D01*
X407564Y73021D01*
X407553Y72862D01*
X407553Y54213D01*
X405679Y47219D01*
X402058Y40948D01*
X396240Y35130D01*
X393913Y32803D01*
X393810Y32689D01*
X393700Y32581D01*
X393550Y32401D01*
X393394Y32228D01*
X393304Y32104D01*
X393205Y31985D01*
X393075Y31791D01*
X392938Y31602D01*
X392860Y31469D01*
X392775Y31342D01*
X392666Y31135D01*
X392548Y30933D01*
X392485Y30793D01*
X392413Y30657D01*
X392326Y30440D01*
X392230Y30227D01*
X392181Y30081D01*
X392124Y29939D01*
X392059Y29714D01*
X391986Y29492D01*
X391953Y29342D01*
X391910Y29195D01*
X391869Y28965D01*
X391819Y28736D01*
X391801Y28584D01*
X391774Y28432D01*
X391757Y28199D01*
X391731Y27967D01*
X391729Y27813D01*
X391718Y27660D01*
X391725Y27427D01*
X391722Y27193D01*
X391737Y27040D01*
X391741Y26886D01*
X391772Y26654D01*
X391794Y26422D01*
X391824Y26271D01*
X391844Y26119D01*
X391899Y25891D01*
X391945Y25662D01*
X391990Y25516D01*
X392026Y25366D01*
X392104Y25146D01*
X392173Y24922D01*
X392233Y24781D01*
X392285Y24636D01*
X392385Y24425D01*
X392476Y24210D01*
X392551Y24076D01*
X392617Y23937D01*
X392738Y23737D01*
X392851Y23533D01*
X392939Y23407D01*
X393019Y23275D01*
X393161Y23089D01*
X393294Y22898D01*
X393395Y22781D01*
X393488Y22659D01*
X393648Y22489D01*
X393801Y22312D01*
X393913Y22206D01*
X394018Y22094D01*
X394194Y21941D01*
X394364Y21781D01*
X394486Y21688D01*
X394603Y21587D01*
X394795Y21453D01*
X394980Y21311D01*
X395111Y21231D01*
X395237Y21143D01*
X395441Y21029D01*
X395641Y20908D01*
X395779Y20841D01*
X395914Y20767D01*
X396128Y20675D01*
X396340Y20574D01*
X396484Y20523D01*
X396626Y20462D01*
X396849Y20393D01*
X397069Y20314D01*
X397219Y20278D01*
X397365Y20233D01*
X397594Y20187D01*
X397821Y20131D01*
X397974Y20111D01*
X398124Y20081D01*
X398278Y20069D01*
X398589Y20027D01*
X399066Y20012D01*
X399215Y20001D01*
X735633Y20001D01*
X735786Y20009D01*
G37*
G36*
X306690Y322144D02*
X306690Y322144D01*
X306770Y322143D01*
X307077Y322172D01*
X307382Y322194D01*
X307461Y322207D01*
X307541Y322215D01*
X307843Y322275D01*
X308145Y322328D01*
X308222Y322350D01*
X308301Y322366D01*
X308594Y322456D01*
X308890Y322540D01*
X308964Y322570D01*
X309041Y322594D01*
X309323Y322714D01*
X309608Y322828D01*
X309679Y322866D01*
X309753Y322897D01*
X310022Y323046D01*
X310294Y323189D01*
X310360Y323233D01*
X310431Y323272D01*
X310682Y323448D01*
X310938Y323618D01*
X310986Y323660D01*
X311066Y323715D01*
X311652Y324221D01*
X311718Y324292D01*
X311766Y324333D01*
X312330Y324897D01*
X312535Y325125D01*
X312746Y325349D01*
X312794Y325413D01*
X312848Y325472D01*
X313029Y325720D01*
X313216Y325965D01*
X313257Y326033D01*
X313305Y326098D01*
X313459Y326363D01*
X313619Y326625D01*
X313654Y326698D01*
X313694Y326767D01*
X313821Y327047D01*
X313953Y327324D01*
X313980Y327400D01*
X314013Y327472D01*
X314109Y327764D01*
X314213Y328054D01*
X314231Y328132D01*
X314257Y328207D01*
X314323Y328507D01*
X314396Y328806D01*
X314406Y328885D01*
X314424Y328963D01*
X314459Y329269D01*
X314500Y329573D01*
X314503Y329653D01*
X314512Y329733D01*
X314515Y330040D01*
X314525Y330347D01*
X314519Y330427D01*
X314520Y330507D01*
X314492Y330813D01*
X314470Y331119D01*
X314456Y331198D01*
X314448Y331278D01*
X314389Y331579D01*
X314335Y331882D01*
X314313Y331959D01*
X314298Y332037D01*
X314207Y332331D01*
X314123Y332627D01*
X314093Y332701D01*
X314069Y332777D01*
X313949Y333060D01*
X313835Y333345D01*
X313797Y333416D01*
X313766Y333490D01*
X313617Y333759D01*
X313474Y334030D01*
X313430Y334097D01*
X313391Y334167D01*
X313215Y334419D01*
X313045Y334675D01*
X313003Y334723D01*
X312948Y334802D01*
X312442Y335388D01*
X312371Y335454D01*
X312330Y335503D01*
X310206Y337627D01*
X306352Y344302D01*
X304357Y351746D01*
X304357Y359454D01*
X306208Y366359D01*
X306261Y366607D01*
X306322Y366854D01*
X306341Y366986D01*
X306369Y367116D01*
X306396Y367368D01*
X306432Y367620D01*
X306437Y367754D01*
X306452Y367886D01*
X306453Y368140D01*
X306462Y368394D01*
X306454Y368527D01*
X306454Y368660D01*
X306429Y368913D01*
X306413Y369166D01*
X306394Y369266D01*
X306377Y369431D01*
X306221Y370189D01*
X306212Y370219D01*
X306208Y370241D01*
X304357Y377146D01*
X304357Y384854D01*
X306208Y391759D01*
X306261Y392007D01*
X306322Y392254D01*
X306341Y392386D01*
X306369Y392516D01*
X306396Y392768D01*
X306432Y393020D01*
X306437Y393154D01*
X306452Y393286D01*
X306453Y393540D01*
X306462Y393794D01*
X306454Y393927D01*
X306454Y394060D01*
X306429Y394313D01*
X306413Y394566D01*
X306394Y394666D01*
X306377Y394831D01*
X306221Y395589D01*
X306212Y395619D01*
X306208Y395641D01*
X304357Y402546D01*
X304357Y410254D01*
X306208Y417159D01*
X306261Y417407D01*
X306322Y417654D01*
X306341Y417786D01*
X306369Y417916D01*
X306396Y418168D01*
X306432Y418420D01*
X306437Y418554D01*
X306452Y418686D01*
X306453Y418940D01*
X306462Y419194D01*
X306454Y419327D01*
X306454Y419460D01*
X306429Y419713D01*
X306413Y419966D01*
X306394Y420066D01*
X306377Y420231D01*
X306221Y420989D01*
X306212Y421019D01*
X306208Y421041D01*
X304357Y427946D01*
X304357Y435654D01*
X306208Y442559D01*
X306261Y442807D01*
X306322Y443054D01*
X306341Y443186D01*
X306369Y443316D01*
X306396Y443568D01*
X306432Y443820D01*
X306437Y443954D01*
X306452Y444086D01*
X306453Y444340D01*
X306462Y444594D01*
X306454Y444727D01*
X306454Y444860D01*
X306429Y445113D01*
X306413Y445366D01*
X306394Y445466D01*
X306377Y445631D01*
X306221Y446389D01*
X306212Y446419D01*
X306208Y446441D01*
X304357Y453346D01*
X304357Y461054D01*
X306208Y467959D01*
X306261Y468207D01*
X306322Y468454D01*
X306341Y468586D01*
X306369Y468716D01*
X306396Y468968D01*
X306432Y469220D01*
X306437Y469354D01*
X306452Y469486D01*
X306453Y469740D01*
X306462Y469994D01*
X306454Y470127D01*
X306454Y470260D01*
X306429Y470513D01*
X306413Y470766D01*
X306394Y470866D01*
X306377Y471031D01*
X306330Y471260D01*
X306320Y471337D01*
X306282Y471492D01*
X306221Y471789D01*
X306212Y471819D01*
X306208Y471841D01*
X304357Y478746D01*
X304357Y482405D01*
X304341Y482712D01*
X304332Y483019D01*
X304321Y483098D01*
X304317Y483178D01*
X304270Y483481D01*
X304229Y483786D01*
X304210Y483864D01*
X304198Y483943D01*
X304120Y484240D01*
X304047Y484539D01*
X304020Y484615D01*
X304000Y484692D01*
X303892Y484978D01*
X303789Y485269D01*
X303754Y485341D01*
X303726Y485416D01*
X303589Y485690D01*
X303457Y485968D01*
X303415Y486037D01*
X303379Y486108D01*
X303214Y486367D01*
X303054Y486630D01*
X303006Y486693D01*
X302962Y486761D01*
X302772Y487001D01*
X302585Y487246D01*
X302531Y487305D01*
X302481Y487367D01*
X302266Y487587D01*
X302056Y487811D01*
X301995Y487863D01*
X301939Y487921D01*
X301702Y488117D01*
X301471Y488318D01*
X301405Y488364D01*
X301343Y488415D01*
X301088Y488586D01*
X300836Y488762D01*
X300766Y488801D01*
X300700Y488846D01*
X300428Y488989D01*
X300160Y489138D01*
X300086Y489170D01*
X300015Y489207D01*
X299730Y489322D01*
X299448Y489443D01*
X299371Y489467D01*
X299297Y489497D01*
X299002Y489581D01*
X298708Y489672D01*
X298630Y489688D01*
X298553Y489710D01*
X298251Y489764D01*
X297949Y489824D01*
X297885Y489829D01*
X297790Y489846D01*
X297018Y489903D01*
X296922Y489900D01*
X296858Y489904D01*
X253944Y489904D01*
X235904Y507944D01*
X235904Y525912D01*
X235896Y526065D01*
X235898Y526219D01*
X235876Y526452D01*
X235864Y526685D01*
X235841Y526837D01*
X235826Y526990D01*
X235781Y527219D01*
X235745Y527450D01*
X235706Y527598D01*
X235676Y527749D01*
X235607Y527973D01*
X235547Y528198D01*
X235493Y528342D01*
X235447Y528489D01*
X235356Y528704D01*
X235273Y528923D01*
X235204Y529060D01*
X235144Y529202D01*
X235031Y529406D01*
X234926Y529615D01*
X234843Y529744D01*
X234769Y529879D01*
X234635Y530071D01*
X234509Y530268D01*
X234414Y530388D01*
X234326Y530514D01*
X234173Y530691D01*
X234028Y530874D01*
X233920Y530984D01*
X233820Y531100D01*
X233650Y531260D01*
X233486Y531427D01*
X233368Y531525D01*
X233256Y531631D01*
X233070Y531772D01*
X232890Y531922D01*
X232762Y532007D01*
X232640Y532100D01*
X232441Y532222D01*
X232247Y532352D01*
X232111Y532424D01*
X231980Y532504D01*
X231769Y532605D01*
X231562Y532714D01*
X231419Y532771D01*
X231281Y532837D01*
X231061Y532916D01*
X230844Y533003D01*
X230696Y533046D01*
X230551Y533097D01*
X230324Y533152D01*
X230100Y533217D01*
X229949Y533244D01*
X229799Y533280D01*
X229567Y533312D01*
X229337Y533353D01*
X229184Y533364D01*
X229032Y533385D01*
X228798Y533392D01*
X228565Y533409D01*
X228412Y533404D01*
X228258Y533409D01*
X228025Y533393D01*
X227791Y533386D01*
X227639Y533365D01*
X227486Y533354D01*
X227256Y533314D01*
X227024Y533283D01*
X226874Y533246D01*
X226723Y533220D01*
X226498Y533156D01*
X226271Y533101D01*
X226126Y533050D01*
X225978Y533007D01*
X225761Y532920D01*
X225541Y532842D01*
X225402Y532777D01*
X225260Y532719D01*
X225053Y532610D01*
X224842Y532510D01*
X224711Y532430D01*
X224574Y532359D01*
X224380Y532229D01*
X224180Y532108D01*
X224058Y532015D01*
X223930Y531929D01*
X223814Y531829D01*
X223564Y531639D01*
X223216Y531312D01*
X223102Y531214D01*
X206288Y514400D01*
X206203Y514306D01*
X206112Y514218D01*
X205944Y514019D01*
X205770Y513825D01*
X205695Y513723D01*
X205613Y513626D01*
X205467Y513411D01*
X205313Y513200D01*
X205249Y513090D01*
X205178Y512985D01*
X205055Y512756D01*
X204924Y512531D01*
X204872Y512415D01*
X204812Y512303D01*
X204713Y512063D01*
X204605Y511825D01*
X204565Y511704D01*
X204517Y511587D01*
X204443Y511337D01*
X204361Y511090D01*
X204334Y510966D01*
X204298Y510844D01*
X204251Y510588D01*
X204195Y510334D01*
X204180Y510208D01*
X204157Y510083D01*
X204136Y509823D01*
X204107Y509565D01*
X204105Y509438D01*
X204095Y509311D01*
X204101Y509051D01*
X204098Y508791D01*
X204110Y508664D01*
X204113Y508537D01*
X204146Y508279D01*
X204170Y508020D01*
X204195Y507895D01*
X204211Y507769D01*
X204270Y507516D01*
X204321Y507260D01*
X204358Y507139D01*
X204387Y507015D01*
X204472Y506769D01*
X204549Y506520D01*
X204599Y506403D01*
X204640Y506283D01*
X204750Y506047D01*
X204852Y505808D01*
X204914Y505697D01*
X204967Y505582D01*
X205101Y505358D01*
X205227Y505130D01*
X205300Y505026D01*
X205365Y504917D01*
X205521Y504709D01*
X205670Y504495D01*
X205753Y504399D01*
X205829Y504298D01*
X206006Y504107D01*
X206176Y503909D01*
X206269Y503822D01*
X206355Y503729D01*
X206551Y503557D01*
X206740Y503379D01*
X206841Y503302D01*
X206937Y503218D01*
X207069Y503128D01*
X207356Y502909D01*
X207709Y502693D01*
X207842Y502603D01*
X211991Y500208D01*
X218508Y493691D01*
X223115Y485710D01*
X225501Y476808D01*
X225501Y460093D01*
X225503Y460046D01*
X225501Y459999D01*
X225523Y459660D01*
X225541Y459319D01*
X225548Y459273D01*
X225551Y459226D01*
X225575Y459103D01*
X225660Y458554D01*
X225729Y458293D01*
X225756Y458152D01*
X225789Y458031D01*
X225789Y457561D01*
X225795Y457436D01*
X225793Y457310D01*
X225810Y457150D01*
X225829Y456788D01*
X225892Y456380D01*
X225909Y456222D01*
X225993Y455760D01*
X225814Y453587D01*
X225800Y453123D01*
X225789Y452971D01*
X225789Y402811D01*
X225793Y402738D01*
X225790Y402664D01*
X225813Y402351D01*
X225829Y402038D01*
X225840Y401966D01*
X225845Y401892D01*
X225900Y401583D01*
X225948Y401273D01*
X225967Y401202D01*
X225980Y401130D01*
X226066Y400827D01*
X226146Y400525D01*
X226172Y400456D01*
X226192Y400385D01*
X226309Y400093D01*
X226420Y399800D01*
X226453Y399735D01*
X226480Y399666D01*
X226626Y399388D01*
X226767Y399108D01*
X226807Y399046D01*
X226841Y398981D01*
X227015Y398720D01*
X227184Y398456D01*
X227229Y398398D01*
X227270Y398337D01*
X227368Y398223D01*
X227665Y397849D01*
X227885Y397625D01*
X227985Y397509D01*
X301160Y324333D01*
X301389Y324128D01*
X301612Y323917D01*
X301676Y323869D01*
X301735Y323815D01*
X301984Y323634D01*
X302228Y323448D01*
X302296Y323406D01*
X302361Y323358D01*
X302627Y323204D01*
X302888Y323044D01*
X302961Y323009D01*
X303030Y322969D01*
X303310Y322842D01*
X303587Y322710D01*
X303663Y322684D01*
X303736Y322650D01*
X304028Y322554D01*
X304317Y322451D01*
X304395Y322432D01*
X304471Y322407D01*
X304771Y322340D01*
X305069Y322268D01*
X305148Y322257D01*
X305227Y322240D01*
X305532Y322205D01*
X305836Y322163D01*
X305917Y322161D01*
X305996Y322152D01*
X306303Y322148D01*
X306610Y322138D01*
X306690Y322144D01*
G37*
D10*
X221516Y747663D02*
X218807Y747663D01*
X218807Y738632D01*
X224226Y738632D01*
X224344Y738634D01*
X224462Y738640D01*
X224580Y738649D01*
X224697Y738663D01*
X224814Y738680D01*
X224931Y738701D01*
X225046Y738726D01*
X225161Y738755D01*
X225275Y738788D01*
X225387Y738824D01*
X225498Y738864D01*
X225608Y738907D01*
X225717Y738954D01*
X225824Y739004D01*
X225929Y739059D01*
X226032Y739116D01*
X226133Y739177D01*
X226233Y739241D01*
X226330Y739308D01*
X226425Y739378D01*
X226517Y739452D01*
X226608Y739528D01*
X226695Y739608D01*
X226780Y739690D01*
X226862Y739775D01*
X226942Y739862D01*
X227018Y739953D01*
X227092Y740045D01*
X227162Y740140D01*
X227229Y740237D01*
X227293Y740337D01*
X227354Y740438D01*
X227411Y740541D01*
X227466Y740646D01*
X227516Y740753D01*
X227563Y740862D01*
X227606Y740972D01*
X227646Y741083D01*
X227682Y741195D01*
X227715Y741309D01*
X227744Y741424D01*
X227769Y741539D01*
X227790Y741656D01*
X227807Y741773D01*
X227821Y741890D01*
X227830Y742008D01*
X227836Y742126D01*
X227838Y742244D01*
X227838Y751276D01*
X227836Y751394D01*
X227830Y751512D01*
X227821Y751630D01*
X227807Y751747D01*
X227790Y751864D01*
X227769Y751981D01*
X227744Y752096D01*
X227715Y752211D01*
X227682Y752325D01*
X227646Y752437D01*
X227606Y752548D01*
X227563Y752658D01*
X227516Y752767D01*
X227466Y752874D01*
X227411Y752979D01*
X227354Y753082D01*
X227293Y753183D01*
X227229Y753283D01*
X227162Y753380D01*
X227092Y753475D01*
X227018Y753567D01*
X226942Y753658D01*
X226862Y753745D01*
X226780Y753830D01*
X226695Y753912D01*
X226608Y753992D01*
X226517Y754068D01*
X226425Y754142D01*
X226330Y754212D01*
X226233Y754279D01*
X226133Y754343D01*
X226032Y754404D01*
X225929Y754461D01*
X225824Y754516D01*
X225717Y754566D01*
X225608Y754613D01*
X225498Y754656D01*
X225387Y754696D01*
X225275Y754732D01*
X225161Y754765D01*
X225046Y754794D01*
X224931Y754819D01*
X224814Y754840D01*
X224697Y754857D01*
X224580Y754871D01*
X224462Y754880D01*
X224344Y754886D01*
X224226Y754888D01*
X218807Y754888D01*
X208737Y744954D02*
X204673Y744954D01*
X208737Y744954D02*
X208849Y744952D01*
X208960Y744946D01*
X209071Y744936D01*
X209182Y744923D01*
X209292Y744905D01*
X209401Y744883D01*
X209510Y744858D01*
X209618Y744829D01*
X209724Y744796D01*
X209830Y744759D01*
X209934Y744719D01*
X210036Y744675D01*
X210137Y744627D01*
X210236Y744576D01*
X210334Y744521D01*
X210429Y744463D01*
X210522Y744402D01*
X210613Y744337D01*
X210702Y744269D01*
X210788Y744198D01*
X210871Y744125D01*
X210952Y744048D01*
X211031Y743968D01*
X211106Y743886D01*
X211178Y743801D01*
X211248Y743714D01*
X211314Y743624D01*
X211377Y743532D01*
X211437Y743437D01*
X211493Y743341D01*
X211546Y743243D01*
X211595Y743143D01*
X211641Y743041D01*
X211683Y742938D01*
X211722Y742833D01*
X211757Y742727D01*
X211788Y742620D01*
X211815Y742512D01*
X211839Y742403D01*
X211858Y742293D01*
X211874Y742183D01*
X211886Y742072D01*
X211894Y741960D01*
X211898Y741849D01*
X211898Y741737D01*
X211894Y741626D01*
X211886Y741514D01*
X211874Y741403D01*
X211858Y741293D01*
X211839Y741183D01*
X211815Y741074D01*
X211788Y740966D01*
X211757Y740859D01*
X211722Y740753D01*
X211683Y740648D01*
X211641Y740545D01*
X211595Y740443D01*
X211546Y740343D01*
X211493Y740245D01*
X211437Y740149D01*
X211377Y740054D01*
X211314Y739962D01*
X211248Y739872D01*
X211178Y739785D01*
X211106Y739700D01*
X211031Y739618D01*
X210952Y739538D01*
X210871Y739461D01*
X210788Y739388D01*
X210702Y739317D01*
X210613Y739249D01*
X210522Y739184D01*
X210429Y739123D01*
X210334Y739065D01*
X210236Y739010D01*
X210137Y738959D01*
X210036Y738911D01*
X209934Y738867D01*
X209830Y738827D01*
X209724Y738790D01*
X209618Y738757D01*
X209510Y738728D01*
X209401Y738703D01*
X209292Y738681D01*
X209182Y738663D01*
X209071Y738650D01*
X208960Y738640D01*
X208849Y738634D01*
X208737Y738632D01*
X204673Y738632D01*
X204673Y746760D01*
X204675Y746861D01*
X204681Y746962D01*
X204690Y747063D01*
X204703Y747164D01*
X204720Y747264D01*
X204741Y747363D01*
X204765Y747461D01*
X204793Y747558D01*
X204825Y747655D01*
X204860Y747750D01*
X204899Y747843D01*
X204941Y747935D01*
X204987Y748026D01*
X205036Y748115D01*
X205088Y748201D01*
X205144Y748286D01*
X205202Y748369D01*
X205264Y748449D01*
X205329Y748527D01*
X205396Y748603D01*
X205466Y748676D01*
X205539Y748746D01*
X205615Y748813D01*
X205693Y748878D01*
X205773Y748940D01*
X205856Y748998D01*
X205941Y749054D01*
X206028Y749106D01*
X206116Y749155D01*
X206207Y749201D01*
X206299Y749243D01*
X206392Y749282D01*
X206487Y749317D01*
X206584Y749349D01*
X206681Y749377D01*
X206779Y749401D01*
X206878Y749422D01*
X206978Y749439D01*
X207079Y749452D01*
X207180Y749461D01*
X207281Y749467D01*
X207382Y749469D01*
X210995Y749469D01*
X197162Y754888D02*
X197162Y738632D01*
X192647Y738632D01*
X192543Y738634D01*
X192440Y738640D01*
X192336Y738650D01*
X192233Y738664D01*
X192131Y738682D01*
X192030Y738703D01*
X191929Y738729D01*
X191830Y738758D01*
X191731Y738791D01*
X191634Y738828D01*
X191539Y738869D01*
X191445Y738913D01*
X191353Y738961D01*
X191263Y739012D01*
X191174Y739067D01*
X191088Y739125D01*
X191005Y739187D01*
X190923Y739251D01*
X190845Y739319D01*
X190769Y739389D01*
X190695Y739462D01*
X190625Y739539D01*
X190557Y739617D01*
X190493Y739699D01*
X190431Y739782D01*
X190373Y739868D01*
X190318Y739957D01*
X190267Y740047D01*
X190219Y740139D01*
X190175Y740233D01*
X190134Y740328D01*
X190097Y740425D01*
X190064Y740524D01*
X190035Y740623D01*
X190009Y740724D01*
X189988Y740825D01*
X189970Y740927D01*
X189956Y741030D01*
X189946Y741134D01*
X189940Y741237D01*
X189938Y741341D01*
X189937Y741341D02*
X189937Y746760D01*
X189938Y746760D02*
X189940Y746861D01*
X189946Y746962D01*
X189955Y747063D01*
X189968Y747164D01*
X189985Y747264D01*
X190006Y747363D01*
X190030Y747461D01*
X190058Y747558D01*
X190090Y747655D01*
X190125Y747750D01*
X190164Y747843D01*
X190206Y747935D01*
X190252Y748026D01*
X190301Y748115D01*
X190353Y748201D01*
X190409Y748286D01*
X190467Y748369D01*
X190529Y748449D01*
X190594Y748527D01*
X190661Y748603D01*
X190731Y748676D01*
X190804Y748746D01*
X190880Y748813D01*
X190958Y748878D01*
X191038Y748940D01*
X191121Y748998D01*
X191206Y749054D01*
X191293Y749106D01*
X191381Y749155D01*
X191472Y749201D01*
X191564Y749243D01*
X191657Y749282D01*
X191752Y749317D01*
X191849Y749349D01*
X191946Y749377D01*
X192044Y749401D01*
X192143Y749422D01*
X192243Y749439D01*
X192344Y749452D01*
X192445Y749461D01*
X192546Y749467D01*
X192647Y749469D01*
X197162Y749469D01*
X183083Y749469D02*
X183083Y738632D01*
X183083Y749469D02*
X177664Y749469D01*
X177664Y747663D01*
X172782Y749469D02*
X172782Y738632D01*
X173233Y753985D02*
X173233Y754888D01*
X172330Y754888D01*
X172330Y753985D01*
X173233Y753985D01*
X163785Y738632D02*
X159269Y738632D01*
X163785Y738632D02*
X163886Y738634D01*
X163987Y738640D01*
X164088Y738649D01*
X164189Y738662D01*
X164289Y738679D01*
X164388Y738700D01*
X164486Y738724D01*
X164583Y738752D01*
X164680Y738784D01*
X164775Y738819D01*
X164868Y738858D01*
X164960Y738900D01*
X165051Y738946D01*
X165140Y738995D01*
X165226Y739047D01*
X165311Y739103D01*
X165394Y739161D01*
X165474Y739223D01*
X165552Y739288D01*
X165628Y739355D01*
X165701Y739425D01*
X165771Y739498D01*
X165838Y739574D01*
X165903Y739652D01*
X165965Y739732D01*
X166023Y739815D01*
X166079Y739900D01*
X166131Y739987D01*
X166180Y740075D01*
X166226Y740166D01*
X166268Y740258D01*
X166307Y740351D01*
X166342Y740446D01*
X166374Y740543D01*
X166402Y740640D01*
X166426Y740738D01*
X166447Y740837D01*
X166464Y740937D01*
X166477Y741038D01*
X166486Y741139D01*
X166492Y741240D01*
X166494Y741341D01*
X166494Y745857D01*
X166492Y745976D01*
X166486Y746096D01*
X166476Y746215D01*
X166462Y746333D01*
X166445Y746452D01*
X166423Y746569D01*
X166398Y746686D01*
X166368Y746801D01*
X166335Y746916D01*
X166298Y747030D01*
X166258Y747142D01*
X166213Y747253D01*
X166165Y747362D01*
X166114Y747470D01*
X166059Y747576D01*
X166000Y747680D01*
X165938Y747782D01*
X165873Y747882D01*
X165804Y747980D01*
X165732Y748076D01*
X165657Y748169D01*
X165580Y748259D01*
X165499Y748347D01*
X165415Y748432D01*
X165328Y748514D01*
X165239Y748594D01*
X165147Y748670D01*
X165053Y748744D01*
X164956Y748814D01*
X164858Y748881D01*
X164757Y748945D01*
X164653Y749005D01*
X164548Y749062D01*
X164441Y749115D01*
X164333Y749165D01*
X164223Y749211D01*
X164111Y749253D01*
X163998Y749292D01*
X163884Y749327D01*
X163769Y749358D01*
X163652Y749386D01*
X163535Y749409D01*
X163418Y749429D01*
X163299Y749445D01*
X163180Y749457D01*
X163061Y749465D01*
X162942Y749469D01*
X162822Y749469D01*
X162703Y749465D01*
X162584Y749457D01*
X162465Y749445D01*
X162346Y749429D01*
X162229Y749409D01*
X162112Y749386D01*
X161995Y749358D01*
X161880Y749327D01*
X161766Y749292D01*
X161653Y749253D01*
X161541Y749211D01*
X161431Y749165D01*
X161323Y749115D01*
X161216Y749062D01*
X161111Y749005D01*
X161007Y748945D01*
X160906Y748881D01*
X160808Y748814D01*
X160711Y748744D01*
X160617Y748670D01*
X160525Y748594D01*
X160436Y748514D01*
X160349Y748432D01*
X160265Y748347D01*
X160184Y748259D01*
X160107Y748169D01*
X160032Y748076D01*
X159960Y747980D01*
X159891Y747882D01*
X159826Y747782D01*
X159764Y747680D01*
X159705Y747576D01*
X159650Y747470D01*
X159599Y747362D01*
X159551Y747253D01*
X159506Y747142D01*
X159466Y747030D01*
X159429Y746916D01*
X159396Y746801D01*
X159366Y746686D01*
X159341Y746569D01*
X159319Y746452D01*
X159302Y746333D01*
X159288Y746215D01*
X159278Y746096D01*
X159272Y745976D01*
X159270Y745857D01*
X159269Y745857D02*
X159269Y744051D01*
X166494Y744051D01*
X152710Y741341D02*
X152710Y754888D01*
X152710Y741341D02*
X152708Y741240D01*
X152702Y741139D01*
X152693Y741038D01*
X152680Y740937D01*
X152663Y740837D01*
X152642Y740738D01*
X152618Y740640D01*
X152590Y740543D01*
X152558Y740446D01*
X152523Y740351D01*
X152484Y740258D01*
X152442Y740166D01*
X152396Y740075D01*
X152347Y739987D01*
X152295Y739900D01*
X152239Y739815D01*
X152181Y739732D01*
X152119Y739652D01*
X152054Y739574D01*
X151987Y739498D01*
X151917Y739425D01*
X151844Y739355D01*
X151768Y739288D01*
X151690Y739223D01*
X151610Y739161D01*
X151527Y739103D01*
X151442Y739047D01*
X151356Y738995D01*
X151267Y738946D01*
X151176Y738900D01*
X151084Y738858D01*
X150991Y738819D01*
X150896Y738784D01*
X150799Y738752D01*
X150702Y738724D01*
X150604Y738700D01*
X150505Y738679D01*
X150405Y738662D01*
X150304Y738649D01*
X150203Y738640D01*
X150102Y738634D01*
X150001Y738632D01*
X135584Y738632D02*
X135584Y754888D01*
X135584Y738632D02*
X128359Y738632D01*
X122727Y742244D02*
X122727Y745857D01*
X122726Y745857D02*
X122724Y745976D01*
X122718Y746096D01*
X122708Y746215D01*
X122694Y746333D01*
X122677Y746452D01*
X122655Y746569D01*
X122630Y746686D01*
X122600Y746801D01*
X122567Y746916D01*
X122530Y747030D01*
X122490Y747142D01*
X122445Y747253D01*
X122397Y747362D01*
X122346Y747470D01*
X122291Y747576D01*
X122232Y747680D01*
X122170Y747782D01*
X122105Y747882D01*
X122036Y747980D01*
X121964Y748076D01*
X121889Y748169D01*
X121812Y748259D01*
X121731Y748347D01*
X121647Y748432D01*
X121560Y748514D01*
X121471Y748594D01*
X121379Y748670D01*
X121285Y748744D01*
X121188Y748814D01*
X121090Y748881D01*
X120989Y748945D01*
X120885Y749005D01*
X120780Y749062D01*
X120673Y749115D01*
X120565Y749165D01*
X120455Y749211D01*
X120343Y749253D01*
X120230Y749292D01*
X120116Y749327D01*
X120001Y749358D01*
X119884Y749386D01*
X119767Y749409D01*
X119650Y749429D01*
X119531Y749445D01*
X119412Y749457D01*
X119293Y749465D01*
X119174Y749469D01*
X119054Y749469D01*
X118935Y749465D01*
X118816Y749457D01*
X118697Y749445D01*
X118578Y749429D01*
X118461Y749409D01*
X118344Y749386D01*
X118227Y749358D01*
X118112Y749327D01*
X117998Y749292D01*
X117885Y749253D01*
X117773Y749211D01*
X117663Y749165D01*
X117555Y749115D01*
X117448Y749062D01*
X117343Y749005D01*
X117239Y748945D01*
X117138Y748881D01*
X117040Y748814D01*
X116943Y748744D01*
X116849Y748670D01*
X116757Y748594D01*
X116668Y748514D01*
X116581Y748432D01*
X116497Y748347D01*
X116416Y748259D01*
X116339Y748169D01*
X116264Y748076D01*
X116192Y747980D01*
X116123Y747882D01*
X116058Y747782D01*
X115996Y747680D01*
X115937Y747576D01*
X115882Y747470D01*
X115831Y747362D01*
X115783Y747253D01*
X115738Y747142D01*
X115698Y747030D01*
X115661Y746916D01*
X115628Y746801D01*
X115598Y746686D01*
X115573Y746569D01*
X115551Y746452D01*
X115534Y746333D01*
X115520Y746215D01*
X115510Y746096D01*
X115504Y745976D01*
X115502Y745857D01*
X115502Y742244D01*
X115504Y742125D01*
X115510Y742005D01*
X115520Y741886D01*
X115534Y741768D01*
X115551Y741649D01*
X115573Y741532D01*
X115598Y741415D01*
X115628Y741300D01*
X115661Y741185D01*
X115698Y741071D01*
X115738Y740959D01*
X115783Y740848D01*
X115831Y740739D01*
X115882Y740631D01*
X115937Y740525D01*
X115996Y740421D01*
X116058Y740319D01*
X116123Y740219D01*
X116192Y740121D01*
X116264Y740025D01*
X116339Y739932D01*
X116416Y739842D01*
X116497Y739754D01*
X116581Y739669D01*
X116668Y739587D01*
X116757Y739507D01*
X116849Y739431D01*
X116943Y739357D01*
X117040Y739287D01*
X117138Y739220D01*
X117239Y739156D01*
X117343Y739096D01*
X117448Y739039D01*
X117555Y738986D01*
X117663Y738936D01*
X117773Y738890D01*
X117885Y738848D01*
X117998Y738809D01*
X118112Y738774D01*
X118227Y738743D01*
X118344Y738715D01*
X118461Y738692D01*
X118578Y738672D01*
X118697Y738656D01*
X118816Y738644D01*
X118935Y738636D01*
X119054Y738632D01*
X119174Y738632D01*
X119293Y738636D01*
X119412Y738644D01*
X119531Y738656D01*
X119650Y738672D01*
X119767Y738692D01*
X119884Y738715D01*
X120001Y738743D01*
X120116Y738774D01*
X120230Y738809D01*
X120343Y738848D01*
X120455Y738890D01*
X120565Y738936D01*
X120673Y738986D01*
X120780Y739039D01*
X120885Y739096D01*
X120989Y739156D01*
X121090Y739220D01*
X121188Y739287D01*
X121285Y739357D01*
X121379Y739431D01*
X121471Y739507D01*
X121560Y739587D01*
X121647Y739669D01*
X121731Y739754D01*
X121812Y739842D01*
X121889Y739932D01*
X121964Y740025D01*
X122036Y740121D01*
X122105Y740219D01*
X122170Y740319D01*
X122232Y740421D01*
X122291Y740525D01*
X122346Y740631D01*
X122397Y740739D01*
X122445Y740848D01*
X122490Y740959D01*
X122530Y741071D01*
X122567Y741185D01*
X122600Y741300D01*
X122630Y741415D01*
X122655Y741532D01*
X122677Y741649D01*
X122694Y741768D01*
X122708Y741886D01*
X122718Y742005D01*
X122724Y742125D01*
X122726Y742244D01*
X108585Y749469D02*
X108585Y733213D01*
X108585Y749469D02*
X104070Y749469D01*
X103966Y749467D01*
X103863Y749461D01*
X103759Y749451D01*
X103656Y749437D01*
X103554Y749419D01*
X103453Y749398D01*
X103352Y749372D01*
X103253Y749343D01*
X103154Y749310D01*
X103057Y749273D01*
X102962Y749232D01*
X102868Y749188D01*
X102776Y749140D01*
X102686Y749089D01*
X102597Y749034D01*
X102511Y748976D01*
X102428Y748914D01*
X102346Y748850D01*
X102268Y748782D01*
X102192Y748712D01*
X102118Y748639D01*
X102048Y748562D01*
X101980Y748484D01*
X101916Y748402D01*
X101854Y748319D01*
X101796Y748233D01*
X101741Y748144D01*
X101690Y748054D01*
X101642Y747962D01*
X101598Y747868D01*
X101557Y747773D01*
X101520Y747676D01*
X101487Y747577D01*
X101458Y747478D01*
X101432Y747377D01*
X101411Y747276D01*
X101393Y747174D01*
X101379Y747071D01*
X101369Y746967D01*
X101363Y746864D01*
X101361Y746760D01*
X101361Y741341D01*
X101363Y741240D01*
X101369Y741139D01*
X101378Y741038D01*
X101391Y740937D01*
X101408Y740837D01*
X101429Y740738D01*
X101453Y740640D01*
X101481Y740543D01*
X101513Y740446D01*
X101548Y740351D01*
X101587Y740258D01*
X101629Y740166D01*
X101675Y740075D01*
X101724Y739986D01*
X101776Y739900D01*
X101832Y739815D01*
X101890Y739732D01*
X101952Y739652D01*
X102017Y739574D01*
X102084Y739498D01*
X102154Y739425D01*
X102227Y739355D01*
X102303Y739288D01*
X102381Y739223D01*
X102461Y739161D01*
X102544Y739103D01*
X102629Y739047D01*
X102716Y738995D01*
X102804Y738946D01*
X102895Y738900D01*
X102987Y738858D01*
X103080Y738819D01*
X103175Y738784D01*
X103272Y738752D01*
X103369Y738724D01*
X103467Y738700D01*
X103566Y738679D01*
X103666Y738662D01*
X103767Y738649D01*
X103868Y738640D01*
X103969Y738634D01*
X104070Y738632D01*
X108585Y738632D01*
X92402Y738632D02*
X87887Y738632D01*
X92402Y738632D02*
X92503Y738634D01*
X92604Y738640D01*
X92705Y738649D01*
X92806Y738662D01*
X92906Y738679D01*
X93005Y738700D01*
X93103Y738724D01*
X93200Y738752D01*
X93297Y738784D01*
X93392Y738819D01*
X93485Y738858D01*
X93577Y738900D01*
X93668Y738946D01*
X93756Y738995D01*
X93843Y739047D01*
X93928Y739103D01*
X94011Y739161D01*
X94091Y739223D01*
X94169Y739288D01*
X94245Y739355D01*
X94318Y739425D01*
X94388Y739498D01*
X94455Y739574D01*
X94520Y739652D01*
X94582Y739732D01*
X94640Y739815D01*
X94696Y739900D01*
X94748Y739987D01*
X94797Y740075D01*
X94843Y740166D01*
X94885Y740258D01*
X94924Y740351D01*
X94959Y740446D01*
X94991Y740543D01*
X95019Y740640D01*
X95043Y740738D01*
X95064Y740837D01*
X95081Y740937D01*
X95094Y741038D01*
X95103Y741139D01*
X95109Y741240D01*
X95111Y741341D01*
X95112Y741341D02*
X95112Y745857D01*
X95111Y745857D02*
X95109Y745976D01*
X95103Y746096D01*
X95093Y746215D01*
X95079Y746333D01*
X95062Y746452D01*
X95040Y746569D01*
X95015Y746686D01*
X94985Y746801D01*
X94952Y746916D01*
X94915Y747030D01*
X94875Y747142D01*
X94830Y747253D01*
X94782Y747362D01*
X94731Y747470D01*
X94676Y747576D01*
X94617Y747680D01*
X94555Y747782D01*
X94490Y747882D01*
X94421Y747980D01*
X94349Y748076D01*
X94274Y748169D01*
X94197Y748259D01*
X94116Y748347D01*
X94032Y748432D01*
X93945Y748514D01*
X93856Y748594D01*
X93764Y748670D01*
X93670Y748744D01*
X93573Y748814D01*
X93475Y748881D01*
X93374Y748945D01*
X93270Y749005D01*
X93165Y749062D01*
X93058Y749115D01*
X92950Y749165D01*
X92840Y749211D01*
X92728Y749253D01*
X92615Y749292D01*
X92501Y749327D01*
X92386Y749358D01*
X92269Y749386D01*
X92152Y749409D01*
X92035Y749429D01*
X91916Y749445D01*
X91797Y749457D01*
X91678Y749465D01*
X91559Y749469D01*
X91439Y749469D01*
X91320Y749465D01*
X91201Y749457D01*
X91082Y749445D01*
X90963Y749429D01*
X90846Y749409D01*
X90729Y749386D01*
X90612Y749358D01*
X90497Y749327D01*
X90383Y749292D01*
X90270Y749253D01*
X90158Y749211D01*
X90048Y749165D01*
X89940Y749115D01*
X89833Y749062D01*
X89728Y749005D01*
X89624Y748945D01*
X89523Y748881D01*
X89425Y748814D01*
X89328Y748744D01*
X89234Y748670D01*
X89142Y748594D01*
X89053Y748514D01*
X88966Y748432D01*
X88882Y748347D01*
X88801Y748259D01*
X88724Y748169D01*
X88649Y748076D01*
X88577Y747980D01*
X88508Y747882D01*
X88443Y747782D01*
X88381Y747680D01*
X88322Y747576D01*
X88267Y747470D01*
X88216Y747362D01*
X88168Y747253D01*
X88123Y747142D01*
X88083Y747030D01*
X88046Y746916D01*
X88013Y746801D01*
X87983Y746686D01*
X87958Y746569D01*
X87936Y746452D01*
X87919Y746333D01*
X87905Y746215D01*
X87895Y746096D01*
X87889Y745976D01*
X87887Y745857D01*
X87887Y744051D01*
X95112Y744051D01*
X82086Y749469D02*
X74861Y749469D01*
X82086Y738632D01*
X74861Y738632D01*
X57011Y738632D02*
X53399Y738632D01*
X57011Y738632D02*
X57129Y738634D01*
X57247Y738640D01*
X57365Y738649D01*
X57482Y738663D01*
X57599Y738680D01*
X57716Y738701D01*
X57831Y738726D01*
X57946Y738755D01*
X58060Y738788D01*
X58172Y738824D01*
X58283Y738864D01*
X58393Y738907D01*
X58502Y738954D01*
X58609Y739004D01*
X58714Y739059D01*
X58817Y739116D01*
X58918Y739177D01*
X59018Y739241D01*
X59115Y739308D01*
X59210Y739378D01*
X59302Y739452D01*
X59393Y739528D01*
X59480Y739608D01*
X59565Y739690D01*
X59647Y739775D01*
X59727Y739862D01*
X59803Y739953D01*
X59877Y740045D01*
X59947Y740140D01*
X60014Y740237D01*
X60078Y740337D01*
X60139Y740438D01*
X60196Y740541D01*
X60251Y740646D01*
X60301Y740753D01*
X60348Y740862D01*
X60391Y740972D01*
X60431Y741083D01*
X60467Y741195D01*
X60500Y741309D01*
X60529Y741424D01*
X60554Y741539D01*
X60575Y741656D01*
X60592Y741773D01*
X60606Y741890D01*
X60615Y742008D01*
X60621Y742126D01*
X60623Y742244D01*
X60624Y742244D02*
X60624Y751276D01*
X60623Y751276D02*
X60621Y751394D01*
X60615Y751512D01*
X60606Y751630D01*
X60592Y751747D01*
X60575Y751864D01*
X60554Y751981D01*
X60529Y752096D01*
X60500Y752211D01*
X60467Y752325D01*
X60431Y752437D01*
X60391Y752548D01*
X60348Y752658D01*
X60301Y752767D01*
X60251Y752874D01*
X60196Y752979D01*
X60139Y753082D01*
X60078Y753183D01*
X60014Y753283D01*
X59947Y753380D01*
X59877Y753475D01*
X59803Y753567D01*
X59727Y753658D01*
X59647Y753745D01*
X59565Y753830D01*
X59480Y753912D01*
X59393Y753992D01*
X59302Y754068D01*
X59210Y754142D01*
X59115Y754212D01*
X59018Y754279D01*
X58918Y754343D01*
X58817Y754404D01*
X58714Y754461D01*
X58609Y754516D01*
X58502Y754566D01*
X58393Y754613D01*
X58283Y754656D01*
X58172Y754696D01*
X58060Y754732D01*
X57946Y754765D01*
X57831Y754794D01*
X57716Y754819D01*
X57599Y754840D01*
X57482Y754857D01*
X57365Y754871D01*
X57247Y754880D01*
X57129Y754886D01*
X57011Y754888D01*
X53399Y754888D01*
X227838Y728218D02*
X227838Y711962D01*
X227838Y728218D02*
X223322Y728218D01*
X223191Y728216D01*
X223059Y728210D01*
X222928Y728201D01*
X222798Y728187D01*
X222667Y728170D01*
X222538Y728149D01*
X222409Y728125D01*
X222281Y728096D01*
X222153Y728064D01*
X222027Y728028D01*
X221902Y727989D01*
X221777Y727946D01*
X221655Y727899D01*
X221533Y727849D01*
X221413Y727795D01*
X221295Y727738D01*
X221179Y727677D01*
X221064Y727613D01*
X220951Y727546D01*
X220840Y727475D01*
X220732Y727401D01*
X220625Y727324D01*
X220521Y727244D01*
X220419Y727161D01*
X220320Y727076D01*
X220223Y726987D01*
X220129Y726895D01*
X220037Y726801D01*
X219948Y726704D01*
X219863Y726605D01*
X219780Y726503D01*
X219700Y726399D01*
X219623Y726292D01*
X219549Y726184D01*
X219478Y726073D01*
X219411Y725960D01*
X219347Y725845D01*
X219286Y725729D01*
X219229Y725611D01*
X219175Y725491D01*
X219125Y725369D01*
X219078Y725247D01*
X219035Y725122D01*
X218996Y724997D01*
X218960Y724871D01*
X218928Y724743D01*
X218899Y724615D01*
X218875Y724486D01*
X218854Y724357D01*
X218837Y724226D01*
X218823Y724096D01*
X218814Y723965D01*
X218808Y723833D01*
X218806Y723702D01*
X218807Y723702D02*
X218807Y716478D01*
X218806Y716478D02*
X218808Y716347D01*
X218814Y716215D01*
X218823Y716084D01*
X218837Y715954D01*
X218854Y715823D01*
X218875Y715694D01*
X218899Y715565D01*
X218928Y715437D01*
X218960Y715309D01*
X218996Y715183D01*
X219035Y715058D01*
X219078Y714933D01*
X219125Y714811D01*
X219175Y714689D01*
X219229Y714569D01*
X219286Y714451D01*
X219347Y714335D01*
X219411Y714220D01*
X219478Y714107D01*
X219549Y713996D01*
X219623Y713888D01*
X219700Y713781D01*
X219780Y713677D01*
X219863Y713575D01*
X219948Y713476D01*
X220037Y713379D01*
X220129Y713285D01*
X220223Y713193D01*
X220320Y713104D01*
X220419Y713019D01*
X220521Y712936D01*
X220625Y712856D01*
X220732Y712779D01*
X220840Y712705D01*
X220951Y712634D01*
X221064Y712567D01*
X221179Y712503D01*
X221295Y712442D01*
X221413Y712385D01*
X221533Y712331D01*
X221655Y712281D01*
X221777Y712234D01*
X221902Y712191D01*
X222027Y712152D01*
X222153Y712116D01*
X222281Y712084D01*
X222409Y712055D01*
X222538Y712031D01*
X222667Y712010D01*
X222798Y711993D01*
X222928Y711979D01*
X223059Y711970D01*
X223191Y711964D01*
X223322Y711962D01*
X227838Y711962D01*
X206788Y711962D02*
X206670Y711964D01*
X206552Y711970D01*
X206434Y711979D01*
X206317Y711993D01*
X206200Y712010D01*
X206083Y712031D01*
X205968Y712056D01*
X205853Y712085D01*
X205739Y712118D01*
X205627Y712154D01*
X205516Y712194D01*
X205406Y712237D01*
X205297Y712284D01*
X205190Y712334D01*
X205085Y712389D01*
X204982Y712446D01*
X204881Y712507D01*
X204781Y712571D01*
X204684Y712638D01*
X204589Y712708D01*
X204497Y712782D01*
X204406Y712858D01*
X204319Y712938D01*
X204234Y713020D01*
X204152Y713105D01*
X204072Y713192D01*
X203996Y713283D01*
X203922Y713375D01*
X203852Y713470D01*
X203785Y713567D01*
X203721Y713667D01*
X203660Y713768D01*
X203603Y713871D01*
X203548Y713976D01*
X203498Y714083D01*
X203451Y714192D01*
X203408Y714302D01*
X203368Y714413D01*
X203332Y714525D01*
X203299Y714639D01*
X203270Y714754D01*
X203245Y714869D01*
X203224Y714986D01*
X203207Y715103D01*
X203193Y715220D01*
X203184Y715338D01*
X203178Y715456D01*
X203176Y715574D01*
X206788Y711962D02*
X206971Y711964D01*
X207153Y711971D01*
X207335Y711982D01*
X207517Y711997D01*
X207699Y712017D01*
X207880Y712041D01*
X208060Y712069D01*
X208240Y712101D01*
X208419Y712138D01*
X208596Y712179D01*
X208773Y712225D01*
X208949Y712274D01*
X209124Y712328D01*
X209297Y712386D01*
X209468Y712448D01*
X209639Y712514D01*
X209807Y712585D01*
X209974Y712659D01*
X210139Y712737D01*
X210302Y712819D01*
X210463Y712905D01*
X210622Y712995D01*
X210779Y713089D01*
X210933Y713186D01*
X211085Y713287D01*
X211235Y713392D01*
X211382Y713500D01*
X211526Y713611D01*
X211668Y713726D01*
X211807Y713845D01*
X211943Y713967D01*
X212076Y714092D01*
X212206Y714220D01*
X211755Y724606D02*
X211753Y724724D01*
X211747Y724842D01*
X211738Y724960D01*
X211724Y725077D01*
X211707Y725194D01*
X211686Y725311D01*
X211661Y725426D01*
X211632Y725541D01*
X211599Y725655D01*
X211563Y725767D01*
X211523Y725878D01*
X211480Y725988D01*
X211433Y726097D01*
X211383Y726204D01*
X211328Y726309D01*
X211271Y726412D01*
X211210Y726513D01*
X211146Y726613D01*
X211079Y726710D01*
X211009Y726805D01*
X210935Y726897D01*
X210859Y726988D01*
X210779Y727075D01*
X210697Y727160D01*
X210612Y727242D01*
X210525Y727322D01*
X210434Y727398D01*
X210342Y727472D01*
X210247Y727542D01*
X210150Y727609D01*
X210050Y727673D01*
X209949Y727734D01*
X209846Y727791D01*
X209741Y727846D01*
X209634Y727896D01*
X209525Y727943D01*
X209415Y727986D01*
X209304Y728026D01*
X209192Y728062D01*
X209078Y728095D01*
X208963Y728124D01*
X208848Y728149D01*
X208731Y728170D01*
X208614Y728187D01*
X208497Y728201D01*
X208379Y728210D01*
X208261Y728216D01*
X208143Y728218D01*
X207982Y728216D01*
X207820Y728210D01*
X207659Y728201D01*
X207498Y728187D01*
X207338Y728170D01*
X207178Y728149D01*
X207018Y728124D01*
X206859Y728095D01*
X206701Y728063D01*
X206544Y728027D01*
X206388Y727987D01*
X206232Y727943D01*
X206078Y727895D01*
X205925Y727844D01*
X205773Y727790D01*
X205622Y727731D01*
X205473Y727670D01*
X205326Y727604D01*
X205180Y727535D01*
X205035Y727463D01*
X204893Y727387D01*
X204752Y727308D01*
X204613Y727226D01*
X204477Y727140D01*
X204342Y727051D01*
X204209Y726959D01*
X204079Y726863D01*
X209949Y721445D02*
X210050Y721507D01*
X210150Y721572D01*
X210247Y721641D01*
X210342Y721713D01*
X210435Y721787D01*
X210525Y721865D01*
X210613Y721946D01*
X210698Y722029D01*
X210780Y722115D01*
X210859Y722204D01*
X210936Y722295D01*
X211009Y722389D01*
X211080Y722485D01*
X211147Y722583D01*
X211211Y722683D01*
X211272Y722786D01*
X211329Y722890D01*
X211383Y722996D01*
X211433Y723104D01*
X211480Y723213D01*
X211524Y723324D01*
X211564Y723436D01*
X211600Y723550D01*
X211632Y723664D01*
X211661Y723780D01*
X211686Y723896D01*
X211707Y724013D01*
X211724Y724131D01*
X211738Y724249D01*
X211747Y724368D01*
X211753Y724487D01*
X211755Y724606D01*
X204982Y718735D02*
X204881Y718673D01*
X204781Y718608D01*
X204684Y718539D01*
X204589Y718467D01*
X204496Y718393D01*
X204406Y718315D01*
X204318Y718234D01*
X204233Y718151D01*
X204151Y718065D01*
X204072Y717976D01*
X203995Y717885D01*
X203922Y717791D01*
X203851Y717695D01*
X203784Y717597D01*
X203720Y717497D01*
X203659Y717394D01*
X203602Y717290D01*
X203548Y717184D01*
X203498Y717076D01*
X203451Y716967D01*
X203407Y716856D01*
X203367Y716744D01*
X203331Y716630D01*
X203299Y716516D01*
X203270Y716400D01*
X203245Y716284D01*
X203224Y716167D01*
X203207Y716049D01*
X203193Y715931D01*
X203184Y715812D01*
X203178Y715693D01*
X203176Y715574D01*
X204982Y718735D02*
X209949Y721445D01*
X196365Y728218D02*
X196365Y711962D01*
X196365Y728218D02*
X191849Y728218D01*
X191716Y728216D01*
X191584Y728210D01*
X191452Y728200D01*
X191320Y728187D01*
X191188Y728169D01*
X191058Y728148D01*
X190927Y728123D01*
X190798Y728094D01*
X190670Y728061D01*
X190542Y728025D01*
X190416Y727985D01*
X190291Y727941D01*
X190167Y727893D01*
X190045Y727842D01*
X189924Y727787D01*
X189805Y727729D01*
X189687Y727667D01*
X189572Y727602D01*
X189458Y727533D01*
X189347Y727462D01*
X189238Y727386D01*
X189131Y727308D01*
X189026Y727227D01*
X188924Y727142D01*
X188824Y727055D01*
X188727Y726965D01*
X188632Y726872D01*
X188541Y726776D01*
X188452Y726678D01*
X188366Y726577D01*
X188283Y726473D01*
X188203Y726367D01*
X188127Y726259D01*
X188053Y726149D01*
X187983Y726036D01*
X187916Y725922D01*
X187853Y725805D01*
X187793Y725687D01*
X187736Y725567D01*
X187683Y725445D01*
X187634Y725322D01*
X187588Y725198D01*
X187546Y725072D01*
X187508Y724945D01*
X187473Y724817D01*
X187442Y724688D01*
X187415Y724559D01*
X187392Y724428D01*
X187372Y724297D01*
X187357Y724165D01*
X187345Y724033D01*
X187337Y723901D01*
X187333Y723768D01*
X187333Y723636D01*
X187337Y723503D01*
X187345Y723371D01*
X187357Y723239D01*
X187372Y723107D01*
X187392Y722976D01*
X187415Y722845D01*
X187442Y722716D01*
X187473Y722587D01*
X187508Y722459D01*
X187546Y722332D01*
X187588Y722206D01*
X187634Y722082D01*
X187683Y721959D01*
X187736Y721837D01*
X187793Y721717D01*
X187853Y721599D01*
X187916Y721482D01*
X187983Y721368D01*
X188053Y721255D01*
X188127Y721145D01*
X188203Y721037D01*
X188283Y720931D01*
X188366Y720827D01*
X188452Y720726D01*
X188541Y720628D01*
X188632Y720532D01*
X188727Y720439D01*
X188824Y720349D01*
X188924Y720262D01*
X189026Y720177D01*
X189131Y720096D01*
X189238Y720018D01*
X189347Y719942D01*
X189458Y719871D01*
X189572Y719802D01*
X189687Y719737D01*
X189805Y719675D01*
X189924Y719617D01*
X190045Y719562D01*
X190167Y719511D01*
X190291Y719463D01*
X190416Y719419D01*
X190542Y719379D01*
X190670Y719343D01*
X190798Y719310D01*
X190927Y719281D01*
X191058Y719256D01*
X191188Y719235D01*
X191320Y719217D01*
X191452Y719204D01*
X191584Y719194D01*
X191716Y719188D01*
X191849Y719186D01*
X191849Y719187D02*
X196365Y719187D01*
X173789Y722799D02*
X170176Y711962D01*
X166564Y722799D01*
X160624Y724606D02*
X156108Y728218D01*
X156108Y711962D01*
X151593Y711962D02*
X160624Y711962D01*
X145618Y711962D02*
X145618Y712865D01*
X144715Y712865D01*
X144715Y711962D01*
X145618Y711962D01*
X138740Y720090D02*
X138736Y720410D01*
X138725Y720729D01*
X138706Y721049D01*
X138679Y721367D01*
X138645Y721685D01*
X138603Y722002D01*
X138553Y722318D01*
X138496Y722633D01*
X138432Y722946D01*
X138360Y723258D01*
X138281Y723568D01*
X138194Y723875D01*
X138100Y724181D01*
X137999Y724484D01*
X137890Y724785D01*
X137775Y725083D01*
X137652Y725379D01*
X137522Y725671D01*
X137385Y725960D01*
X137386Y725961D02*
X137347Y726069D01*
X137304Y726176D01*
X137258Y726281D01*
X137207Y726385D01*
X137154Y726487D01*
X137097Y726587D01*
X137036Y726685D01*
X136972Y726780D01*
X136905Y726874D01*
X136834Y726965D01*
X136761Y727054D01*
X136684Y727140D01*
X136605Y727223D01*
X136523Y727304D01*
X136438Y727382D01*
X136350Y727456D01*
X136260Y727528D01*
X136168Y727596D01*
X136073Y727662D01*
X135976Y727724D01*
X135877Y727782D01*
X135775Y727838D01*
X135673Y727889D01*
X135568Y727937D01*
X135462Y727982D01*
X135354Y728023D01*
X135245Y728060D01*
X135135Y728093D01*
X135023Y728122D01*
X134911Y728148D01*
X134798Y728170D01*
X134684Y728187D01*
X134570Y728201D01*
X134455Y728211D01*
X134340Y728217D01*
X134225Y728219D01*
X134225Y728218D02*
X134110Y728216D01*
X133995Y728210D01*
X133880Y728200D01*
X133766Y728186D01*
X133652Y728169D01*
X133539Y728147D01*
X133427Y728121D01*
X133315Y728092D01*
X133205Y728059D01*
X133096Y728022D01*
X132988Y727981D01*
X132882Y727936D01*
X132778Y727888D01*
X132675Y727837D01*
X132574Y727781D01*
X132474Y727723D01*
X132377Y727661D01*
X132283Y727596D01*
X132190Y727527D01*
X132100Y727455D01*
X132012Y727381D01*
X131927Y727303D01*
X131845Y727222D01*
X131766Y727139D01*
X131689Y727053D01*
X131616Y726964D01*
X131545Y726873D01*
X131478Y726779D01*
X131414Y726684D01*
X131353Y726586D01*
X131296Y726486D01*
X131243Y726384D01*
X131192Y726280D01*
X131146Y726175D01*
X131103Y726068D01*
X131064Y725960D01*
X130927Y725671D01*
X130797Y725379D01*
X130674Y725083D01*
X130559Y724785D01*
X130450Y724484D01*
X130349Y724181D01*
X130255Y723875D01*
X130168Y723568D01*
X130089Y723258D01*
X130017Y722946D01*
X129953Y722633D01*
X129896Y722318D01*
X129846Y722002D01*
X129804Y721685D01*
X129770Y721367D01*
X129743Y721049D01*
X129724Y720729D01*
X129713Y720410D01*
X129709Y720090D01*
X138740Y720090D02*
X138736Y719770D01*
X138725Y719451D01*
X138706Y719131D01*
X138679Y718813D01*
X138645Y718495D01*
X138603Y718178D01*
X138553Y717862D01*
X138496Y717547D01*
X138432Y717234D01*
X138360Y716922D01*
X138281Y716612D01*
X138194Y716305D01*
X138100Y715999D01*
X137999Y715696D01*
X137890Y715395D01*
X137775Y715097D01*
X137652Y714801D01*
X137522Y714509D01*
X137385Y714220D01*
X137386Y714220D02*
X137347Y714112D01*
X137304Y714005D01*
X137258Y713900D01*
X137207Y713796D01*
X137154Y713694D01*
X137097Y713594D01*
X137036Y713496D01*
X136972Y713401D01*
X136905Y713307D01*
X136834Y713216D01*
X136761Y713127D01*
X136684Y713041D01*
X136605Y712958D01*
X136523Y712877D01*
X136438Y712799D01*
X136350Y712725D01*
X136260Y712653D01*
X136167Y712584D01*
X136073Y712519D01*
X135976Y712457D01*
X135876Y712399D01*
X135775Y712343D01*
X135673Y712292D01*
X135568Y712244D01*
X135462Y712199D01*
X135354Y712158D01*
X135245Y712121D01*
X135135Y712088D01*
X135023Y712059D01*
X134911Y712033D01*
X134798Y712011D01*
X134684Y711994D01*
X134570Y711980D01*
X134455Y711970D01*
X134340Y711964D01*
X134225Y711962D01*
X131064Y714220D02*
X130927Y714509D01*
X130797Y714801D01*
X130674Y715097D01*
X130559Y715395D01*
X130450Y715696D01*
X130349Y715999D01*
X130255Y716305D01*
X130168Y716612D01*
X130089Y716922D01*
X130017Y717234D01*
X129953Y717547D01*
X129896Y717862D01*
X129846Y718178D01*
X129804Y718495D01*
X129770Y718813D01*
X129743Y719131D01*
X129724Y719451D01*
X129713Y719770D01*
X129709Y720090D01*
X131064Y714220D02*
X131103Y714112D01*
X131146Y714005D01*
X131192Y713900D01*
X131243Y713796D01*
X131296Y713694D01*
X131354Y713594D01*
X131414Y713496D01*
X131478Y713401D01*
X131545Y713307D01*
X131616Y713216D01*
X131689Y713127D01*
X131766Y713041D01*
X131845Y712958D01*
X131927Y712877D01*
X132012Y712799D01*
X132100Y712725D01*
X132190Y712653D01*
X132283Y712584D01*
X132377Y712519D01*
X132474Y712457D01*
X132574Y712399D01*
X132675Y712343D01*
X132778Y712292D01*
X132882Y712244D01*
X132988Y712199D01*
X133096Y712158D01*
X133205Y712121D01*
X133315Y712088D01*
X133427Y712059D01*
X133539Y712033D01*
X133652Y712011D01*
X133766Y711994D01*
X133880Y711980D01*
X133995Y711970D01*
X134110Y711964D01*
X134225Y711962D01*
X137837Y715574D02*
X130612Y724606D01*
D11*
X656100Y126900D03*
X656100Y152300D03*
X656100Y177700D03*
X656100Y203100D03*
X656100Y228500D03*
X656100Y253900D03*
X656100Y279300D03*
X656100Y304700D03*
X656100Y330100D03*
X656100Y355500D03*
X656100Y380900D03*
X656100Y406300D03*
X656100Y431700D03*
X656100Y457100D03*
X656100Y482500D03*
X402050Y126900D03*
X402050Y152300D03*
X402050Y177700D03*
X402050Y203100D03*
X402050Y228500D03*
X402050Y253900D03*
X402050Y279300D03*
X402050Y304700D03*
X402050Y330100D03*
X402050Y355500D03*
X402050Y380900D03*
X402050Y406300D03*
X402050Y431700D03*
X402050Y457100D03*
X402050Y482500D03*
D12*
X352171Y279400D02*
X333629Y279400D01*
X333629Y304800D02*
X352171Y304800D01*
X352171Y330200D02*
X333629Y330200D01*
X333629Y355600D02*
X352171Y355600D01*
X352171Y381000D02*
X333629Y381000D01*
X333629Y406400D02*
X352171Y406400D01*
X352171Y431800D02*
X333629Y431800D01*
X333629Y457200D02*
X352171Y457200D01*
X352171Y482600D02*
X333629Y482600D01*
D13*
X190500Y472200D02*
X190500Y442200D01*
X114300Y442200D02*
X114300Y472200D01*
D12*
X727329Y685800D02*
X745871Y685800D01*
X745871Y660400D02*
X727329Y660400D01*
X727329Y635000D02*
X745871Y635000D01*
X745871Y609600D02*
X727329Y609600D01*
X727329Y584200D02*
X745871Y584200D01*
X745871Y558800D02*
X727329Y558800D01*
X727329Y533400D02*
X745871Y533400D01*
X745871Y508000D02*
X727329Y508000D01*
X727329Y482600D02*
X745871Y482600D01*
X930529Y660400D02*
X949071Y660400D01*
X949071Y635000D02*
X930529Y635000D01*
X930529Y609600D02*
X949071Y609600D01*
X949071Y584200D02*
X930529Y584200D01*
X930529Y558800D02*
X949071Y558800D01*
X949071Y533400D02*
X930529Y533400D01*
D14*
X330200Y190500D03*
X304800Y190500D03*
X304800Y114300D03*
X330200Y114300D03*
X279400Y190500D03*
X254000Y190500D03*
X279400Y114300D03*
X254000Y114300D03*
D15*
X406400Y596900D03*
X63500Y139700D03*
X63500Y165100D03*
X63500Y101600D03*
X63500Y190500D03*
X63500Y50800D03*
X63500Y76200D03*
X342900Y520700D03*
X317500Y520700D03*
X292100Y520700D03*
X266700Y520700D03*
D14*
X711200Y76200D03*
X736600Y76200D03*
X736600Y152400D03*
X711200Y152400D03*
X762000Y76200D03*
X787400Y76200D03*
X762000Y152400D03*
X787400Y152400D03*
D16*
X736600Y203200D03*
X812800Y203200D03*
D15*
X952500Y152400D03*
X952500Y101600D03*
X952500Y127000D03*
X952500Y266700D03*
X952500Y215900D03*
X952500Y241300D03*
D16*
X88900Y50800D03*
X114300Y50800D03*
D17*
X215900Y38100D03*
X139700Y38100D03*
D16*
X88900Y76200D03*
X114300Y76200D03*
D17*
X215900Y63500D03*
X139700Y63500D03*
X355600Y88900D03*
X279400Y88900D03*
X215900Y88900D03*
X139700Y88900D03*
D18*
X355600Y41910D03*
D19*
X355600Y59690D03*
D17*
X317500Y50800D03*
X241300Y50800D03*
D16*
X88900Y139700D03*
X114300Y139700D03*
X88900Y165100D03*
X114300Y165100D03*
D17*
X215900Y114300D03*
X139700Y114300D03*
X215900Y152400D03*
X139700Y152400D03*
X317500Y228600D03*
X241300Y228600D03*
D20*
X355600Y224790D03*
D19*
X355600Y207010D03*
D17*
X215900Y190500D03*
X139700Y190500D03*
X215900Y228600D03*
X139700Y228600D03*
D21*
X711200Y203200D03*
X711200Y177800D03*
X812800Y152400D03*
X812800Y76200D03*
D17*
X838200Y177800D03*
X762000Y177800D03*
D20*
X850900Y72390D03*
D19*
X850900Y54610D03*
D16*
X850900Y152400D03*
X927100Y152400D03*
X850900Y101600D03*
X927100Y101600D03*
D22*
X910590Y63500D03*
D19*
X892810Y63500D03*
D17*
X762000Y50800D03*
X685800Y50800D03*
D14*
X723900Y228600D03*
X749300Y228600D03*
X749300Y304800D03*
X723900Y304800D03*
X774700Y228600D03*
X800100Y228600D03*
X774700Y304800D03*
X800100Y304800D03*
D23*
X838200Y228600D03*
X838200Y304800D03*
D17*
X762000Y342900D03*
X736600Y342900D03*
D21*
X952500Y368300D03*
X952500Y292100D03*
X698500Y304800D03*
X698500Y228600D03*
D18*
X876300Y334010D03*
D19*
X876300Y351790D03*
D23*
X927100Y266700D03*
X927100Y342900D03*
D21*
X876300Y292100D03*
X876300Y215900D03*
D22*
X834390Y342900D03*
D19*
X816610Y342900D03*
D16*
X876300Y190500D03*
X952500Y190500D03*
D21*
X901700Y317500D03*
X901700Y241300D03*
D24*
X482600Y640080D03*
D25*
X482600Y604520D03*
D26*
X609600Y604520D03*
D25*
X609600Y640080D03*
D15*
X406400Y622300D03*
D16*
X850900Y127000D03*
X927100Y127000D03*
D27*
X817938Y223074D02*
X801414Y223074D01*
X879903Y161109D02*
X884034Y156978D01*
X879903Y161109D02*
X817938Y223074D01*
X884034Y156978D02*
X925344Y156978D01*
X801414Y223074D02*
X800100Y228600D01*
X925344Y156978D02*
X927100Y152400D01*
X784890Y74358D02*
X784890Y49572D01*
X772497Y37179D02*
X768366Y33048D01*
X772497Y37179D02*
X784890Y49572D01*
X768366Y33048D02*
X702270Y33048D01*
X685746Y49572D01*
X784890Y74358D02*
X787400Y76200D01*
X685800Y50800D02*
X685746Y49572D01*
X875772Y74358D02*
X875772Y156978D01*
X875772Y74358D02*
X867510Y66096D01*
X867510Y41310D01*
X859248Y33048D01*
X776628Y33048D01*
X875772Y156978D02*
X879903Y161109D01*
X772497Y37179D02*
X776628Y33048D01*
X289170Y49572D02*
X247860Y49572D01*
X289170Y49572D02*
X347004Y107406D01*
X347004Y123930D01*
X330480Y140454D01*
X247860Y49572D02*
X241300Y50800D01*
X231336Y173502D02*
X247860Y190026D01*
X231336Y173502D02*
X190026Y173502D01*
X140454Y223074D01*
X247860Y190026D02*
X254000Y190500D01*
X140454Y223074D02*
X139700Y228600D01*
X330480Y330480D02*
X338742Y330480D01*
X330480Y330480D02*
X239598Y421362D01*
X239598Y503982D02*
X239598Y528768D01*
X239598Y503982D02*
X239598Y421362D01*
X239598Y528768D02*
X330480Y619650D01*
X404838Y619650D01*
X342900Y330200D02*
X338742Y330480D01*
X404838Y619650D02*
X406400Y622300D01*
X537644Y603126D02*
X603126Y603126D01*
X537644Y603126D02*
X512858Y578340D01*
X454410Y578340D01*
X413100Y619650D01*
X603126Y603126D02*
X609600Y604520D01*
X413100Y619650D02*
X406400Y622300D01*
X140454Y379438D02*
X140454Y231336D01*
X140454Y379438D02*
X165240Y404224D01*
X165240Y487458D01*
X181764Y503982D01*
X239598Y503982D01*
X140454Y231336D02*
X139700Y228600D01*
D28*
X330480Y140454D03*
D27*
X156978Y107406D02*
X140454Y90882D01*
X156978Y107406D02*
X156978Y173502D01*
X140454Y190026D01*
X140454Y90882D02*
X139700Y88900D01*
X140454Y190026D02*
X139700Y190500D01*
X119492Y189224D02*
X119492Y219250D01*
X115668Y223074D01*
X115668Y404838D01*
X148716Y437886D01*
X148716Y495720D01*
X297432Y644436D01*
X479196Y644436D01*
X139700Y190500D02*
X119492Y189224D01*
X482600Y640080D02*
X479196Y644436D01*
X842724Y322218D02*
X842724Y305694D01*
X842724Y322218D02*
X850986Y330480D01*
X850986Y611388D01*
X751842Y710532D01*
X553554Y710532D01*
X487458Y644436D01*
X838200Y304800D02*
X842724Y305694D01*
X487458Y644436D02*
X482600Y640080D01*
X570078Y685746D02*
X735318Y685746D01*
X570078Y685746D02*
X487458Y603126D01*
X735318Y685746D02*
X736600Y685800D01*
X487458Y603126D02*
X482600Y604520D01*
X677484Y156978D02*
X677484Y115668D01*
X669222Y107406D01*
X421362Y107406D01*
X404838Y123930D01*
X402050Y126900D01*
D28*
X677484Y156978D03*
D27*
X363528Y41310D02*
X355266Y41310D01*
X363528Y41310D02*
X380052Y57834D01*
X380052Y231336D01*
X355266Y256122D01*
X330480Y256122D01*
X198288Y388314D01*
X198288Y454410D01*
X355600Y41910D02*
X355266Y41310D01*
X198288Y454410D02*
X190500Y457200D01*
X347004Y454410D02*
X363528Y454410D01*
X367659Y450279D02*
X371790Y446148D01*
X367659Y450279D02*
X363528Y454410D01*
X371790Y446148D02*
X371790Y421362D01*
X363528Y413100D01*
X347004Y413100D01*
X347004Y454410D02*
X342900Y457200D01*
X347004Y413100D02*
X342900Y406400D01*
X694008Y660960D02*
X735318Y660960D01*
X694008Y660960D02*
X537030Y503982D01*
X396576Y503982D01*
X371790Y479196D01*
X371790Y454410D01*
X735318Y660960D02*
X736600Y660400D01*
X371790Y454410D02*
X367659Y450279D01*
X644436Y132192D02*
X652698Y132192D01*
X644436Y132192D02*
X636174Y140454D01*
X636174Y495720D01*
X644436Y503982D01*
X677484Y503982D01*
X718794Y462672D01*
X751842Y462672D01*
X768366Y479196D01*
X768366Y644436D01*
X751842Y660960D01*
X743580Y660960D01*
X652698Y132192D02*
X656100Y126900D01*
X736600Y660400D02*
X743580Y660960D01*
X355266Y380052D02*
X347004Y380052D01*
X355266Y380052D02*
X380052Y355266D01*
X380052Y297432D01*
X396576Y280908D01*
X347004Y380052D02*
X342900Y381000D01*
X396576Y280908D02*
X402050Y279300D01*
X669222Y553554D02*
X735318Y553554D01*
X669222Y553554D02*
X545292Y429624D01*
X545292Y408662D01*
X434844Y298214D01*
X735318Y553554D02*
X736600Y558800D01*
X434844Y298214D02*
X402050Y279300D01*
X404838Y305694D02*
X528768Y429624D01*
X528768Y450586D01*
X681308Y603126D01*
X735318Y603126D01*
X404838Y305694D02*
X402050Y304700D01*
X735318Y603126D02*
X736600Y609600D01*
X710532Y206550D02*
X694008Y206550D01*
X677484Y223074D01*
X677484Y272646D01*
X710532Y206550D02*
X711200Y203200D01*
D28*
X677484Y272646D03*
D27*
X223074Y132192D02*
X223074Y115668D01*
X223074Y132192D02*
X280908Y190026D01*
X223074Y115668D02*
X215900Y114300D01*
X279400Y190500D02*
X280908Y190026D01*
X892296Y140454D02*
X892296Y66096D01*
X817938Y181764D02*
X768366Y181764D01*
X892296Y66096D02*
X892810Y63500D01*
X768366Y181764D02*
X762000Y177800D01*
D28*
X892296Y140454D03*
X817938Y181764D03*
D27*
X875772Y355266D02*
X908820Y355266D01*
X917082Y363528D01*
X933606Y363528D01*
X950130Y347004D01*
X950130Y297432D01*
X876300Y351790D02*
X875772Y355266D01*
X950130Y297432D02*
X952500Y292100D01*
X908820Y272646D02*
X793152Y272646D01*
X908820Y272646D02*
X925344Y289170D01*
X950130Y289170D01*
X952500Y292100D01*
D28*
X793152Y272646D03*
D27*
X784890Y338742D02*
X817938Y338742D01*
X784890Y338742D02*
X751842Y305694D01*
X817938Y338742D02*
X816610Y342900D01*
X751842Y305694D02*
X749300Y304800D01*
X875772Y297432D02*
X875772Y330480D01*
X876300Y334010D01*
X875772Y297432D02*
X876300Y292100D01*
X793152Y247860D02*
X789021Y243729D01*
X776628Y231336D01*
X793152Y247860D02*
X817938Y247860D01*
X834462Y231336D01*
X776628Y231336D02*
X774700Y228600D01*
X834462Y231336D02*
X838200Y228600D01*
X735318Y338742D02*
X702270Y338742D01*
X677484Y313956D01*
X677484Y297432D01*
X727056Y247860D01*
X784890Y247860D01*
X735318Y338742D02*
X736600Y342900D01*
X784890Y247860D02*
X789021Y243729D01*
X710532Y132192D02*
X760104Y82620D01*
X710532Y132192D02*
X702270Y132192D01*
X694008Y140454D01*
X694008Y165240D01*
X710532Y181764D01*
X760104Y82620D02*
X762000Y76200D01*
X711200Y177800D02*
X710532Y181764D01*
M02*
