G04 EAGLE Gerber RS-274X export*
G75*
%MOMM*%
%FSLAX34Y34*%
%LPD*%
%INTop Copper*%
%IPPOS*%
%AMOC8*
5,1,8,0,0,1.08239X$1,22.5*%
G01*
%ADD10C,0.152400*%
%ADD11C,1.930400*%
%ADD12C,1.854200*%
%ADD13C,3.000000*%
%ADD14C,1.524000*%
%ADD15P,2.336880X8X22.500000*%
%ADD16P,1.649562X8X22.500000*%
%ADD17P,1.649562X8X202.500000*%
%ADD18P,1.539592X8X292.500000*%
%ADD19C,1.422400*%
%ADD20P,1.539592X8X112.500000*%
%ADD21P,1.649562X8X292.500000*%
%ADD22P,1.539592X8X22.500000*%
%ADD23P,1.649562X8X112.500000*%
%ADD24P,1.732040X8X112.500000*%
%ADD25C,1.600200*%
%ADD26P,1.732040X8X292.500000*%
%ADD27C,1.500000*%
%ADD28C,0.906400*%

G36*
X181087Y20017D02*
X181087Y20017D01*
X181394Y20026D01*
X181473Y20037D01*
X181553Y20041D01*
X181856Y20088D01*
X182161Y20129D01*
X182239Y20148D01*
X182318Y20160D01*
X182615Y20238D01*
X182914Y20311D01*
X182990Y20338D01*
X183067Y20358D01*
X183353Y20466D01*
X183644Y20569D01*
X183716Y20604D01*
X183791Y20632D01*
X184065Y20769D01*
X184343Y20901D01*
X184412Y20943D01*
X184483Y20979D01*
X184742Y21144D01*
X185005Y21304D01*
X185068Y21352D01*
X185136Y21396D01*
X185376Y21586D01*
X185621Y21773D01*
X185680Y21827D01*
X185742Y21877D01*
X185962Y22092D01*
X186186Y22302D01*
X186238Y22363D01*
X186296Y22419D01*
X186492Y22656D01*
X186693Y22887D01*
X186739Y22953D01*
X186790Y23015D01*
X186961Y23270D01*
X187137Y23522D01*
X187176Y23592D01*
X187221Y23658D01*
X187364Y23930D01*
X187513Y24198D01*
X187545Y24272D01*
X187582Y24343D01*
X187697Y24628D01*
X187818Y24910D01*
X187842Y24987D01*
X187872Y25061D01*
X187956Y25356D01*
X188047Y25650D01*
X188063Y25728D01*
X188085Y25805D01*
X188139Y26107D01*
X188199Y26409D01*
X188204Y26473D01*
X188221Y26568D01*
X188278Y27340D01*
X188275Y27436D01*
X188279Y27500D01*
X188279Y56748D01*
X188271Y56914D01*
X188272Y57081D01*
X188251Y57301D01*
X188239Y57522D01*
X188214Y57686D01*
X188198Y57851D01*
X188154Y58068D01*
X188120Y58287D01*
X187861Y60192D01*
X187717Y60953D01*
X187687Y61055D01*
X187674Y61124D01*
X187311Y62475D01*
X187311Y63729D01*
X187271Y64502D01*
X187249Y64647D01*
X187243Y64738D01*
X187074Y65980D01*
X187251Y67369D01*
X187309Y68141D01*
X187306Y68248D01*
X187311Y68317D01*
X187311Y81040D01*
X187283Y81588D01*
X187281Y81715D01*
X187097Y83747D01*
X187201Y84349D01*
X187213Y84444D01*
X187231Y84538D01*
X187243Y84697D01*
X187294Y85118D01*
X187300Y85471D01*
X187311Y85629D01*
X187311Y86241D01*
X187839Y88211D01*
X187954Y88748D01*
X187985Y88872D01*
X188169Y89937D01*
X188181Y90032D01*
X188199Y90126D01*
X188211Y90284D01*
X188262Y90705D01*
X188268Y91058D01*
X188279Y91217D01*
X188279Y125741D01*
X190586Y128047D01*
X190792Y128276D01*
X191002Y128499D01*
X191050Y128563D01*
X191104Y128622D01*
X191285Y128871D01*
X191472Y129115D01*
X191513Y129183D01*
X191561Y129248D01*
X191715Y129513D01*
X191875Y129775D01*
X191910Y129848D01*
X191950Y129917D01*
X192077Y130197D01*
X192209Y130474D01*
X192236Y130550D01*
X192269Y130623D01*
X192365Y130914D01*
X192468Y131204D01*
X192487Y131282D01*
X192513Y131358D01*
X192579Y131657D01*
X192651Y131956D01*
X192662Y132036D01*
X192679Y132114D01*
X192714Y132419D01*
X192756Y132723D01*
X192758Y132803D01*
X192768Y132883D01*
X192771Y133190D01*
X192781Y133497D01*
X192775Y133577D01*
X192776Y133657D01*
X192747Y133963D01*
X192726Y134269D01*
X192712Y134348D01*
X192704Y134428D01*
X192644Y134729D01*
X192591Y135032D01*
X192569Y135109D01*
X192553Y135188D01*
X192463Y135481D01*
X192379Y135777D01*
X192349Y135851D01*
X192325Y135927D01*
X192205Y136209D01*
X192091Y136495D01*
X192053Y136566D01*
X192022Y136640D01*
X191873Y136909D01*
X191730Y137180D01*
X191686Y137247D01*
X191647Y137317D01*
X191471Y137569D01*
X191301Y137825D01*
X191259Y137873D01*
X191204Y137952D01*
X190698Y138538D01*
X190627Y138605D01*
X190586Y138653D01*
X188279Y140959D01*
X188279Y148758D01*
X188277Y148805D01*
X188279Y148851D01*
X188257Y149191D01*
X188239Y149531D01*
X188232Y149577D01*
X188229Y149624D01*
X188205Y149748D01*
X188120Y150296D01*
X188051Y150557D01*
X188024Y150699D01*
X187285Y153454D01*
X187283Y153530D01*
X187275Y153578D01*
X187271Y153649D01*
X187216Y154007D01*
X187308Y157263D01*
X187305Y157393D01*
X187311Y157476D01*
X187311Y187412D01*
X187311Y187424D01*
X187311Y187435D01*
X187308Y187483D01*
X187271Y188186D01*
X187238Y188401D01*
X187228Y188526D01*
X187079Y189522D01*
X187264Y191157D01*
X187311Y191930D01*
X187309Y191972D01*
X187311Y192001D01*
X187311Y193647D01*
X187572Y194619D01*
X187574Y194631D01*
X187578Y194642D01*
X187586Y194687D01*
X187733Y195377D01*
X187757Y195593D01*
X187780Y195717D01*
X187903Y196805D01*
X187908Y196822D01*
X188005Y197111D01*
X188023Y197192D01*
X188047Y197270D01*
X188107Y197570D01*
X188174Y197867D01*
X188183Y197949D01*
X188199Y198030D01*
X188211Y198184D01*
X188264Y198636D01*
X188268Y198965D01*
X188279Y199121D01*
X188279Y201941D01*
X190586Y204247D01*
X190792Y204476D01*
X191002Y204699D01*
X191050Y204763D01*
X191104Y204822D01*
X191285Y205071D01*
X191472Y205315D01*
X191513Y205383D01*
X191561Y205448D01*
X191715Y205713D01*
X191875Y205975D01*
X191910Y206048D01*
X191950Y206117D01*
X192077Y206397D01*
X192209Y206674D01*
X192236Y206750D01*
X192269Y206823D01*
X192365Y207114D01*
X192468Y207404D01*
X192487Y207482D01*
X192513Y207558D01*
X192579Y207857D01*
X192651Y208156D01*
X192662Y208236D01*
X192679Y208314D01*
X192714Y208619D01*
X192756Y208923D01*
X192758Y209003D01*
X192768Y209083D01*
X192771Y209390D01*
X192781Y209697D01*
X192775Y209777D01*
X192776Y209857D01*
X192747Y210163D01*
X192726Y210469D01*
X192712Y210548D01*
X192704Y210628D01*
X192644Y210929D01*
X192591Y211232D01*
X192569Y211309D01*
X192553Y211388D01*
X192463Y211681D01*
X192379Y211977D01*
X192349Y212051D01*
X192325Y212127D01*
X192205Y212409D01*
X192091Y212695D01*
X192053Y212766D01*
X192022Y212840D01*
X191873Y213109D01*
X191730Y213380D01*
X191686Y213447D01*
X191647Y213517D01*
X191471Y213769D01*
X191301Y214025D01*
X191259Y214073D01*
X191204Y214152D01*
X190698Y214738D01*
X190627Y214805D01*
X190586Y214853D01*
X188279Y217159D01*
X188279Y222198D01*
X188274Y222295D01*
X188277Y222392D01*
X188254Y222681D01*
X188239Y222971D01*
X188224Y223067D01*
X188217Y223164D01*
X188165Y223449D01*
X188120Y223736D01*
X188095Y223830D01*
X188078Y223926D01*
X188030Y224077D01*
X187929Y224458D01*
X187795Y225601D01*
X187794Y225608D01*
X187665Y226371D01*
X187612Y226561D01*
X187590Y226676D01*
X187311Y227716D01*
X187311Y229292D01*
X187271Y230065D01*
X187262Y230124D01*
X187260Y230165D01*
X187077Y231730D01*
X187232Y232795D01*
X187305Y233566D01*
X187303Y233764D01*
X187311Y233880D01*
X187311Y234957D01*
X187719Y236479D01*
X187881Y237236D01*
X187887Y237296D01*
X187896Y237336D01*
X188200Y239420D01*
X188273Y240190D01*
X188272Y240218D01*
X188293Y240251D01*
X188372Y240359D01*
X188500Y240578D01*
X188635Y240793D01*
X188694Y240913D01*
X188762Y241028D01*
X188866Y241260D01*
X188979Y241487D01*
X189012Y241583D01*
X189080Y241734D01*
X189107Y241815D01*
X189973Y243316D01*
X190325Y244005D01*
X190347Y244061D01*
X190366Y244097D01*
X190990Y245545D01*
X191657Y246390D01*
X192105Y247021D01*
X192202Y247193D01*
X192268Y247289D01*
X192688Y248017D01*
X192733Y248107D01*
X192786Y248192D01*
X192910Y248452D01*
X193040Y248707D01*
X193076Y248801D01*
X193119Y248891D01*
X193215Y249161D01*
X193319Y249429D01*
X193345Y249526D01*
X193379Y249621D01*
X193447Y249900D01*
X193522Y250177D01*
X193538Y250275D01*
X193562Y250373D01*
X193601Y250658D01*
X193647Y250941D01*
X193653Y251041D01*
X193666Y251140D01*
X193676Y251427D01*
X193692Y251714D01*
X193688Y251814D01*
X193691Y251914D01*
X193671Y252201D01*
X193658Y252487D01*
X193643Y252586D01*
X193636Y252687D01*
X193586Y252970D01*
X193544Y253253D01*
X193519Y253350D01*
X193502Y253449D01*
X193423Y253725D01*
X193352Y254003D01*
X193317Y254097D01*
X193289Y254194D01*
X193182Y254460D01*
X193083Y254729D01*
X193039Y254819D01*
X193001Y254912D01*
X192867Y255166D01*
X192741Y255424D01*
X192687Y255509D01*
X192641Y255598D01*
X192482Y255836D01*
X192329Y256079D01*
X192267Y256159D01*
X192211Y256242D01*
X192107Y256363D01*
X191851Y256689D01*
X191601Y256949D01*
X191496Y257070D01*
X93662Y354904D01*
X90041Y361175D01*
X88167Y368169D01*
X88167Y415728D01*
X88163Y415801D01*
X88166Y415875D01*
X88143Y416188D01*
X88127Y416501D01*
X88116Y416574D01*
X88111Y416647D01*
X88056Y416956D01*
X88008Y417266D01*
X87989Y417337D01*
X87976Y417410D01*
X87890Y417712D01*
X87810Y418015D01*
X87784Y418083D01*
X87764Y418155D01*
X87647Y418447D01*
X87536Y418739D01*
X87503Y418805D01*
X87476Y418873D01*
X87330Y419151D01*
X87189Y419431D01*
X87149Y419493D01*
X87115Y419558D01*
X86941Y419819D01*
X86772Y420084D01*
X86727Y420142D01*
X86686Y420203D01*
X86588Y420316D01*
X86337Y420632D01*
X81685Y428690D01*
X79299Y437592D01*
X79299Y476808D01*
X81685Y485710D01*
X86292Y493691D01*
X92809Y500208D01*
X100790Y504815D01*
X109692Y507201D01*
X118908Y507201D01*
X127810Y504815D01*
X135791Y500208D01*
X142308Y493691D01*
X145905Y487459D01*
X146087Y487180D01*
X146265Y486896D01*
X146298Y486854D01*
X146327Y486809D01*
X146537Y486549D01*
X146742Y486287D01*
X146779Y486248D01*
X146813Y486207D01*
X147049Y485969D01*
X147280Y485730D01*
X147321Y485695D01*
X147358Y485657D01*
X147617Y485446D01*
X147872Y485231D01*
X147916Y485201D01*
X147958Y485167D01*
X148236Y484984D01*
X148513Y484796D01*
X148560Y484770D01*
X148604Y484741D01*
X148899Y484588D01*
X149195Y484429D01*
X149244Y484409D01*
X149291Y484384D01*
X149600Y484262D01*
X149911Y484135D01*
X149962Y484120D01*
X150012Y484100D01*
X150332Y484011D01*
X150653Y483916D01*
X150706Y483906D01*
X150757Y483892D01*
X151085Y483836D01*
X151415Y483775D01*
X151468Y483770D01*
X151521Y483761D01*
X151853Y483739D01*
X152187Y483713D01*
X152240Y483714D01*
X152293Y483710D01*
X152628Y483723D01*
X152961Y483731D01*
X153013Y483737D01*
X153067Y483739D01*
X153398Y483786D01*
X153729Y483828D01*
X153781Y483840D01*
X153834Y483848D01*
X154157Y483928D01*
X154483Y484005D01*
X154533Y484022D01*
X154585Y484035D01*
X154899Y484148D01*
X155214Y484258D01*
X155263Y484280D01*
X155313Y484298D01*
X155614Y484444D01*
X155916Y484585D01*
X155962Y484612D01*
X156010Y484636D01*
X156293Y484811D01*
X156580Y484983D01*
X156623Y485015D01*
X156669Y485043D01*
X156932Y485246D01*
X157200Y485447D01*
X157240Y485483D01*
X157282Y485516D01*
X157523Y485746D01*
X157769Y485973D01*
X157804Y486013D01*
X157843Y486050D01*
X158060Y486304D01*
X158280Y486554D01*
X158304Y486590D01*
X158346Y486638D01*
X158785Y487276D01*
X158848Y487390D01*
X158895Y487459D01*
X162492Y493691D01*
X169009Y500208D01*
X176990Y504815D01*
X177315Y504902D01*
X177410Y504933D01*
X177508Y504957D01*
X177779Y505053D01*
X178051Y505141D01*
X178143Y505182D01*
X178238Y505215D01*
X178497Y505339D01*
X178759Y505455D01*
X178847Y505504D01*
X178937Y505548D01*
X179182Y505697D01*
X179431Y505839D01*
X179513Y505898D01*
X179599Y505950D01*
X179827Y506124D01*
X180060Y506291D01*
X180135Y506358D01*
X180215Y506419D01*
X180425Y506615D01*
X180639Y506806D01*
X180706Y506880D01*
X180780Y506948D01*
X180968Y507165D01*
X181161Y507377D01*
X181221Y507458D01*
X181287Y507534D01*
X181451Y507768D01*
X181622Y507999D01*
X181674Y508086D01*
X181731Y508168D01*
X181871Y508419D01*
X182017Y508666D01*
X182058Y508757D01*
X182107Y508845D01*
X182220Y509109D01*
X182340Y509369D01*
X182372Y509464D01*
X182412Y509556D01*
X182497Y509830D01*
X182589Y510102D01*
X182612Y510200D01*
X182641Y510296D01*
X182698Y510577D01*
X182762Y510857D01*
X182774Y510957D01*
X182793Y511055D01*
X182805Y511215D01*
X182855Y511626D01*
X182862Y511987D01*
X182873Y512146D01*
X182873Y540651D01*
X184747Y547645D01*
X188368Y553916D01*
X194186Y559734D01*
X251322Y616870D01*
X257593Y620491D01*
X264587Y622365D01*
X385207Y622365D01*
X385280Y622369D01*
X385354Y622366D01*
X385667Y622389D01*
X385980Y622405D01*
X386053Y622416D01*
X386126Y622421D01*
X386435Y622476D01*
X386745Y622524D01*
X386816Y622543D01*
X386889Y622556D01*
X387191Y622642D01*
X387494Y622722D01*
X387562Y622748D01*
X387633Y622768D01*
X387925Y622885D01*
X388218Y622996D01*
X388284Y623029D01*
X388352Y623056D01*
X388630Y623202D01*
X388910Y623343D01*
X388972Y623383D01*
X389037Y623417D01*
X389298Y623591D01*
X389563Y623760D01*
X389620Y623805D01*
X389682Y623846D01*
X389795Y623944D01*
X390169Y624241D01*
X390393Y624461D01*
X390509Y624561D01*
X390868Y624920D01*
X390917Y624974D01*
X390971Y625025D01*
X391176Y625262D01*
X391386Y625495D01*
X391430Y625554D01*
X391478Y625610D01*
X391658Y625866D01*
X391843Y626120D01*
X391880Y626184D01*
X391922Y626244D01*
X392074Y626518D01*
X392232Y626789D01*
X392263Y626856D01*
X392298Y626921D01*
X392401Y627161D01*
X399034Y633793D01*
X399048Y633736D01*
X399060Y633657D01*
X399138Y633360D01*
X399211Y633061D01*
X399237Y632985D01*
X399258Y632908D01*
X399366Y632622D01*
X399469Y632331D01*
X399503Y632259D01*
X399532Y632184D01*
X399669Y631910D01*
X399801Y631632D01*
X399843Y631563D01*
X399879Y631492D01*
X400044Y631233D01*
X400204Y630970D01*
X400252Y630907D01*
X400295Y630839D01*
X400486Y630599D01*
X400672Y630354D01*
X400727Y630295D01*
X400777Y630233D01*
X400992Y630013D01*
X401202Y629789D01*
X401263Y629737D01*
X401319Y629679D01*
X401555Y629483D01*
X401787Y629282D01*
X401853Y629236D01*
X401915Y629185D01*
X402170Y629014D01*
X402421Y628838D01*
X402492Y628799D01*
X402558Y628754D01*
X402830Y628611D01*
X403098Y628462D01*
X403172Y628430D01*
X403243Y628393D01*
X403528Y628278D01*
X403810Y628157D01*
X403887Y628133D01*
X403961Y628103D01*
X404256Y628019D01*
X404550Y627928D01*
X404628Y627912D01*
X404705Y627890D01*
X405007Y627836D01*
X405309Y627776D01*
X405372Y627771D01*
X405467Y627754D01*
X406240Y627697D01*
X406336Y627700D01*
X406400Y627696D01*
X406707Y627712D01*
X407014Y627721D01*
X407093Y627732D01*
X407173Y627736D01*
X407477Y627783D01*
X407781Y627824D01*
X407859Y627843D01*
X407938Y627855D01*
X408235Y627933D01*
X408534Y628006D01*
X408610Y628033D01*
X408687Y628053D01*
X408973Y628161D01*
X409264Y628264D01*
X409337Y628299D01*
X409411Y628327D01*
X409686Y628464D01*
X409963Y628596D01*
X410032Y628638D01*
X410103Y628674D01*
X410362Y628839D01*
X410625Y628999D01*
X410689Y629047D01*
X410756Y629091D01*
X410996Y629281D01*
X411241Y629468D01*
X411300Y629522D01*
X411362Y629572D01*
X411582Y629787D01*
X411806Y629997D01*
X411858Y630058D01*
X411916Y630114D01*
X412112Y630351D01*
X412313Y630582D01*
X412359Y630648D01*
X412410Y630710D01*
X412581Y630965D01*
X412757Y631217D01*
X412796Y631287D01*
X412841Y631353D01*
X412984Y631625D01*
X413133Y631893D01*
X413165Y631967D01*
X413202Y632038D01*
X413317Y632323D01*
X413438Y632605D01*
X413462Y632682D01*
X413492Y632756D01*
X413576Y633051D01*
X413668Y633345D01*
X413683Y633423D01*
X413705Y633500D01*
X413759Y633801D01*
X414736Y632823D01*
X414791Y632774D01*
X414841Y632720D01*
X415078Y632515D01*
X415311Y632305D01*
X415371Y632261D01*
X415426Y632213D01*
X415684Y632033D01*
X415937Y631848D01*
X416000Y631811D01*
X416061Y631769D01*
X416335Y631617D01*
X416606Y631459D01*
X416673Y631428D01*
X416737Y631393D01*
X417026Y631269D01*
X417312Y631140D01*
X417381Y631117D01*
X417449Y631088D01*
X417749Y630995D01*
X418047Y630896D01*
X418119Y630880D01*
X418189Y630859D01*
X418496Y630797D01*
X418803Y630729D01*
X418876Y630721D01*
X418948Y630707D01*
X419098Y630696D01*
X419572Y630641D01*
X419886Y630638D01*
X420039Y630627D01*
X447099Y630627D01*
X447406Y630643D01*
X447713Y630652D01*
X447792Y630663D01*
X447872Y630667D01*
X448175Y630714D01*
X448480Y630755D01*
X448558Y630774D01*
X448637Y630786D01*
X448934Y630864D01*
X449233Y630937D01*
X449309Y630964D01*
X449386Y630984D01*
X449672Y631092D01*
X449963Y631195D01*
X450035Y631230D01*
X450110Y631258D01*
X450384Y631395D01*
X450662Y631527D01*
X450731Y631569D01*
X450802Y631605D01*
X451061Y631770D01*
X451324Y631930D01*
X451387Y631978D01*
X451455Y632022D01*
X451695Y632212D01*
X451940Y632399D01*
X451999Y632453D01*
X452061Y632503D01*
X452281Y632718D01*
X452505Y632928D01*
X452557Y632989D01*
X452615Y633045D01*
X452811Y633282D01*
X453012Y633513D01*
X453058Y633579D01*
X453109Y633641D01*
X453280Y633896D01*
X453456Y634148D01*
X453495Y634218D01*
X453540Y634284D01*
X453683Y634556D01*
X453832Y634824D01*
X453864Y634898D01*
X453901Y634969D01*
X454016Y635254D01*
X454137Y635536D01*
X454161Y635613D01*
X454191Y635687D01*
X454275Y635982D01*
X454366Y636276D01*
X454382Y636354D01*
X454404Y636431D01*
X454458Y636733D01*
X454518Y637035D01*
X454523Y637099D01*
X454540Y637194D01*
X454597Y637966D01*
X454594Y638062D01*
X454598Y638126D01*
X454598Y651679D01*
X471001Y668082D01*
X471403Y668082D01*
X471656Y668095D01*
X471910Y668099D01*
X472043Y668115D01*
X472176Y668122D01*
X472427Y668161D01*
X472679Y668191D01*
X472809Y668221D01*
X472941Y668241D01*
X473187Y668306D01*
X473434Y668362D01*
X473560Y668405D01*
X473690Y668439D01*
X473927Y668529D01*
X474168Y668610D01*
X474259Y668654D01*
X474414Y668713D01*
X475106Y669060D01*
X475133Y669077D01*
X475152Y669086D01*
X476848Y670065D01*
X477041Y670128D01*
X477263Y670190D01*
X477371Y670235D01*
X477559Y670296D01*
X478249Y670601D01*
X480864Y671151D01*
X481121Y671220D01*
X481260Y671246D01*
X483843Y671938D01*
X484046Y671949D01*
X484276Y671951D01*
X484391Y671966D01*
X484589Y671977D01*
X485335Y672093D01*
X488003Y671948D01*
X488269Y671947D01*
X488411Y671937D01*
X599736Y671937D01*
X599912Y671946D01*
X600089Y671945D01*
X600233Y671962D01*
X600509Y671977D01*
X601046Y672061D01*
X601175Y672076D01*
X601401Y672120D01*
X603814Y671954D01*
X604169Y671948D01*
X604328Y671937D01*
X606747Y671937D01*
X606969Y671877D01*
X607142Y671840D01*
X607312Y671794D01*
X607456Y671773D01*
X607726Y671716D01*
X608266Y671658D01*
X608395Y671639D01*
X608625Y671623D01*
X610913Y670839D01*
X611254Y670741D01*
X611405Y670689D01*
X613741Y670063D01*
X613940Y669948D01*
X614098Y669867D01*
X614250Y669778D01*
X614384Y669721D01*
X614630Y669596D01*
X615137Y669400D01*
X615257Y669349D01*
X615474Y669274D01*
X617481Y667924D01*
X617786Y667741D01*
X617918Y667651D01*
X620434Y666198D01*
X620608Y666071D01*
X620842Y665935D01*
X620961Y665854D01*
X626793Y662487D01*
X632007Y657273D01*
X635693Y650888D01*
X637602Y643767D01*
X637602Y636393D01*
X635693Y629272D01*
X632007Y622887D01*
X626793Y617673D01*
X623891Y615998D01*
X623656Y615845D01*
X623416Y615699D01*
X623331Y615634D01*
X623242Y615576D01*
X623023Y615400D01*
X622800Y615230D01*
X622722Y615157D01*
X622639Y615090D01*
X622440Y614893D01*
X622235Y614701D01*
X622165Y614620D01*
X622089Y614545D01*
X621912Y614328D01*
X621728Y614116D01*
X621667Y614028D01*
X621599Y613945D01*
X621445Y613711D01*
X621284Y613481D01*
X621232Y613388D01*
X621173Y613299D01*
X621044Y613050D01*
X620908Y612805D01*
X620866Y612706D01*
X620816Y612612D01*
X620714Y612351D01*
X620603Y612093D01*
X620571Y611991D01*
X620532Y611891D01*
X620457Y611621D01*
X620374Y611353D01*
X620353Y611248D01*
X620324Y611146D01*
X620277Y610869D01*
X620222Y610594D01*
X620215Y610511D01*
X620193Y610382D01*
X620142Y609610D01*
X620145Y609546D01*
X620142Y609503D01*
X620142Y605078D01*
X620158Y604771D01*
X620167Y604464D01*
X620178Y604385D01*
X620182Y604305D01*
X620229Y604002D01*
X620270Y603697D01*
X620289Y603619D01*
X620301Y603540D01*
X620379Y603243D01*
X620452Y602944D01*
X620479Y602868D01*
X620499Y602791D01*
X620607Y602505D01*
X620710Y602214D01*
X620745Y602142D01*
X620773Y602067D01*
X620911Y601792D01*
X621042Y601515D01*
X621084Y601446D01*
X621120Y601375D01*
X621285Y601116D01*
X621445Y600853D01*
X621493Y600790D01*
X621537Y600722D01*
X621727Y600482D01*
X621914Y600237D01*
X621968Y600178D01*
X622018Y600116D01*
X622233Y599896D01*
X622443Y599672D01*
X622504Y599620D01*
X622560Y599562D01*
X622797Y599366D01*
X623028Y599165D01*
X623094Y599119D01*
X623156Y599068D01*
X623411Y598897D01*
X623663Y598721D01*
X623733Y598682D01*
X623799Y598637D01*
X624071Y598494D01*
X624339Y598345D01*
X624413Y598313D01*
X624484Y598276D01*
X624769Y598161D01*
X625051Y598040D01*
X625128Y598016D01*
X625202Y597986D01*
X625497Y597902D01*
X625791Y597811D01*
X625869Y597795D01*
X625946Y597773D01*
X626248Y597719D01*
X626550Y597659D01*
X626614Y597654D01*
X626709Y597637D01*
X627481Y597580D01*
X627577Y597583D01*
X627641Y597579D01*
X658549Y597579D01*
X658622Y597583D01*
X658696Y597580D01*
X659009Y597603D01*
X659322Y597619D01*
X659394Y597630D01*
X659468Y597635D01*
X659777Y597690D01*
X660087Y597738D01*
X660158Y597757D01*
X660230Y597770D01*
X660533Y597856D01*
X660835Y597936D01*
X660904Y597962D01*
X660975Y597982D01*
X661267Y598099D01*
X661560Y598210D01*
X661625Y598243D01*
X661694Y598270D01*
X661972Y598416D01*
X662252Y598557D01*
X662314Y598597D01*
X662379Y598631D01*
X662640Y598805D01*
X662904Y598974D01*
X662962Y599019D01*
X663023Y599060D01*
X663137Y599158D01*
X663511Y599455D01*
X663735Y599675D01*
X663851Y599775D01*
X689208Y625132D01*
X695479Y628753D01*
X700363Y630061D01*
X700680Y630164D01*
X701000Y630263D01*
X701049Y630284D01*
X701100Y630300D01*
X701404Y630435D01*
X701712Y630566D01*
X701759Y630592D01*
X701808Y630613D01*
X702097Y630779D01*
X702390Y630941D01*
X702433Y630972D01*
X702480Y630998D01*
X702749Y631192D01*
X703025Y631384D01*
X703065Y631419D01*
X703108Y631450D01*
X703357Y631671D01*
X703611Y631890D01*
X703647Y631929D01*
X703687Y631965D01*
X703912Y632211D01*
X704141Y632454D01*
X704174Y632497D01*
X704210Y632536D01*
X704408Y632804D01*
X704611Y633070D01*
X704639Y633115D01*
X704670Y633158D01*
X704841Y633446D01*
X705015Y633730D01*
X705037Y633778D01*
X705065Y633824D01*
X705205Y634129D01*
X705348Y634429D01*
X705366Y634479D01*
X705388Y634528D01*
X705496Y634844D01*
X705608Y635159D01*
X705620Y635211D01*
X705637Y635261D01*
X705712Y635587D01*
X705791Y635911D01*
X705798Y635964D01*
X705810Y636016D01*
X705850Y636348D01*
X705895Y636678D01*
X705897Y636732D01*
X705903Y636785D01*
X705909Y637119D01*
X705920Y637452D01*
X705916Y637505D01*
X705917Y637559D01*
X705888Y637892D01*
X705865Y638225D01*
X705855Y638277D01*
X705851Y638330D01*
X705788Y638658D01*
X705730Y638987D01*
X705716Y639039D01*
X705706Y639091D01*
X705609Y639410D01*
X705518Y639732D01*
X705498Y639781D01*
X705483Y639832D01*
X705354Y640140D01*
X705230Y640450D01*
X705205Y640498D01*
X705184Y640547D01*
X705025Y640840D01*
X704869Y641136D01*
X704840Y641180D01*
X704814Y641227D01*
X704625Y641503D01*
X704440Y641780D01*
X704412Y641812D01*
X704376Y641865D01*
X703923Y642396D01*
X700052Y649102D01*
X698057Y656546D01*
X698057Y664254D01*
X699908Y671159D01*
X699961Y671407D01*
X700022Y671654D01*
X700041Y671786D01*
X700069Y671916D01*
X700096Y672168D01*
X700132Y672420D01*
X700137Y672554D01*
X700152Y672686D01*
X700153Y672940D01*
X700162Y673194D01*
X700154Y673327D01*
X700154Y673460D01*
X700129Y673713D01*
X700113Y673966D01*
X700094Y674066D01*
X700077Y674231D01*
X699921Y674989D01*
X699912Y675019D01*
X699908Y675041D01*
X698057Y681946D01*
X698057Y689654D01*
X700052Y697098D01*
X703906Y703773D01*
X709356Y709223D01*
X716031Y713077D01*
X723475Y715072D01*
X749725Y715072D01*
X757169Y713077D01*
X763844Y709223D01*
X769294Y703773D01*
X773148Y697098D01*
X775143Y689654D01*
X775143Y681946D01*
X773292Y675041D01*
X773239Y674793D01*
X773178Y674546D01*
X773159Y674414D01*
X773131Y674284D01*
X773104Y674031D01*
X773068Y673780D01*
X773063Y673646D01*
X773048Y673514D01*
X773047Y673260D01*
X773038Y673006D01*
X773046Y672873D01*
X773046Y672739D01*
X773071Y672487D01*
X773087Y672234D01*
X773106Y672134D01*
X773123Y671969D01*
X773279Y671211D01*
X773288Y671181D01*
X773292Y671159D01*
X775143Y664254D01*
X775143Y656546D01*
X773148Y649102D01*
X769294Y642427D01*
X767170Y640303D01*
X766964Y640074D01*
X766754Y639851D01*
X766705Y639787D01*
X766652Y639728D01*
X766471Y639480D01*
X766284Y639235D01*
X766243Y639167D01*
X766195Y639102D01*
X766041Y638837D01*
X765881Y638575D01*
X765846Y638502D01*
X765806Y638433D01*
X765680Y638153D01*
X765547Y637876D01*
X765520Y637800D01*
X765487Y637727D01*
X765390Y637436D01*
X765287Y637146D01*
X765269Y637069D01*
X765243Y636993D01*
X765177Y636693D01*
X765104Y636394D01*
X765094Y636315D01*
X765076Y636236D01*
X765041Y635931D01*
X765000Y635627D01*
X764997Y635547D01*
X764988Y635467D01*
X764985Y635159D01*
X764975Y634853D01*
X764981Y634773D01*
X764980Y634693D01*
X765008Y634387D01*
X765030Y634081D01*
X765044Y634001D01*
X765052Y633922D01*
X765111Y633621D01*
X765165Y633318D01*
X765187Y633241D01*
X765202Y633162D01*
X765293Y632869D01*
X765377Y632573D01*
X765407Y632499D01*
X765431Y632423D01*
X765551Y632140D01*
X765665Y631855D01*
X765703Y631784D01*
X765734Y631710D01*
X765883Y631440D01*
X766026Y631170D01*
X766070Y631103D01*
X766109Y631033D01*
X766285Y630780D01*
X766455Y630525D01*
X766497Y630477D01*
X766552Y630398D01*
X766774Y630140D01*
X766806Y630098D01*
X766862Y630039D01*
X767058Y629812D01*
X767129Y629745D01*
X767170Y629697D01*
X769294Y627573D01*
X773148Y620898D01*
X775143Y613454D01*
X775143Y605746D01*
X773292Y598841D01*
X773239Y598593D01*
X773178Y598346D01*
X773159Y598214D01*
X773131Y598084D01*
X773104Y597832D01*
X773068Y597580D01*
X773063Y597446D01*
X773048Y597314D01*
X773047Y597060D01*
X773038Y596806D01*
X773046Y596673D01*
X773046Y596540D01*
X773071Y596287D01*
X773087Y596034D01*
X773106Y595934D01*
X773123Y595769D01*
X773279Y595011D01*
X773288Y594981D01*
X773292Y594959D01*
X775143Y588054D01*
X775143Y580346D01*
X773292Y573441D01*
X773239Y573193D01*
X773178Y572946D01*
X773159Y572814D01*
X773131Y572684D01*
X773104Y572432D01*
X773068Y572180D01*
X773063Y572046D01*
X773048Y571914D01*
X773047Y571660D01*
X773038Y571406D01*
X773046Y571273D01*
X773046Y571140D01*
X773071Y570887D01*
X773087Y570634D01*
X773106Y570534D01*
X773123Y570369D01*
X773279Y569611D01*
X773288Y569581D01*
X773292Y569559D01*
X775143Y562654D01*
X775143Y554946D01*
X773292Y548041D01*
X773239Y547793D01*
X773178Y547546D01*
X773159Y547414D01*
X773131Y547284D01*
X773104Y547032D01*
X773068Y546780D01*
X773063Y546646D01*
X773048Y546514D01*
X773047Y546260D01*
X773038Y546006D01*
X773046Y545873D01*
X773046Y545740D01*
X773071Y545487D01*
X773087Y545234D01*
X773106Y545134D01*
X773123Y544969D01*
X773279Y544211D01*
X773288Y544181D01*
X773292Y544159D01*
X775143Y537254D01*
X775143Y529546D01*
X773148Y522102D01*
X769294Y515427D01*
X767170Y513303D01*
X766964Y513074D01*
X766754Y512851D01*
X766705Y512787D01*
X766652Y512728D01*
X766471Y512480D01*
X766284Y512235D01*
X766243Y512167D01*
X766195Y512102D01*
X766041Y511837D01*
X765881Y511575D01*
X765846Y511502D01*
X765806Y511433D01*
X765680Y511153D01*
X765547Y510876D01*
X765520Y510800D01*
X765487Y510727D01*
X765390Y510436D01*
X765287Y510146D01*
X765269Y510069D01*
X765243Y509993D01*
X765177Y509693D01*
X765104Y509394D01*
X765094Y509315D01*
X765076Y509236D01*
X765041Y508931D01*
X765000Y508627D01*
X764997Y508547D01*
X764988Y508467D01*
X764985Y508160D01*
X764975Y507853D01*
X764981Y507773D01*
X764980Y507693D01*
X765008Y507387D01*
X765030Y507081D01*
X765044Y507001D01*
X765052Y506922D01*
X765111Y506621D01*
X765165Y506318D01*
X765187Y506241D01*
X765202Y506162D01*
X765293Y505869D01*
X765377Y505573D01*
X765407Y505499D01*
X765431Y505423D01*
X765551Y505140D01*
X765665Y504855D01*
X765703Y504784D01*
X765734Y504710D01*
X765883Y504441D01*
X766026Y504170D01*
X766070Y504103D01*
X766109Y504033D01*
X766285Y503780D01*
X766455Y503525D01*
X766497Y503477D01*
X766552Y503398D01*
X767058Y502812D01*
X767129Y502745D01*
X767170Y502697D01*
X769294Y500573D01*
X773148Y493899D01*
X774596Y488492D01*
X774675Y488251D01*
X774744Y488007D01*
X774794Y487882D01*
X774835Y487756D01*
X774938Y487524D01*
X775032Y487288D01*
X775095Y487170D01*
X775149Y487048D01*
X775275Y486827D01*
X775393Y486603D01*
X775467Y486492D01*
X775533Y486376D01*
X775682Y486169D01*
X775822Y485958D01*
X775889Y485882D01*
X775985Y485747D01*
X776500Y485168D01*
X776523Y485147D01*
X776537Y485130D01*
X782110Y479558D01*
X785731Y473287D01*
X787605Y466293D01*
X787605Y398453D01*
X787613Y398300D01*
X787611Y398146D01*
X787633Y397914D01*
X787645Y397680D01*
X787668Y397528D01*
X787683Y397375D01*
X787728Y397146D01*
X787764Y396915D01*
X787803Y396767D01*
X787833Y396616D01*
X787902Y396392D01*
X787962Y396167D01*
X788016Y396023D01*
X788062Y395876D01*
X788153Y395661D01*
X788236Y395442D01*
X788305Y395305D01*
X788365Y395163D01*
X788478Y394959D01*
X788583Y394750D01*
X788666Y394620D01*
X788740Y394486D01*
X788874Y394295D01*
X789000Y394097D01*
X789095Y393977D01*
X789183Y393851D01*
X789336Y393674D01*
X789481Y393491D01*
X789589Y393381D01*
X789689Y393265D01*
X789859Y393105D01*
X790023Y392938D01*
X790141Y392840D01*
X790253Y392734D01*
X790439Y392593D01*
X790619Y392443D01*
X790746Y392358D01*
X790869Y392265D01*
X791068Y392143D01*
X791262Y392013D01*
X791398Y391941D01*
X791529Y391861D01*
X791740Y391760D01*
X791947Y391651D01*
X792090Y391594D01*
X792228Y391527D01*
X792448Y391449D01*
X792665Y391362D01*
X792813Y391319D01*
X792958Y391268D01*
X793185Y391213D01*
X793409Y391148D01*
X793560Y391121D01*
X793710Y391085D01*
X793942Y391053D01*
X794172Y391012D01*
X794325Y391001D01*
X794477Y390980D01*
X794711Y390973D01*
X794944Y390956D01*
X795097Y390961D01*
X795251Y390956D01*
X795484Y390972D01*
X795718Y390979D01*
X795870Y391000D01*
X796024Y391011D01*
X796253Y391051D01*
X796485Y391082D01*
X796635Y391119D01*
X796786Y391145D01*
X797011Y391209D01*
X797238Y391264D01*
X797383Y391315D01*
X797531Y391358D01*
X797747Y391445D01*
X797968Y391523D01*
X798107Y391588D01*
X798249Y391646D01*
X798456Y391755D01*
X798667Y391855D01*
X798798Y391935D01*
X798935Y392006D01*
X799129Y392136D01*
X799329Y392257D01*
X799451Y392350D01*
X799579Y392436D01*
X799695Y392536D01*
X799945Y392726D01*
X800293Y393052D01*
X800407Y393151D01*
X801052Y393796D01*
X807323Y397417D01*
X814317Y399291D01*
X948853Y399291D01*
X949239Y399311D01*
X949399Y399311D01*
X951737Y399481D01*
X952037Y399424D01*
X952196Y399402D01*
X952354Y399371D01*
X952505Y399359D01*
X952804Y399318D01*
X953299Y399301D01*
X953445Y399291D01*
X953751Y399291D01*
X956014Y398684D01*
X956392Y398604D01*
X956547Y398562D01*
X958849Y398122D01*
X959124Y397989D01*
X959272Y397926D01*
X959416Y397855D01*
X959559Y397805D01*
X959838Y397688D01*
X960312Y397544D01*
X960450Y397496D01*
X960745Y397417D01*
X961596Y396925D01*
X961822Y396810D01*
X962044Y396687D01*
X962166Y396634D01*
X962285Y396573D01*
X962522Y396482D01*
X962755Y396382D01*
X962883Y396342D01*
X963007Y396294D01*
X963252Y396228D01*
X963495Y396153D01*
X963626Y396126D01*
X963755Y396091D01*
X963802Y396084D01*
X964025Y395875D01*
X964079Y395835D01*
X964128Y395790D01*
X964387Y395601D01*
X964642Y395407D01*
X964689Y395381D01*
X964754Y395333D01*
X965338Y394993D01*
X965598Y394768D01*
X965725Y394670D01*
X965846Y394563D01*
X965971Y394479D01*
X966210Y394293D01*
X966631Y394030D01*
X966751Y393949D01*
X967016Y393796D01*
X967197Y393615D01*
X967311Y393512D01*
X967419Y393402D01*
X967599Y393253D01*
X967772Y393096D01*
X967896Y393006D01*
X968015Y392907D01*
X968209Y392778D01*
X968398Y392640D01*
X968531Y392562D01*
X968658Y392477D01*
X968865Y392368D01*
X969067Y392250D01*
X969207Y392187D01*
X969343Y392115D01*
X969560Y392028D01*
X969773Y391932D01*
X969918Y391883D01*
X970061Y391826D01*
X970286Y391761D01*
X970507Y391688D01*
X970658Y391655D01*
X970805Y391612D01*
X971035Y391571D01*
X971264Y391521D01*
X971417Y391503D01*
X971568Y391476D01*
X971800Y391459D01*
X972033Y391433D01*
X972187Y391431D01*
X972340Y391420D01*
X972573Y391427D01*
X972807Y391424D01*
X972960Y391439D01*
X973114Y391443D01*
X973345Y391474D01*
X973578Y391496D01*
X973729Y391526D01*
X973881Y391546D01*
X974108Y391601D01*
X974338Y391647D01*
X974484Y391692D01*
X974634Y391728D01*
X974854Y391806D01*
X975077Y391875D01*
X975219Y391935D01*
X975364Y391987D01*
X975575Y392087D01*
X975790Y392178D01*
X975924Y392253D01*
X976063Y392319D01*
X976263Y392440D01*
X976467Y392553D01*
X976593Y392641D01*
X976725Y392721D01*
X976910Y392863D01*
X977102Y392996D01*
X977219Y393097D01*
X977341Y393190D01*
X977511Y393350D01*
X977688Y393503D01*
X977794Y393615D01*
X977906Y393720D01*
X978059Y393896D01*
X978219Y394066D01*
X978312Y394189D01*
X978413Y394305D01*
X978547Y394496D01*
X978689Y394682D01*
X978769Y394813D01*
X978857Y394939D01*
X978970Y395143D01*
X979092Y395343D01*
X979159Y395481D01*
X979233Y395616D01*
X979325Y395831D01*
X979426Y396041D01*
X979477Y396186D01*
X979538Y396328D01*
X979607Y396551D01*
X979686Y396771D01*
X979722Y396921D01*
X979767Y397067D01*
X979813Y397296D01*
X979869Y397523D01*
X979889Y397676D01*
X979919Y397826D01*
X979931Y397980D01*
X979973Y398290D01*
X979988Y398768D01*
X979999Y398917D01*
X979999Y504827D01*
X979991Y504981D01*
X979993Y505134D01*
X979971Y505367D01*
X979959Y505600D01*
X979936Y505752D01*
X979921Y505905D01*
X979876Y506134D01*
X979840Y506365D01*
X979801Y506514D01*
X979771Y506665D01*
X979702Y506889D01*
X979642Y507114D01*
X979588Y507257D01*
X979542Y507405D01*
X979451Y507620D01*
X979368Y507838D01*
X979299Y507976D01*
X979239Y508117D01*
X979126Y508321D01*
X979021Y508530D01*
X978938Y508660D01*
X978864Y508794D01*
X978730Y508986D01*
X978604Y509183D01*
X978509Y509303D01*
X978421Y509429D01*
X978268Y509606D01*
X978123Y509789D01*
X978015Y509899D01*
X977915Y510015D01*
X977745Y510175D01*
X977581Y510343D01*
X977463Y510441D01*
X977351Y510546D01*
X977165Y510688D01*
X976985Y510837D01*
X976858Y510922D01*
X976735Y511016D01*
X976536Y511138D01*
X976342Y511268D01*
X976206Y511339D01*
X976075Y511420D01*
X975864Y511520D01*
X975657Y511629D01*
X975514Y511687D01*
X975376Y511753D01*
X975156Y511831D01*
X974939Y511919D01*
X974791Y511961D01*
X974646Y512013D01*
X974419Y512068D01*
X974195Y512132D01*
X974043Y512159D01*
X973894Y512196D01*
X973662Y512227D01*
X973432Y512268D01*
X973279Y512279D01*
X973127Y512300D01*
X972893Y512308D01*
X972660Y512325D01*
X972507Y512320D01*
X972353Y512325D01*
X972120Y512308D01*
X971886Y512301D01*
X971734Y512281D01*
X971580Y512270D01*
X971351Y512229D01*
X971119Y512198D01*
X970969Y512162D01*
X970818Y512135D01*
X970594Y512071D01*
X970366Y512016D01*
X970221Y511965D01*
X970073Y511923D01*
X969857Y511836D01*
X969636Y511758D01*
X969497Y511692D01*
X969355Y511635D01*
X969148Y511526D01*
X968937Y511426D01*
X968805Y511346D01*
X968669Y511274D01*
X968475Y511144D01*
X968275Y511023D01*
X968153Y510930D01*
X968025Y510845D01*
X967909Y510744D01*
X967659Y510554D01*
X967311Y510228D01*
X967197Y510130D01*
X967044Y509977D01*
X960369Y506123D01*
X952925Y504128D01*
X926675Y504128D01*
X919231Y506123D01*
X912556Y509977D01*
X907106Y515427D01*
X903252Y522102D01*
X901257Y529546D01*
X901257Y537254D01*
X903108Y544159D01*
X903161Y544407D01*
X903222Y544654D01*
X903241Y544786D01*
X903269Y544916D01*
X903296Y545169D01*
X903332Y545420D01*
X903337Y545554D01*
X903352Y545686D01*
X903353Y545940D01*
X903362Y546194D01*
X903354Y546327D01*
X903354Y546461D01*
X903329Y546713D01*
X903313Y546966D01*
X903294Y547066D01*
X903277Y547231D01*
X903121Y547989D01*
X903112Y548019D01*
X903108Y548041D01*
X901257Y554946D01*
X901257Y562654D01*
X903108Y569559D01*
X903161Y569807D01*
X903222Y570054D01*
X903241Y570186D01*
X903269Y570316D01*
X903296Y570569D01*
X903332Y570820D01*
X903337Y570954D01*
X903352Y571086D01*
X903353Y571340D01*
X903362Y571594D01*
X903354Y571727D01*
X903354Y571861D01*
X903329Y572113D01*
X903313Y572366D01*
X903294Y572466D01*
X903277Y572631D01*
X903121Y573389D01*
X903112Y573419D01*
X903108Y573441D01*
X901257Y580346D01*
X901257Y588054D01*
X903108Y594959D01*
X903161Y595207D01*
X903222Y595454D01*
X903241Y595586D01*
X903269Y595716D01*
X903296Y595969D01*
X903332Y596220D01*
X903337Y596354D01*
X903352Y596486D01*
X903353Y596740D01*
X903362Y596994D01*
X903354Y597127D01*
X903354Y597261D01*
X903329Y597513D01*
X903313Y597766D01*
X903294Y597866D01*
X903277Y598031D01*
X903121Y598789D01*
X903112Y598819D01*
X903108Y598841D01*
X901257Y605746D01*
X901257Y613454D01*
X903108Y620359D01*
X903161Y620607D01*
X903222Y620854D01*
X903241Y620986D01*
X903269Y621116D01*
X903296Y621369D01*
X903332Y621620D01*
X903337Y621754D01*
X903352Y621886D01*
X903353Y622140D01*
X903362Y622394D01*
X903354Y622527D01*
X903354Y622661D01*
X903329Y622913D01*
X903313Y623166D01*
X903294Y623266D01*
X903277Y623431D01*
X903121Y624189D01*
X903112Y624219D01*
X903108Y624241D01*
X901257Y631146D01*
X901257Y638854D01*
X903108Y645759D01*
X903161Y646007D01*
X903222Y646254D01*
X903241Y646386D01*
X903269Y646516D01*
X903296Y646769D01*
X903332Y647020D01*
X903337Y647154D01*
X903352Y647286D01*
X903353Y647540D01*
X903362Y647794D01*
X903354Y647927D01*
X903354Y648061D01*
X903329Y648313D01*
X903313Y648566D01*
X903294Y648666D01*
X903277Y648831D01*
X903121Y649589D01*
X903112Y649619D01*
X903108Y649641D01*
X901257Y656546D01*
X901257Y664254D01*
X903252Y671698D01*
X907106Y678373D01*
X912556Y683823D01*
X919231Y687677D01*
X926675Y689672D01*
X952925Y689672D01*
X960369Y687677D01*
X967044Y683823D01*
X967197Y683670D01*
X967311Y683567D01*
X967419Y683457D01*
X967599Y683308D01*
X967772Y683152D01*
X967896Y683061D01*
X968015Y682963D01*
X968209Y682833D01*
X968398Y682695D01*
X968530Y682618D01*
X968658Y682532D01*
X968865Y682423D01*
X969067Y682306D01*
X969207Y682243D01*
X969343Y682171D01*
X969560Y682083D01*
X969773Y681987D01*
X969918Y681939D01*
X970061Y681881D01*
X970286Y681817D01*
X970507Y681743D01*
X970658Y681710D01*
X970805Y681668D01*
X971035Y681627D01*
X971264Y681576D01*
X971416Y681559D01*
X971568Y681532D01*
X971801Y681515D01*
X972033Y681488D01*
X972187Y681487D01*
X972340Y681475D01*
X972573Y681483D01*
X972807Y681480D01*
X972960Y681494D01*
X973114Y681499D01*
X973345Y681530D01*
X973578Y681552D01*
X973729Y681582D01*
X973881Y681602D01*
X974108Y681657D01*
X974338Y681702D01*
X974484Y681748D01*
X974634Y681784D01*
X974854Y681862D01*
X975077Y681931D01*
X975219Y681991D01*
X975364Y682042D01*
X975575Y682142D01*
X975790Y682234D01*
X975924Y682308D01*
X976063Y682374D01*
X976263Y682496D01*
X976467Y682609D01*
X976593Y682697D01*
X976725Y682777D01*
X976910Y682918D01*
X977102Y683052D01*
X977219Y683153D01*
X977341Y683246D01*
X977511Y683405D01*
X977688Y683558D01*
X977794Y683670D01*
X977906Y683775D01*
X978059Y683952D01*
X978219Y684122D01*
X978312Y684244D01*
X978413Y684360D01*
X978547Y684552D01*
X978689Y684737D01*
X978769Y684869D01*
X978857Y684995D01*
X978970Y685199D01*
X979092Y685398D01*
X979159Y685537D01*
X979233Y685671D01*
X979325Y685887D01*
X979426Y686097D01*
X979477Y686242D01*
X979538Y686383D01*
X979607Y686606D01*
X979686Y686826D01*
X979722Y686976D01*
X979767Y687123D01*
X979813Y687351D01*
X979869Y687579D01*
X979889Y687731D01*
X979919Y687882D01*
X979931Y688035D01*
X979973Y688346D01*
X979988Y688823D01*
X979999Y688973D01*
X979999Y772500D01*
X979983Y772807D01*
X979974Y773114D01*
X979963Y773193D01*
X979959Y773273D01*
X979912Y773576D01*
X979871Y773881D01*
X979852Y773959D01*
X979840Y774038D01*
X979762Y774335D01*
X979689Y774634D01*
X979662Y774710D01*
X979642Y774787D01*
X979534Y775073D01*
X979431Y775364D01*
X979396Y775436D01*
X979368Y775511D01*
X979231Y775785D01*
X979099Y776063D01*
X979057Y776132D01*
X979021Y776203D01*
X978856Y776462D01*
X978696Y776725D01*
X978648Y776788D01*
X978604Y776856D01*
X978414Y777096D01*
X978227Y777341D01*
X978173Y777400D01*
X978123Y777462D01*
X977908Y777682D01*
X977698Y777906D01*
X977637Y777958D01*
X977581Y778016D01*
X977344Y778212D01*
X977113Y778413D01*
X977047Y778459D01*
X976985Y778510D01*
X976730Y778681D01*
X976478Y778857D01*
X976408Y778896D01*
X976342Y778941D01*
X976070Y779084D01*
X975802Y779233D01*
X975728Y779265D01*
X975657Y779302D01*
X975372Y779417D01*
X975090Y779538D01*
X975013Y779562D01*
X974939Y779592D01*
X974644Y779676D01*
X974350Y779767D01*
X974272Y779783D01*
X974195Y779805D01*
X973893Y779859D01*
X973591Y779919D01*
X973527Y779924D01*
X973432Y779941D01*
X972660Y779998D01*
X972564Y779995D01*
X972500Y779999D01*
X248358Y779999D01*
X248204Y779991D01*
X248050Y779993D01*
X247818Y779971D01*
X247585Y779959D01*
X247432Y779936D01*
X247279Y779921D01*
X247050Y779876D01*
X246820Y779840D01*
X246671Y779800D01*
X246520Y779771D01*
X246297Y779702D01*
X246071Y779642D01*
X245927Y779588D01*
X245780Y779542D01*
X245565Y779451D01*
X245347Y779368D01*
X245209Y779299D01*
X245067Y779239D01*
X244863Y779126D01*
X244654Y779021D01*
X244525Y778938D01*
X244390Y778864D01*
X244199Y778730D01*
X244002Y778604D01*
X243881Y778509D01*
X243755Y778421D01*
X243578Y778268D01*
X243396Y778123D01*
X243286Y778015D01*
X243169Y777914D01*
X243009Y777745D01*
X242842Y777581D01*
X242744Y777463D01*
X242638Y777351D01*
X242497Y777165D01*
X242348Y776985D01*
X242262Y776857D01*
X242169Y776735D01*
X242047Y776536D01*
X241917Y776342D01*
X241846Y776206D01*
X241765Y776074D01*
X241664Y775863D01*
X241555Y775657D01*
X241498Y775514D01*
X241432Y775375D01*
X241353Y775155D01*
X241266Y774939D01*
X241224Y774791D01*
X241172Y774646D01*
X241117Y774419D01*
X241053Y774195D01*
X241026Y774043D01*
X240989Y773894D01*
X240958Y773662D01*
X240917Y773432D01*
X240906Y773279D01*
X240885Y773126D01*
X240877Y772892D01*
X240860Y772660D01*
X240865Y772507D01*
X240860Y772352D01*
X240877Y772119D01*
X240884Y771886D01*
X240904Y771734D01*
X240915Y771580D01*
X240956Y771350D01*
X240987Y771119D01*
X241023Y770969D01*
X241050Y770818D01*
X241114Y770593D01*
X241169Y770366D01*
X241220Y770221D01*
X241262Y770073D01*
X241349Y769857D01*
X241427Y769636D01*
X241493Y769497D01*
X241550Y769354D01*
X241659Y769148D01*
X241759Y768937D01*
X241839Y768805D01*
X241911Y768669D01*
X242040Y768475D01*
X242162Y768275D01*
X242255Y768153D01*
X242340Y768025D01*
X242441Y767908D01*
X242516Y767810D01*
X245349Y762902D01*
X246764Y757621D01*
X246764Y752155D01*
X245839Y748701D01*
X245786Y748453D01*
X245724Y748206D01*
X245705Y748074D01*
X245677Y747944D01*
X245650Y747691D01*
X245614Y747440D01*
X245609Y747307D01*
X245595Y747174D01*
X245594Y746920D01*
X245584Y746666D01*
X245592Y746533D01*
X245592Y746399D01*
X245617Y746147D01*
X245633Y745894D01*
X245652Y745794D01*
X245669Y745629D01*
X245825Y744871D01*
X245835Y744840D01*
X245839Y744819D01*
X246764Y741365D01*
X246764Y735899D01*
X245349Y730618D01*
X242616Y725883D01*
X238750Y722018D01*
X234016Y719284D01*
X228735Y717869D01*
X218528Y717869D01*
X215554Y718836D01*
X215493Y718852D01*
X215434Y718874D01*
X215119Y718952D01*
X214806Y719037D01*
X214744Y719047D01*
X214683Y719062D01*
X214362Y719108D01*
X214042Y719159D01*
X213979Y719163D01*
X213916Y719172D01*
X213592Y719185D01*
X213269Y719203D01*
X213206Y719200D01*
X213143Y719202D01*
X212819Y719181D01*
X212495Y719166D01*
X212433Y719157D01*
X212370Y719153D01*
X212229Y719126D01*
X211730Y719050D01*
X211443Y718975D01*
X211296Y718947D01*
X207273Y717869D01*
X200113Y717869D01*
X199920Y717859D01*
X199728Y717859D01*
X199591Y717842D01*
X199340Y717829D01*
X198748Y717737D01*
X198731Y717735D01*
X196887Y717854D01*
X196560Y717858D01*
X196404Y717869D01*
X187773Y717869D01*
X187519Y717856D01*
X187265Y717852D01*
X187133Y717836D01*
X187000Y717829D01*
X186749Y717790D01*
X186497Y717760D01*
X186366Y717730D01*
X186235Y717710D01*
X185990Y717645D01*
X185741Y717589D01*
X185615Y717546D01*
X185486Y717512D01*
X185249Y717422D01*
X185008Y717341D01*
X184916Y717297D01*
X184762Y717238D01*
X184069Y716891D01*
X184043Y716874D01*
X184023Y716865D01*
X178829Y713866D01*
X173427Y712418D01*
X173109Y712315D01*
X172787Y712216D01*
X172739Y712195D01*
X172691Y712180D01*
X172384Y712044D01*
X172075Y711912D01*
X172030Y711887D01*
X171983Y711866D01*
X171691Y711699D01*
X171397Y711536D01*
X171355Y711507D01*
X171311Y711481D01*
X171038Y711285D01*
X170763Y711093D01*
X170724Y711059D01*
X170682Y711029D01*
X170430Y710806D01*
X170177Y710586D01*
X170142Y710549D01*
X170103Y710515D01*
X169876Y710266D01*
X169647Y710022D01*
X169615Y709982D01*
X169581Y709944D01*
X169381Y709674D01*
X169177Y709407D01*
X169156Y709371D01*
X169120Y709321D01*
X168726Y708655D01*
X168670Y708534D01*
X168627Y708461D01*
X167764Y706690D01*
X167461Y705977D01*
X167434Y705890D01*
X167411Y705836D01*
X166755Y703921D01*
X166191Y703165D01*
X166106Y703037D01*
X166013Y702915D01*
X165969Y702841D01*
X165853Y702691D01*
X165748Y702570D01*
X163399Y699419D01*
X163399Y699418D01*
X162252Y697879D01*
X156120Y693499D01*
X148943Y691199D01*
X141352Y691199D01*
X141270Y691220D01*
X140942Y691306D01*
X140895Y691314D01*
X140849Y691325D01*
X140512Y691374D01*
X140177Y691426D01*
X140130Y691429D01*
X140082Y691435D01*
X139743Y691449D01*
X139404Y691466D01*
X139356Y691464D01*
X139308Y691466D01*
X138970Y691444D01*
X138631Y691426D01*
X138583Y691419D01*
X138536Y691416D01*
X138411Y691392D01*
X137866Y691307D01*
X137603Y691238D01*
X137461Y691211D01*
X137419Y691199D01*
X116032Y691199D01*
X115818Y691245D01*
X115555Y691310D01*
X115440Y691326D01*
X115327Y691350D01*
X115057Y691379D01*
X114788Y691416D01*
X114698Y691417D01*
X114557Y691432D01*
X113783Y691435D01*
X113730Y691430D01*
X113694Y691430D01*
X112473Y691357D01*
X111703Y691271D01*
X111527Y691232D01*
X111419Y691218D01*
X110708Y691073D01*
X109673Y691135D01*
X108899Y691141D01*
X108824Y691134D01*
X108774Y691135D01*
X107739Y691073D01*
X107029Y691218D01*
X106263Y691334D01*
X106083Y691342D01*
X105975Y691357D01*
X105251Y691400D01*
X104267Y691728D01*
X103521Y691935D01*
X103447Y691947D01*
X103399Y691961D01*
X102383Y692169D01*
X101735Y692493D01*
X101025Y692803D01*
X100853Y692858D01*
X100752Y692900D01*
X100043Y693136D01*
X100041Y693137D01*
X99944Y693204D01*
X99708Y693333D01*
X99476Y693470D01*
X99368Y693519D01*
X99265Y693576D01*
X99017Y693680D01*
X98772Y693792D01*
X98660Y693830D01*
X98551Y693875D01*
X98293Y693953D01*
X98038Y694039D01*
X97922Y694065D01*
X97809Y694100D01*
X97545Y694151D01*
X97283Y694210D01*
X97165Y694224D01*
X97049Y694246D01*
X96781Y694270D01*
X96514Y694302D01*
X96396Y694304D01*
X96278Y694314D01*
X96009Y694309D01*
X95740Y694314D01*
X95622Y694303D01*
X95504Y694301D01*
X95237Y694269D01*
X94968Y694246D01*
X94852Y694223D01*
X94735Y694209D01*
X94473Y694150D01*
X94208Y694099D01*
X94095Y694064D01*
X93980Y694038D01*
X93724Y693952D01*
X93467Y693874D01*
X93358Y693828D01*
X93246Y693790D01*
X93101Y693720D01*
X92753Y693574D01*
X92406Y693384D01*
X92261Y693314D01*
X91050Y692614D01*
X85769Y691199D01*
X80290Y691199D01*
X80287Y691200D01*
X80227Y691218D01*
X79909Y691281D01*
X79592Y691348D01*
X79529Y691355D01*
X79467Y691367D01*
X79144Y691396D01*
X78822Y691431D01*
X78759Y691431D01*
X78696Y691437D01*
X78372Y691432D01*
X78048Y691434D01*
X77985Y691427D01*
X77922Y691426D01*
X77599Y691389D01*
X77277Y691356D01*
X77216Y691344D01*
X77153Y691336D01*
X77014Y691302D01*
X76519Y691200D01*
X76515Y691199D01*
X68854Y691199D01*
X66208Y691912D01*
X66142Y691926D01*
X66077Y691946D01*
X65764Y692008D01*
X65451Y692075D01*
X65384Y692082D01*
X65317Y692095D01*
X64999Y692124D01*
X64682Y692158D01*
X64613Y692159D01*
X64545Y692165D01*
X64226Y692161D01*
X63907Y692162D01*
X63839Y692155D01*
X63771Y692154D01*
X63455Y692117D01*
X63137Y692086D01*
X63070Y692072D01*
X63002Y692064D01*
X62860Y692029D01*
X62378Y691931D01*
X62087Y691839D01*
X61940Y691803D01*
X60081Y691199D01*
X56561Y691199D01*
X48829Y691199D01*
X43548Y692614D01*
X38813Y695348D01*
X34948Y699213D01*
X33995Y700864D01*
X33798Y701168D01*
X33604Y701471D01*
X33588Y701491D01*
X33573Y701514D01*
X33346Y701796D01*
X33123Y702077D01*
X33104Y702096D01*
X33087Y702117D01*
X32834Y702372D01*
X32581Y702630D01*
X32561Y702647D01*
X32542Y702666D01*
X32264Y702893D01*
X31985Y703125D01*
X31963Y703140D01*
X31942Y703156D01*
X31642Y703355D01*
X31342Y703555D01*
X31318Y703568D01*
X31296Y703582D01*
X30976Y703749D01*
X30657Y703917D01*
X30632Y703927D01*
X30609Y703939D01*
X30273Y704072D01*
X29939Y704206D01*
X29913Y704214D01*
X29888Y704223D01*
X29541Y704321D01*
X29195Y704420D01*
X29168Y704425D01*
X29143Y704432D01*
X28787Y704493D01*
X28432Y704556D01*
X28406Y704558D01*
X28379Y704562D01*
X28018Y704586D01*
X27660Y704612D01*
X27634Y704611D01*
X27607Y704613D01*
X27246Y704600D01*
X26886Y704589D01*
X26860Y704585D01*
X26833Y704584D01*
X26478Y704534D01*
X26119Y704486D01*
X26093Y704479D01*
X26066Y704476D01*
X25719Y704389D01*
X25366Y704304D01*
X25341Y704295D01*
X25315Y704289D01*
X24979Y704167D01*
X24636Y704046D01*
X24612Y704034D01*
X24587Y704025D01*
X24263Y703868D01*
X23937Y703713D01*
X23914Y703699D01*
X23890Y703688D01*
X23580Y703496D01*
X23275Y703311D01*
X23254Y703295D01*
X23231Y703281D01*
X22945Y703060D01*
X22659Y702842D01*
X22639Y702824D01*
X22618Y702808D01*
X22357Y702559D01*
X22094Y702312D01*
X22077Y702292D01*
X22057Y702274D01*
X21823Y701999D01*
X21587Y701727D01*
X21572Y701706D01*
X21554Y701685D01*
X21349Y701387D01*
X21143Y701093D01*
X21130Y701070D01*
X21115Y701048D01*
X20941Y700730D01*
X20767Y700416D01*
X20756Y700392D01*
X20743Y700368D01*
X20603Y700035D01*
X20462Y699704D01*
X20454Y699679D01*
X20444Y699654D01*
X20340Y699311D01*
X20233Y698965D01*
X20227Y698939D01*
X20220Y698913D01*
X20151Y698560D01*
X20081Y698206D01*
X20079Y698184D01*
X20073Y698153D01*
X20005Y697382D01*
X20008Y697216D01*
X20001Y697115D01*
X20001Y183257D01*
X20009Y183104D01*
X20007Y182950D01*
X20029Y182717D01*
X20041Y182484D01*
X20064Y182332D01*
X20079Y182179D01*
X20124Y181950D01*
X20160Y181719D01*
X20199Y181571D01*
X20229Y181420D01*
X20298Y181196D01*
X20358Y180970D01*
X20412Y180827D01*
X20458Y180680D01*
X20549Y180465D01*
X20632Y180246D01*
X20701Y180109D01*
X20761Y179967D01*
X20874Y179763D01*
X20979Y179554D01*
X21062Y179424D01*
X21136Y179290D01*
X21270Y179098D01*
X21396Y178901D01*
X21491Y178781D01*
X21579Y178655D01*
X21732Y178478D01*
X21877Y178295D01*
X21985Y178185D01*
X22085Y178069D01*
X22255Y177909D01*
X22419Y177742D01*
X22537Y177643D01*
X22649Y177538D01*
X22834Y177397D01*
X23015Y177247D01*
X23143Y177162D01*
X23265Y177069D01*
X23464Y176947D01*
X23658Y176817D01*
X23794Y176745D01*
X23925Y176665D01*
X24136Y176564D01*
X24343Y176455D01*
X24486Y176397D01*
X24624Y176331D01*
X24844Y176253D01*
X25061Y176166D01*
X25209Y176123D01*
X25354Y176072D01*
X25581Y176016D01*
X25805Y175952D01*
X25956Y175925D01*
X26106Y175889D01*
X26338Y175857D01*
X26568Y175816D01*
X26721Y175805D01*
X26873Y175784D01*
X27107Y175777D01*
X27340Y175760D01*
X27493Y175764D01*
X27647Y175759D01*
X27880Y175776D01*
X28114Y175783D01*
X28266Y175804D01*
X28419Y175815D01*
X28649Y175855D01*
X28881Y175886D01*
X29031Y175922D01*
X29182Y175949D01*
X29406Y176013D01*
X29634Y176068D01*
X29779Y176119D01*
X29927Y176161D01*
X30144Y176248D01*
X30364Y176326D01*
X30503Y176392D01*
X30645Y176449D01*
X30852Y176558D01*
X31063Y176659D01*
X31195Y176739D01*
X31330Y176810D01*
X31525Y176940D01*
X31725Y177061D01*
X31847Y177154D01*
X31975Y177239D01*
X32091Y177340D01*
X32341Y177530D01*
X32689Y177856D01*
X32803Y177954D01*
X47968Y193119D01*
X48017Y193174D01*
X48071Y193225D01*
X48276Y193462D01*
X48486Y193695D01*
X48530Y193754D01*
X48578Y193810D01*
X48758Y194066D01*
X48943Y194320D01*
X48980Y194384D01*
X49022Y194444D01*
X49174Y194718D01*
X49332Y194989D01*
X49363Y195056D01*
X49398Y195121D01*
X49501Y195361D01*
X56134Y201993D01*
X56148Y201936D01*
X56160Y201857D01*
X56238Y201560D01*
X56311Y201261D01*
X56337Y201185D01*
X56358Y201108D01*
X56466Y200822D01*
X56569Y200531D01*
X56603Y200459D01*
X56632Y200384D01*
X56769Y200110D01*
X56901Y199832D01*
X56943Y199763D01*
X56979Y199692D01*
X57144Y199433D01*
X57304Y199170D01*
X57352Y199107D01*
X57395Y199039D01*
X57586Y198799D01*
X57772Y198554D01*
X57827Y198495D01*
X57877Y198433D01*
X58092Y198213D01*
X58302Y197989D01*
X58363Y197937D01*
X58419Y197879D01*
X58655Y197683D01*
X58887Y197482D01*
X58953Y197436D01*
X59015Y197385D01*
X59270Y197214D01*
X59521Y197038D01*
X59592Y196999D01*
X59658Y196954D01*
X59930Y196811D01*
X60198Y196662D01*
X60272Y196630D01*
X60343Y196593D01*
X60628Y196478D01*
X60910Y196357D01*
X60987Y196333D01*
X61061Y196303D01*
X61356Y196219D01*
X61650Y196128D01*
X61728Y196112D01*
X61805Y196090D01*
X62107Y196036D01*
X62409Y195976D01*
X62472Y195971D01*
X62567Y195954D01*
X63340Y195897D01*
X63436Y195900D01*
X63500Y195896D01*
X63807Y195912D01*
X64114Y195921D01*
X64193Y195932D01*
X64273Y195936D01*
X64577Y195983D01*
X64881Y196024D01*
X64959Y196043D01*
X65038Y196055D01*
X65335Y196133D01*
X65634Y196206D01*
X65710Y196233D01*
X65787Y196253D01*
X66073Y196361D01*
X66364Y196464D01*
X66437Y196499D01*
X66511Y196527D01*
X66786Y196664D01*
X67063Y196796D01*
X67132Y196838D01*
X67203Y196874D01*
X67462Y197039D01*
X67725Y197199D01*
X67789Y197247D01*
X67856Y197291D01*
X68096Y197481D01*
X68341Y197668D01*
X68400Y197722D01*
X68462Y197772D01*
X68682Y197987D01*
X68906Y198197D01*
X68958Y198258D01*
X69016Y198314D01*
X69212Y198551D01*
X69413Y198782D01*
X69459Y198848D01*
X69510Y198910D01*
X69681Y199165D01*
X69857Y199417D01*
X69896Y199487D01*
X69941Y199553D01*
X70084Y199825D01*
X70233Y200093D01*
X70265Y200167D01*
X70302Y200238D01*
X70417Y200523D01*
X70538Y200805D01*
X70562Y200882D01*
X70592Y200956D01*
X70676Y201251D01*
X70768Y201545D01*
X70783Y201623D01*
X70805Y201700D01*
X70859Y202001D01*
X77922Y194937D01*
X77977Y194888D01*
X78027Y194834D01*
X78265Y194628D01*
X78497Y194419D01*
X78557Y194375D01*
X78612Y194327D01*
X78869Y194147D01*
X79123Y193962D01*
X79187Y193925D01*
X79247Y193883D01*
X79521Y193731D01*
X79792Y193573D01*
X79859Y193542D01*
X79923Y193507D01*
X80213Y193383D01*
X80498Y193254D01*
X80567Y193231D01*
X80635Y193202D01*
X80935Y193109D01*
X81233Y193010D01*
X81305Y192994D01*
X81375Y192973D01*
X81682Y192911D01*
X81989Y192843D01*
X82062Y192835D01*
X82134Y192821D01*
X82284Y192810D01*
X82758Y192755D01*
X83072Y192752D01*
X83225Y192741D01*
X86809Y192741D01*
X86888Y192732D01*
X87159Y192731D01*
X87302Y192721D01*
X104580Y192721D01*
X104887Y192737D01*
X105194Y192746D01*
X105273Y192757D01*
X105353Y192761D01*
X105656Y192808D01*
X105961Y192849D01*
X106039Y192868D01*
X106118Y192880D01*
X106415Y192958D01*
X106714Y193031D01*
X106790Y193058D01*
X106867Y193078D01*
X107153Y193186D01*
X107444Y193289D01*
X107516Y193324D01*
X107591Y193352D01*
X107865Y193489D01*
X108143Y193621D01*
X108212Y193663D01*
X108283Y193699D01*
X108542Y193864D01*
X108805Y194024D01*
X108868Y194072D01*
X108936Y194116D01*
X109176Y194306D01*
X109421Y194493D01*
X109480Y194547D01*
X109542Y194597D01*
X109762Y194812D01*
X109986Y195022D01*
X110038Y195083D01*
X110096Y195139D01*
X110292Y195376D01*
X110493Y195607D01*
X110539Y195673D01*
X110590Y195735D01*
X110761Y195990D01*
X110937Y196242D01*
X110976Y196312D01*
X111021Y196378D01*
X111164Y196650D01*
X111313Y196918D01*
X111345Y196992D01*
X111382Y197063D01*
X111497Y197348D01*
X111618Y197630D01*
X111642Y197707D01*
X111672Y197781D01*
X111756Y198076D01*
X111847Y198370D01*
X111863Y198448D01*
X111885Y198525D01*
X111939Y198827D01*
X111999Y199129D01*
X112004Y199193D01*
X112021Y199288D01*
X112078Y200060D01*
X112075Y200156D01*
X112079Y200220D01*
X112079Y201941D01*
X127343Y217204D01*
X127392Y217259D01*
X127446Y217309D01*
X127495Y217366D01*
X127529Y217399D01*
X127645Y217539D01*
X127651Y217547D01*
X127861Y217779D01*
X127905Y217839D01*
X127953Y217895D01*
X128023Y217995D01*
X128024Y217996D01*
X128133Y218152D01*
X128318Y218405D01*
X128355Y218469D01*
X128397Y218529D01*
X128550Y218803D01*
X128707Y219074D01*
X128738Y219141D01*
X128773Y219206D01*
X128897Y219495D01*
X129026Y219780D01*
X129049Y219850D01*
X129078Y219917D01*
X129171Y220218D01*
X129270Y220515D01*
X129286Y220586D01*
X129307Y220657D01*
X129369Y220965D01*
X129399Y221101D01*
X139700Y221101D01*
X150000Y221101D01*
X150020Y220969D01*
X150039Y220898D01*
X150052Y220825D01*
X150138Y220523D01*
X150218Y220220D01*
X150244Y220152D01*
X150264Y220081D01*
X150381Y219788D01*
X150492Y219496D01*
X150525Y219430D01*
X150552Y219362D01*
X150698Y219084D01*
X150839Y218804D01*
X150879Y218742D01*
X150913Y218677D01*
X151087Y218416D01*
X151256Y218151D01*
X151301Y218094D01*
X151342Y218032D01*
X151440Y217919D01*
X151595Y217724D01*
X151659Y217639D01*
X151678Y217619D01*
X151737Y217545D01*
X151957Y217321D01*
X152057Y217204D01*
X167321Y201941D01*
X167321Y179059D01*
X166529Y178268D01*
X166353Y178073D01*
X166171Y177883D01*
X166094Y177785D01*
X166011Y177693D01*
X165856Y177481D01*
X165694Y177273D01*
X165628Y177168D01*
X165554Y177067D01*
X165422Y176841D01*
X165282Y176618D01*
X165227Y176506D01*
X165165Y176398D01*
X165057Y176159D01*
X164941Y175923D01*
X164898Y175806D01*
X164846Y175692D01*
X164764Y175443D01*
X164673Y175196D01*
X164642Y175076D01*
X164602Y174958D01*
X164546Y174701D01*
X164481Y174446D01*
X164462Y174323D01*
X164436Y174201D01*
X164406Y173940D01*
X164367Y173680D01*
X164362Y173556D01*
X164347Y173432D01*
X164345Y173169D01*
X164333Y172907D01*
X164341Y172782D01*
X164339Y172658D01*
X164364Y172396D01*
X164379Y172134D01*
X164399Y172011D01*
X164411Y171887D01*
X164462Y171629D01*
X164505Y171370D01*
X164532Y171278D01*
X164562Y171127D01*
X164790Y170388D01*
X164806Y170349D01*
X164815Y170321D01*
X165179Y169354D01*
X165205Y169295D01*
X165225Y169234D01*
X165288Y169104D01*
X165489Y168645D01*
X165636Y168384D01*
X165702Y168249D01*
X166081Y167593D01*
X166480Y166103D01*
X166558Y165861D01*
X166628Y165617D01*
X166678Y165493D01*
X166719Y165366D01*
X166821Y165134D01*
X166916Y164898D01*
X166978Y164780D01*
X167032Y164658D01*
X167158Y164437D01*
X167277Y164213D01*
X167350Y164102D01*
X167392Y164030D01*
X167540Y162533D01*
X167549Y162470D01*
X167553Y162405D01*
X167580Y162263D01*
X167655Y161768D01*
X167730Y161478D01*
X167759Y161330D01*
X167955Y160599D01*
X167955Y158704D01*
X167989Y158033D01*
X167991Y157966D01*
X168178Y156081D01*
X168054Y155334D01*
X168047Y155269D01*
X168035Y155206D01*
X168024Y155062D01*
X167968Y154564D01*
X167966Y154265D01*
X167955Y154115D01*
X167955Y153357D01*
X167576Y151945D01*
X167566Y151899D01*
X167553Y151854D01*
X167486Y151521D01*
X167415Y151188D01*
X167410Y151141D01*
X167401Y151095D01*
X167391Y150970D01*
X167332Y150418D01*
X167331Y150147D01*
X167321Y150004D01*
X167321Y140959D01*
X165014Y138653D01*
X164808Y138424D01*
X164598Y138201D01*
X164550Y138137D01*
X164496Y138078D01*
X164315Y137829D01*
X164128Y137585D01*
X164087Y137517D01*
X164039Y137452D01*
X163885Y137187D01*
X163725Y136925D01*
X163690Y136852D01*
X163650Y136783D01*
X163523Y136503D01*
X163391Y136226D01*
X163364Y136150D01*
X163331Y136077D01*
X163235Y135786D01*
X163132Y135496D01*
X163113Y135418D01*
X163087Y135342D01*
X163021Y135043D01*
X162949Y134744D01*
X162938Y134664D01*
X162921Y134586D01*
X162886Y134281D01*
X162844Y133977D01*
X162842Y133897D01*
X162832Y133817D01*
X162829Y133510D01*
X162819Y133203D01*
X162825Y133123D01*
X162824Y133043D01*
X162853Y132737D01*
X162874Y132431D01*
X162888Y132352D01*
X162896Y132272D01*
X162956Y131971D01*
X163009Y131668D01*
X163031Y131591D01*
X163047Y131512D01*
X163137Y131219D01*
X163221Y130923D01*
X163251Y130849D01*
X163275Y130773D01*
X163395Y130491D01*
X163509Y130205D01*
X163547Y130134D01*
X163578Y130060D01*
X163727Y129791D01*
X163870Y129520D01*
X163914Y129453D01*
X163953Y129383D01*
X164129Y129131D01*
X164299Y128875D01*
X164341Y128827D01*
X164396Y128748D01*
X164902Y128162D01*
X164973Y128095D01*
X165014Y128047D01*
X167321Y125741D01*
X167321Y114260D01*
X167344Y113803D01*
X167346Y113649D01*
X167406Y112914D01*
X167401Y112887D01*
X167389Y112728D01*
X167343Y112373D01*
X167332Y111955D01*
X167321Y111796D01*
X167321Y66226D01*
X167329Y66058D01*
X167328Y65891D01*
X167346Y65743D01*
X167361Y65453D01*
X167394Y65238D01*
X167340Y64473D01*
X167332Y64100D01*
X167321Y63940D01*
X167321Y39196D01*
X167361Y38423D01*
X167372Y38351D01*
X167374Y38302D01*
X167436Y37786D01*
X167396Y37508D01*
X167326Y36737D01*
X167329Y36554D01*
X167321Y36445D01*
X167321Y27500D01*
X167337Y27193D01*
X167346Y26886D01*
X167357Y26807D01*
X167361Y26727D01*
X167408Y26423D01*
X167449Y26119D01*
X167468Y26041D01*
X167480Y25962D01*
X167558Y25665D01*
X167631Y25366D01*
X167658Y25290D01*
X167678Y25213D01*
X167786Y24927D01*
X167889Y24636D01*
X167924Y24564D01*
X167952Y24489D01*
X168089Y24215D01*
X168221Y23937D01*
X168263Y23868D01*
X168299Y23797D01*
X168464Y23538D01*
X168624Y23275D01*
X168672Y23212D01*
X168716Y23144D01*
X168906Y22904D01*
X169093Y22659D01*
X169147Y22600D01*
X169197Y22538D01*
X169412Y22318D01*
X169622Y22094D01*
X169683Y22042D01*
X169739Y21984D01*
X169976Y21788D01*
X170207Y21587D01*
X170273Y21541D01*
X170335Y21490D01*
X170590Y21319D01*
X170842Y21143D01*
X170912Y21104D01*
X170978Y21059D01*
X171250Y20916D01*
X171518Y20767D01*
X171592Y20735D01*
X171663Y20698D01*
X171948Y20583D01*
X172230Y20462D01*
X172307Y20438D01*
X172381Y20408D01*
X172676Y20324D01*
X172970Y20233D01*
X173048Y20217D01*
X173125Y20195D01*
X173427Y20141D01*
X173729Y20081D01*
X173793Y20076D01*
X173888Y20059D01*
X174660Y20002D01*
X174756Y20005D01*
X174820Y20001D01*
X180780Y20001D01*
X181087Y20017D01*
G37*
G36*
X735720Y20012D02*
X735720Y20012D01*
X735933Y20013D01*
X736106Y20032D01*
X736279Y20041D01*
X736491Y20074D01*
X736703Y20097D01*
X736873Y20133D01*
X737044Y20160D01*
X737251Y20215D01*
X737460Y20260D01*
X737625Y20314D01*
X737793Y20358D01*
X737993Y20433D01*
X738196Y20500D01*
X738355Y20570D01*
X738517Y20632D01*
X738708Y20728D01*
X738904Y20815D01*
X739054Y20901D01*
X739209Y20979D01*
X739389Y21094D01*
X739575Y21200D01*
X739716Y21302D01*
X739862Y21396D01*
X740029Y21528D01*
X740203Y21654D01*
X740332Y21769D01*
X740468Y21877D01*
X740621Y22027D01*
X740781Y22169D01*
X740897Y22297D01*
X741022Y22419D01*
X741159Y22584D01*
X741302Y22741D01*
X741405Y22881D01*
X741516Y23015D01*
X741635Y23193D01*
X741762Y23364D01*
X741850Y23514D01*
X741947Y23658D01*
X742047Y23847D01*
X742155Y24031D01*
X742227Y24189D01*
X742308Y24343D01*
X742388Y24541D01*
X742477Y24736D01*
X742533Y24900D01*
X742598Y25061D01*
X742657Y25267D01*
X742725Y25469D01*
X742763Y25638D01*
X742811Y25805D01*
X742849Y26016D01*
X742896Y26224D01*
X742917Y26397D01*
X742947Y26568D01*
X742963Y26781D01*
X742988Y26993D01*
X742991Y27167D01*
X743004Y27340D01*
X742997Y27553D01*
X743001Y27767D01*
X742986Y27940D01*
X742980Y28114D01*
X742952Y28326D01*
X742933Y28539D01*
X742900Y28709D01*
X742877Y28881D01*
X742827Y29089D01*
X742786Y29299D01*
X742736Y29465D01*
X742695Y29634D01*
X742624Y29836D01*
X742562Y30040D01*
X742495Y30200D01*
X742437Y30364D01*
X742345Y30557D01*
X742263Y30754D01*
X742200Y30863D01*
X742105Y31063D01*
X741744Y31655D01*
X741717Y31702D01*
X741452Y32094D01*
X741352Y32228D01*
X741259Y32367D01*
X741161Y32479D01*
X740986Y32712D01*
X740635Y33089D01*
X740544Y33195D01*
X734379Y39359D01*
X734363Y39665D01*
X734354Y39972D01*
X734343Y40051D01*
X734339Y40131D01*
X734292Y40434D01*
X734251Y40739D01*
X734232Y40817D01*
X734220Y40896D01*
X734142Y41193D01*
X734069Y41492D01*
X734042Y41568D01*
X734022Y41645D01*
X733914Y41931D01*
X733811Y42222D01*
X733776Y42294D01*
X733748Y42369D01*
X733611Y42643D01*
X733479Y42921D01*
X733437Y42990D01*
X733401Y43061D01*
X733236Y43320D01*
X733076Y43583D01*
X733028Y43646D01*
X732984Y43714D01*
X732794Y43954D01*
X732607Y44199D01*
X732553Y44258D01*
X732503Y44320D01*
X732288Y44540D01*
X732078Y44764D01*
X732017Y44816D01*
X731961Y44874D01*
X731724Y45070D01*
X731493Y45271D01*
X731427Y45317D01*
X731365Y45368D01*
X731110Y45539D01*
X730858Y45715D01*
X730788Y45754D01*
X730722Y45799D01*
X730450Y45942D01*
X730182Y46091D01*
X730108Y46123D01*
X730037Y46160D01*
X729752Y46275D01*
X729470Y46396D01*
X729393Y46420D01*
X729319Y46450D01*
X729024Y46534D01*
X728730Y46625D01*
X728652Y46641D01*
X728575Y46663D01*
X728273Y46717D01*
X727971Y46777D01*
X727907Y46782D01*
X727812Y46799D01*
X727040Y46856D01*
X726944Y46853D01*
X726880Y46857D01*
X719211Y46857D01*
X719103Y46852D01*
X719033Y46855D01*
X715709Y46776D01*
X715701Y46777D01*
X715666Y46780D01*
X715617Y46789D01*
X715341Y46812D01*
X712079Y47686D01*
X711973Y47709D01*
X711906Y47731D01*
X709278Y48368D01*
X708939Y48432D01*
X708602Y48499D01*
X708567Y48502D01*
X708517Y48511D01*
X707746Y48576D01*
X707601Y48573D01*
X707584Y48574D01*
X704163Y49491D01*
X703889Y49549D01*
X703616Y49615D01*
X703510Y49630D01*
X703405Y49652D01*
X703126Y49682D01*
X702849Y49720D01*
X702742Y49723D01*
X702636Y49735D01*
X702355Y49736D01*
X702075Y49745D01*
X701968Y49737D01*
X701861Y49737D01*
X701582Y49709D01*
X701302Y49690D01*
X701197Y49671D01*
X701091Y49660D01*
X700816Y49604D01*
X700540Y49555D01*
X700437Y49526D01*
X700332Y49504D01*
X700066Y49420D01*
X699795Y49343D01*
X699696Y49303D01*
X699594Y49271D01*
X699338Y49159D01*
X699076Y49055D01*
X698982Y49005D01*
X698884Y48962D01*
X698640Y48825D01*
X698391Y48694D01*
X698302Y48635D01*
X698209Y48582D01*
X697980Y48420D01*
X697747Y48265D01*
X697684Y48210D01*
X697577Y48135D01*
X696995Y47625D01*
X696952Y47578D01*
X696919Y47550D01*
X693299Y43930D01*
X693299Y50800D01*
X693284Y51107D01*
X693274Y51413D01*
X693264Y51493D01*
X693259Y51573D01*
X693212Y51876D01*
X693171Y52181D01*
X693152Y52259D01*
X693140Y52338D01*
X693062Y52634D01*
X692989Y52934D01*
X692963Y53009D01*
X692942Y53087D01*
X692834Y53373D01*
X692731Y53663D01*
X692697Y53736D01*
X692668Y53811D01*
X692531Y54085D01*
X692399Y54363D01*
X692357Y54431D01*
X692321Y54503D01*
X692156Y54762D01*
X691996Y55024D01*
X691948Y55088D01*
X691905Y55156D01*
X691714Y55396D01*
X691528Y55641D01*
X691473Y55699D01*
X691423Y55762D01*
X691208Y55981D01*
X690998Y56205D01*
X690998Y56206D01*
X690997Y56206D01*
X690937Y56258D01*
X690906Y56290D01*
X690881Y56316D01*
X690644Y56512D01*
X690412Y56713D01*
X690347Y56759D01*
X690285Y56810D01*
X690029Y56981D01*
X689778Y57157D01*
X689708Y57196D01*
X689641Y57241D01*
X689370Y57384D01*
X689101Y57533D01*
X689028Y57565D01*
X688957Y57602D01*
X688672Y57717D01*
X688389Y57838D01*
X688313Y57862D01*
X688239Y57892D01*
X687943Y57976D01*
X687650Y58068D01*
X687571Y58083D01*
X687494Y58105D01*
X687192Y58159D01*
X686891Y58220D01*
X686827Y58224D01*
X686732Y58241D01*
X685960Y58298D01*
X685863Y58295D01*
X685800Y58299D01*
X678930Y58299D01*
X682550Y61919D01*
X682738Y62128D01*
X682931Y62330D01*
X682997Y62415D01*
X683068Y62494D01*
X683233Y62721D01*
X683405Y62942D01*
X683462Y63033D01*
X683525Y63120D01*
X683666Y63362D01*
X683814Y63600D01*
X683860Y63696D01*
X683914Y63789D01*
X684030Y64044D01*
X684152Y64297D01*
X684189Y64397D01*
X684233Y64494D01*
X684321Y64761D01*
X684417Y65024D01*
X684443Y65128D01*
X684477Y65229D01*
X684537Y65504D01*
X684605Y65775D01*
X684620Y65881D01*
X684643Y65985D01*
X684675Y66264D01*
X684715Y66542D01*
X684719Y66649D01*
X684732Y66755D01*
X684735Y67035D01*
X684745Y67316D01*
X684739Y67422D01*
X684740Y67529D01*
X684714Y67809D01*
X684696Y68088D01*
X684680Y68170D01*
X684668Y68300D01*
X684517Y69059D01*
X684499Y69120D01*
X684491Y69163D01*
X683579Y72564D01*
X683579Y79836D01*
X685462Y86861D01*
X689098Y93159D01*
X694241Y98302D01*
X700539Y101938D01*
X707564Y103821D01*
X714521Y103821D01*
X714594Y103825D01*
X714668Y103822D01*
X714981Y103845D01*
X715294Y103861D01*
X715366Y103872D01*
X715440Y103877D01*
X715749Y103932D01*
X716059Y103980D01*
X716130Y103999D01*
X716202Y104012D01*
X716505Y104098D01*
X716807Y104178D01*
X716876Y104204D01*
X716947Y104224D01*
X717238Y104341D01*
X717532Y104452D01*
X717597Y104485D01*
X717666Y104512D01*
X717943Y104658D01*
X718224Y104799D01*
X718286Y104839D01*
X718351Y104873D01*
X718612Y105047D01*
X718876Y105216D01*
X718934Y105261D01*
X718995Y105302D01*
X719109Y105400D01*
X719483Y105697D01*
X719707Y105917D01*
X719823Y106017D01*
X722664Y108858D01*
X722715Y108914D01*
X722770Y108966D01*
X722974Y109202D01*
X723183Y109433D01*
X723227Y109494D01*
X723277Y109551D01*
X723456Y109807D01*
X723639Y110059D01*
X723677Y110124D01*
X723720Y110186D01*
X723872Y110459D01*
X724029Y110728D01*
X724060Y110796D01*
X724096Y110863D01*
X724219Y111150D01*
X724347Y111434D01*
X724371Y111505D01*
X724401Y111575D01*
X724493Y111873D01*
X724591Y112168D01*
X724608Y112242D01*
X724630Y112314D01*
X724691Y112619D01*
X724758Y112925D01*
X724767Y113000D01*
X724782Y113073D01*
X724811Y113384D01*
X724846Y113694D01*
X724847Y113769D01*
X724854Y113844D01*
X724851Y114156D01*
X724855Y114468D01*
X724848Y114543D01*
X724847Y114619D01*
X724812Y114929D01*
X724783Y115239D01*
X724768Y115313D01*
X724760Y115388D01*
X724693Y115692D01*
X724632Y115999D01*
X724610Y116071D01*
X724594Y116144D01*
X724496Y116440D01*
X724404Y116738D01*
X724374Y116808D01*
X724351Y116879D01*
X724223Y117164D01*
X724101Y117451D01*
X724064Y117517D01*
X724033Y117586D01*
X723876Y117856D01*
X723725Y118128D01*
X723682Y118190D01*
X723644Y118255D01*
X723461Y118508D01*
X723282Y118763D01*
X723233Y118820D01*
X723189Y118881D01*
X722980Y119113D01*
X722776Y119349D01*
X722721Y119401D01*
X722671Y119457D01*
X722440Y119666D01*
X722213Y119880D01*
X722152Y119926D01*
X722097Y119976D01*
X721845Y120161D01*
X721597Y120350D01*
X721533Y120389D01*
X721472Y120434D01*
X721202Y120591D01*
X720936Y120753D01*
X720868Y120786D01*
X720803Y120824D01*
X720519Y120952D01*
X720237Y121087D01*
X720166Y121112D01*
X720098Y121143D01*
X719803Y121242D01*
X719508Y121347D01*
X719434Y121364D01*
X719363Y121388D01*
X719059Y121456D01*
X718756Y121530D01*
X718681Y121540D01*
X718607Y121556D01*
X718297Y121592D01*
X717988Y121634D01*
X717913Y121636D01*
X717838Y121645D01*
X717687Y121644D01*
X717214Y121659D01*
X716898Y121636D01*
X716744Y121635D01*
X715933Y121568D01*
X715809Y121551D01*
X715684Y121543D01*
X715527Y121513D01*
X715166Y121464D01*
X714767Y121368D01*
X714609Y121338D01*
X714152Y121215D01*
X711975Y121215D01*
X711510Y121191D01*
X711358Y121190D01*
X709188Y121011D01*
X708723Y121095D01*
X708598Y121111D01*
X708476Y121135D01*
X708316Y121147D01*
X707955Y121194D01*
X707544Y121204D01*
X707385Y121215D01*
X706911Y121215D01*
X704808Y121779D01*
X704353Y121876D01*
X704205Y121914D01*
X702063Y122302D01*
X701635Y122504D01*
X701519Y122552D01*
X701407Y122608D01*
X701256Y122660D01*
X700919Y122798D01*
X700525Y122914D01*
X700374Y122967D01*
X699917Y123089D01*
X698032Y124178D01*
X697617Y124390D01*
X697484Y124465D01*
X695541Y125382D01*
X695352Y125460D01*
X695165Y125547D01*
X694993Y125607D01*
X694825Y125676D01*
X694628Y125734D01*
X694434Y125802D01*
X694257Y125843D01*
X694082Y125895D01*
X693880Y125932D01*
X693680Y125979D01*
X693500Y126003D01*
X693321Y126036D01*
X693116Y126052D01*
X692912Y126078D01*
X692730Y126083D01*
X692549Y126097D01*
X692343Y126093D01*
X692138Y126098D01*
X691957Y126083D01*
X691775Y126079D01*
X691571Y126053D01*
X691366Y126037D01*
X691187Y126004D01*
X691007Y125981D01*
X690807Y125934D01*
X690605Y125897D01*
X690430Y125846D01*
X690253Y125804D01*
X690059Y125737D01*
X689862Y125679D01*
X689693Y125610D01*
X689521Y125551D01*
X689335Y125464D01*
X689145Y125386D01*
X688985Y125300D01*
X688820Y125223D01*
X688643Y125118D01*
X688463Y125021D01*
X688312Y124919D01*
X688155Y124825D01*
X687991Y124702D01*
X687821Y124587D01*
X687682Y124470D01*
X687536Y124360D01*
X687386Y124221D01*
X687228Y124089D01*
X687101Y123958D01*
X686968Y123835D01*
X686832Y123680D01*
X686689Y123533D01*
X686577Y123389D01*
X686457Y123253D01*
X686338Y123086D01*
X686211Y122924D01*
X686114Y122770D01*
X686008Y122621D01*
X685907Y122443D01*
X685798Y122269D01*
X685717Y122106D01*
X685628Y121947D01*
X685546Y121759D01*
X685455Y121575D01*
X685412Y121451D01*
X685318Y121237D01*
X685121Y120616D01*
X685095Y120542D01*
X683732Y115454D01*
X679828Y108693D01*
X674307Y103172D01*
X667546Y99268D01*
X660004Y97247D01*
X652196Y97247D01*
X644654Y99268D01*
X637893Y103172D01*
X632372Y108693D01*
X628468Y115454D01*
X626447Y122996D01*
X626447Y130804D01*
X628468Y138346D01*
X632372Y145107D01*
X634262Y146997D01*
X634468Y147226D01*
X634678Y147449D01*
X634727Y147513D01*
X634780Y147572D01*
X634962Y147820D01*
X635148Y148065D01*
X635190Y148133D01*
X635237Y148198D01*
X635391Y148463D01*
X635552Y148725D01*
X635586Y148798D01*
X635626Y148867D01*
X635753Y149147D01*
X635885Y149424D01*
X635912Y149500D01*
X635945Y149573D01*
X636042Y149864D01*
X636145Y150154D01*
X636164Y150231D01*
X636189Y150307D01*
X636255Y150607D01*
X636328Y150906D01*
X636339Y150985D01*
X636356Y151064D01*
X636391Y151369D01*
X636432Y151673D01*
X636435Y151753D01*
X636444Y151833D01*
X636447Y152140D01*
X636457Y152447D01*
X636451Y152527D01*
X636452Y152607D01*
X636424Y152913D01*
X636402Y153219D01*
X636388Y153299D01*
X636381Y153378D01*
X636321Y153679D01*
X636267Y153982D01*
X636245Y154059D01*
X636230Y154138D01*
X636139Y154431D01*
X636055Y154727D01*
X636025Y154801D01*
X636002Y154877D01*
X635881Y155160D01*
X635767Y155445D01*
X635730Y155516D01*
X635698Y155590D01*
X635549Y155859D01*
X635406Y156130D01*
X635362Y156197D01*
X635323Y156267D01*
X635147Y156520D01*
X634977Y156775D01*
X634935Y156823D01*
X634880Y156902D01*
X634374Y157488D01*
X634304Y157555D01*
X634262Y157603D01*
X632372Y159493D01*
X628468Y166254D01*
X626447Y173796D01*
X626447Y181604D01*
X628284Y188459D01*
X628337Y188708D01*
X628399Y188954D01*
X628418Y189086D01*
X628446Y189216D01*
X628473Y189468D01*
X628509Y189720D01*
X628514Y189854D01*
X628528Y189986D01*
X628529Y190240D01*
X628539Y190494D01*
X628531Y190627D01*
X628531Y190760D01*
X628506Y191013D01*
X628489Y191266D01*
X628470Y191366D01*
X628454Y191531D01*
X628298Y192289D01*
X628288Y192319D01*
X628284Y192341D01*
X626447Y199196D01*
X626447Y207004D01*
X628284Y213859D01*
X628337Y214108D01*
X628399Y214354D01*
X628418Y214486D01*
X628446Y214616D01*
X628473Y214868D01*
X628509Y215120D01*
X628514Y215254D01*
X628528Y215386D01*
X628529Y215640D01*
X628539Y215894D01*
X628531Y216027D01*
X628531Y216160D01*
X628506Y216413D01*
X628489Y216666D01*
X628470Y216766D01*
X628454Y216931D01*
X628298Y217689D01*
X628288Y217719D01*
X628284Y217741D01*
X626447Y224596D01*
X626447Y232404D01*
X628284Y239259D01*
X628337Y239508D01*
X628399Y239754D01*
X628418Y239886D01*
X628446Y240016D01*
X628473Y240268D01*
X628509Y240520D01*
X628514Y240654D01*
X628528Y240786D01*
X628529Y241040D01*
X628539Y241294D01*
X628531Y241427D01*
X628531Y241560D01*
X628506Y241813D01*
X628489Y242066D01*
X628470Y242166D01*
X628454Y242331D01*
X628298Y243089D01*
X628288Y243119D01*
X628284Y243141D01*
X626447Y249996D01*
X626447Y257804D01*
X628284Y264659D01*
X628337Y264908D01*
X628399Y265154D01*
X628418Y265286D01*
X628446Y265416D01*
X628473Y265668D01*
X628509Y265920D01*
X628514Y266054D01*
X628528Y266186D01*
X628529Y266440D01*
X628539Y266694D01*
X628531Y266827D01*
X628531Y266960D01*
X628506Y267213D01*
X628489Y267466D01*
X628470Y267566D01*
X628454Y267731D01*
X628298Y268489D01*
X628288Y268519D01*
X628284Y268541D01*
X626447Y275396D01*
X626447Y283204D01*
X628284Y290059D01*
X628337Y290308D01*
X628399Y290554D01*
X628418Y290686D01*
X628446Y290816D01*
X628473Y291068D01*
X628509Y291320D01*
X628514Y291454D01*
X628528Y291586D01*
X628529Y291840D01*
X628539Y292094D01*
X628531Y292227D01*
X628531Y292360D01*
X628506Y292613D01*
X628489Y292866D01*
X628470Y292966D01*
X628454Y293131D01*
X628298Y293889D01*
X628288Y293919D01*
X628284Y293941D01*
X626447Y300796D01*
X626447Y308604D01*
X628284Y315459D01*
X628337Y315708D01*
X628399Y315954D01*
X628418Y316086D01*
X628446Y316216D01*
X628473Y316468D01*
X628509Y316720D01*
X628514Y316854D01*
X628528Y316986D01*
X628529Y317240D01*
X628539Y317494D01*
X628531Y317627D01*
X628531Y317760D01*
X628506Y318013D01*
X628489Y318266D01*
X628470Y318366D01*
X628454Y318531D01*
X628298Y319289D01*
X628288Y319319D01*
X628284Y319341D01*
X626447Y326196D01*
X626447Y334004D01*
X627148Y336621D01*
X627207Y336895D01*
X627273Y337168D01*
X627288Y337274D01*
X627310Y337378D01*
X627340Y337657D01*
X627378Y337935D01*
X627381Y338042D01*
X627393Y338148D01*
X627394Y338428D01*
X627403Y338709D01*
X627395Y338815D01*
X627395Y338922D01*
X627367Y339201D01*
X627347Y339481D01*
X627329Y339587D01*
X627318Y339693D01*
X627262Y339967D01*
X627213Y340244D01*
X627184Y340347D01*
X627162Y340451D01*
X627078Y340718D01*
X627001Y340988D01*
X626961Y341088D01*
X626929Y341189D01*
X626817Y341446D01*
X626713Y341707D01*
X626663Y341802D01*
X626620Y341900D01*
X626483Y342144D01*
X626352Y342392D01*
X626293Y342481D01*
X626240Y342574D01*
X626078Y342804D01*
X625923Y343037D01*
X625868Y343100D01*
X625793Y343206D01*
X625282Y343789D01*
X625236Y343832D01*
X625208Y343865D01*
X494787Y474285D01*
X494733Y474334D01*
X494682Y474388D01*
X494445Y474593D01*
X494212Y474803D01*
X494153Y474847D01*
X494097Y474895D01*
X493840Y475075D01*
X493587Y475260D01*
X493523Y475297D01*
X493463Y475339D01*
X493189Y475491D01*
X492918Y475649D01*
X492851Y475680D01*
X492786Y475715D01*
X492498Y475839D01*
X492212Y475968D01*
X492142Y475991D01*
X492074Y476020D01*
X491775Y476113D01*
X491477Y476212D01*
X491405Y476228D01*
X491335Y476249D01*
X491027Y476311D01*
X490721Y476379D01*
X490648Y476387D01*
X490576Y476401D01*
X490425Y476412D01*
X489952Y476467D01*
X489638Y476470D01*
X489485Y476481D01*
X437329Y476481D01*
X437202Y476475D01*
X437075Y476477D01*
X436816Y476455D01*
X436555Y476441D01*
X436430Y476422D01*
X436303Y476411D01*
X436048Y476362D01*
X435790Y476322D01*
X435668Y476289D01*
X435543Y476266D01*
X435293Y476190D01*
X435042Y476124D01*
X434923Y476079D01*
X434801Y476043D01*
X434561Y475942D01*
X434318Y475850D01*
X434204Y475793D01*
X434087Y475744D01*
X433858Y475620D01*
X433625Y475503D01*
X433518Y475435D01*
X433407Y475374D01*
X433192Y475226D01*
X432973Y475086D01*
X432874Y475008D01*
X432769Y474936D01*
X432570Y474766D01*
X432367Y474605D01*
X432276Y474516D01*
X432179Y474434D01*
X431999Y474245D01*
X431813Y474063D01*
X431732Y473965D01*
X431644Y473874D01*
X431485Y473668D01*
X431319Y473467D01*
X431248Y473362D01*
X431170Y473261D01*
X431033Y473040D01*
X430888Y472824D01*
X430829Y472712D01*
X430762Y472603D01*
X430648Y472369D01*
X430526Y472139D01*
X430479Y472021D01*
X430423Y471907D01*
X430334Y471662D01*
X430237Y471421D01*
X430202Y471299D01*
X430159Y471179D01*
X430095Y470926D01*
X430024Y470677D01*
X430001Y470552D01*
X429970Y470428D01*
X429933Y470170D01*
X429888Y469914D01*
X429878Y469788D01*
X429860Y469662D01*
X429850Y469401D01*
X429831Y469142D01*
X429835Y469015D01*
X429830Y468888D01*
X429847Y468629D01*
X429855Y468368D01*
X429872Y468242D01*
X429880Y468116D01*
X429910Y467959D01*
X429958Y467601D01*
X430055Y467198D01*
X430085Y467041D01*
X431703Y461004D01*
X431703Y453196D01*
X429866Y446341D01*
X429813Y446092D01*
X429751Y445846D01*
X429732Y445714D01*
X429704Y445584D01*
X429677Y445331D01*
X429641Y445080D01*
X429636Y444946D01*
X429622Y444814D01*
X429621Y444560D01*
X429611Y444306D01*
X429619Y444173D01*
X429619Y444039D01*
X429644Y443787D01*
X429661Y443534D01*
X429680Y443434D01*
X429696Y443269D01*
X429852Y442511D01*
X429862Y442481D01*
X429866Y442459D01*
X431703Y435604D01*
X431703Y427796D01*
X429866Y420941D01*
X429813Y420692D01*
X429751Y420446D01*
X429732Y420314D01*
X429704Y420184D01*
X429677Y419931D01*
X429641Y419680D01*
X429636Y419546D01*
X429622Y419414D01*
X429621Y419160D01*
X429611Y418906D01*
X429619Y418773D01*
X429619Y418639D01*
X429644Y418387D01*
X429661Y418134D01*
X429680Y418034D01*
X429696Y417869D01*
X429852Y417111D01*
X429862Y417081D01*
X429866Y417059D01*
X431703Y410204D01*
X431703Y402396D01*
X429866Y395541D01*
X429813Y395292D01*
X429751Y395046D01*
X429732Y394914D01*
X429704Y394784D01*
X429677Y394531D01*
X429641Y394280D01*
X429636Y394146D01*
X429622Y394014D01*
X429621Y393760D01*
X429611Y393506D01*
X429619Y393373D01*
X429619Y393239D01*
X429644Y392987D01*
X429661Y392734D01*
X429680Y392634D01*
X429696Y392469D01*
X429852Y391711D01*
X429862Y391681D01*
X429866Y391659D01*
X431703Y384804D01*
X431703Y376996D01*
X429866Y370141D01*
X429813Y369892D01*
X429751Y369646D01*
X429732Y369514D01*
X429704Y369384D01*
X429677Y369131D01*
X429641Y368880D01*
X429636Y368746D01*
X429622Y368614D01*
X429621Y368360D01*
X429611Y368106D01*
X429619Y367973D01*
X429619Y367839D01*
X429644Y367587D01*
X429661Y367334D01*
X429680Y367234D01*
X429696Y367069D01*
X429852Y366311D01*
X429862Y366281D01*
X429866Y366259D01*
X431703Y359404D01*
X431703Y351596D01*
X429866Y344741D01*
X429813Y344492D01*
X429751Y344246D01*
X429732Y344114D01*
X429704Y343984D01*
X429677Y343731D01*
X429641Y343480D01*
X429636Y343346D01*
X429622Y343214D01*
X429621Y342960D01*
X429611Y342706D01*
X429619Y342573D01*
X429619Y342439D01*
X429644Y342187D01*
X429661Y341934D01*
X429680Y341834D01*
X429696Y341669D01*
X429852Y340911D01*
X429862Y340881D01*
X429866Y340859D01*
X431703Y334004D01*
X431703Y326196D01*
X429866Y319341D01*
X429813Y319092D01*
X429751Y318846D01*
X429732Y318714D01*
X429704Y318584D01*
X429677Y318331D01*
X429641Y318080D01*
X429636Y317946D01*
X429622Y317814D01*
X429621Y317560D01*
X429611Y317306D01*
X429619Y317173D01*
X429619Y317039D01*
X429644Y316787D01*
X429661Y316534D01*
X429680Y316434D01*
X429696Y316269D01*
X429852Y315511D01*
X429862Y315481D01*
X429866Y315459D01*
X431703Y308604D01*
X431703Y300796D01*
X429866Y293941D01*
X429813Y293692D01*
X429751Y293446D01*
X429732Y293314D01*
X429704Y293184D01*
X429677Y292931D01*
X429641Y292680D01*
X429636Y292546D01*
X429622Y292414D01*
X429621Y292160D01*
X429611Y291906D01*
X429619Y291773D01*
X429619Y291639D01*
X429644Y291387D01*
X429661Y291134D01*
X429680Y291034D01*
X429696Y290869D01*
X429852Y290111D01*
X429862Y290081D01*
X429866Y290059D01*
X431703Y283204D01*
X431703Y275396D01*
X429866Y268541D01*
X429813Y268292D01*
X429751Y268046D01*
X429732Y267914D01*
X429704Y267784D01*
X429677Y267531D01*
X429641Y267280D01*
X429636Y267146D01*
X429622Y267014D01*
X429621Y266760D01*
X429611Y266506D01*
X429619Y266373D01*
X429619Y266239D01*
X429644Y265987D01*
X429661Y265734D01*
X429680Y265634D01*
X429696Y265469D01*
X429852Y264711D01*
X429862Y264681D01*
X429866Y264659D01*
X431703Y257804D01*
X431703Y249996D01*
X429866Y243141D01*
X429813Y242892D01*
X429751Y242646D01*
X429732Y242514D01*
X429704Y242384D01*
X429677Y242131D01*
X429641Y241880D01*
X429636Y241746D01*
X429622Y241614D01*
X429621Y241360D01*
X429611Y241106D01*
X429619Y240973D01*
X429619Y240839D01*
X429644Y240587D01*
X429661Y240334D01*
X429680Y240234D01*
X429696Y240069D01*
X429852Y239311D01*
X429862Y239281D01*
X429866Y239259D01*
X431703Y232404D01*
X431703Y224596D01*
X429866Y217741D01*
X429813Y217492D01*
X429751Y217246D01*
X429732Y217114D01*
X429704Y216984D01*
X429677Y216731D01*
X429641Y216480D01*
X429636Y216346D01*
X429622Y216214D01*
X429621Y215960D01*
X429611Y215706D01*
X429619Y215573D01*
X429619Y215439D01*
X429644Y215187D01*
X429661Y214934D01*
X429680Y214834D01*
X429696Y214669D01*
X429852Y213911D01*
X429862Y213881D01*
X429866Y213859D01*
X431703Y207004D01*
X431703Y199196D01*
X429866Y192341D01*
X429813Y192092D01*
X429751Y191846D01*
X429732Y191714D01*
X429704Y191584D01*
X429677Y191331D01*
X429641Y191080D01*
X429636Y190946D01*
X429622Y190814D01*
X429621Y190560D01*
X429611Y190306D01*
X429619Y190173D01*
X429619Y190039D01*
X429644Y189787D01*
X429661Y189534D01*
X429680Y189434D01*
X429696Y189269D01*
X429852Y188511D01*
X429862Y188481D01*
X429866Y188459D01*
X431703Y181604D01*
X431703Y173796D01*
X429682Y166254D01*
X425778Y159493D01*
X423888Y157603D01*
X423682Y157374D01*
X423472Y157151D01*
X423423Y157087D01*
X423370Y157028D01*
X423188Y156779D01*
X423002Y156535D01*
X422960Y156467D01*
X422913Y156402D01*
X422758Y156136D01*
X422598Y155875D01*
X422564Y155802D01*
X422524Y155733D01*
X422397Y155453D01*
X422265Y155176D01*
X422238Y155100D01*
X422205Y155027D01*
X422108Y154735D01*
X422005Y154446D01*
X421986Y154369D01*
X421961Y154292D01*
X421895Y153992D01*
X421822Y153694D01*
X421811Y153614D01*
X421794Y153536D01*
X421759Y153231D01*
X421718Y152927D01*
X421715Y152847D01*
X421706Y152767D01*
X421703Y152460D01*
X421693Y152153D01*
X421699Y152073D01*
X421698Y151993D01*
X421726Y151686D01*
X421748Y151380D01*
X421762Y151302D01*
X421769Y151222D01*
X421829Y150920D01*
X421883Y150618D01*
X421905Y150541D01*
X421920Y150462D01*
X422011Y150169D01*
X422095Y149873D01*
X422125Y149799D01*
X422148Y149722D01*
X422269Y149440D01*
X422383Y149155D01*
X422420Y149084D01*
X422452Y149010D01*
X422601Y148741D01*
X422744Y148469D01*
X422788Y148403D01*
X422827Y148333D01*
X423003Y148080D01*
X423173Y147825D01*
X423215Y147777D01*
X423270Y147698D01*
X423776Y147112D01*
X423846Y147045D01*
X423888Y146997D01*
X425778Y145107D01*
X429682Y138346D01*
X431703Y130804D01*
X431703Y122996D01*
X429682Y115454D01*
X425778Y108693D01*
X420257Y103172D01*
X413496Y99268D01*
X411763Y98804D01*
X411520Y98725D01*
X411277Y98656D01*
X411153Y98606D01*
X411026Y98565D01*
X410794Y98462D01*
X410558Y98368D01*
X410440Y98306D01*
X410318Y98252D01*
X410098Y98125D01*
X409873Y98007D01*
X409762Y97933D01*
X409646Y97867D01*
X409440Y97719D01*
X409229Y97578D01*
X409152Y97511D01*
X409017Y97415D01*
X408439Y96900D01*
X408417Y96877D01*
X408401Y96863D01*
X405200Y93662D01*
X398929Y90041D01*
X391935Y88167D01*
X390720Y88167D01*
X390413Y88151D01*
X390106Y88142D01*
X390027Y88131D01*
X389947Y88127D01*
X389644Y88080D01*
X389339Y88039D01*
X389261Y88020D01*
X389182Y88008D01*
X388885Y87930D01*
X388586Y87857D01*
X388510Y87830D01*
X388433Y87810D01*
X388147Y87702D01*
X387856Y87599D01*
X387784Y87564D01*
X387709Y87536D01*
X387435Y87399D01*
X387157Y87267D01*
X387088Y87225D01*
X387017Y87189D01*
X386758Y87024D01*
X386495Y86864D01*
X386432Y86816D01*
X386364Y86772D01*
X386124Y86582D01*
X385879Y86395D01*
X385820Y86341D01*
X385758Y86291D01*
X385538Y86076D01*
X385314Y85866D01*
X385262Y85805D01*
X385204Y85749D01*
X385008Y85512D01*
X384807Y85281D01*
X384761Y85215D01*
X384710Y85153D01*
X384539Y84898D01*
X384363Y84646D01*
X384324Y84576D01*
X384279Y84510D01*
X384136Y84238D01*
X383987Y83970D01*
X383955Y83896D01*
X383918Y83825D01*
X383803Y83540D01*
X383682Y83258D01*
X383658Y83181D01*
X383628Y83107D01*
X383544Y82812D01*
X383453Y82518D01*
X383437Y82440D01*
X383415Y82363D01*
X383361Y82061D01*
X383301Y81759D01*
X383296Y81695D01*
X383279Y81600D01*
X383222Y80828D01*
X383225Y80732D01*
X383221Y80668D01*
X383221Y76465D01*
X383135Y76189D01*
X383036Y75892D01*
X383020Y75819D01*
X382999Y75749D01*
X382937Y75442D01*
X382869Y75135D01*
X382861Y75062D01*
X382847Y74990D01*
X382836Y74840D01*
X382781Y74366D01*
X382778Y74052D01*
X382767Y73899D01*
X382767Y67008D01*
X382780Y66755D01*
X382777Y66617D01*
X383252Y57506D01*
X382877Y55745D01*
X382839Y55509D01*
X382793Y55275D01*
X382784Y55164D01*
X382755Y54980D01*
X382713Y54207D01*
X382713Y54193D01*
X382713Y54184D01*
X382713Y48159D01*
X382718Y48054D01*
X382716Y47948D01*
X382738Y47667D01*
X382753Y47386D01*
X382769Y47282D01*
X382777Y47176D01*
X382810Y47019D01*
X382872Y46621D01*
X382967Y46262D01*
X383000Y46105D01*
X383041Y45961D01*
X383154Y38720D01*
X382939Y37864D01*
X382867Y37499D01*
X382793Y37127D01*
X382792Y37117D01*
X382789Y37104D01*
X382719Y36333D01*
X382721Y36147D01*
X382713Y36036D01*
X382713Y28517D01*
X382698Y28432D01*
X382681Y28200D01*
X382654Y27969D01*
X382652Y27814D01*
X382641Y27660D01*
X382648Y27428D01*
X382646Y27194D01*
X382660Y27041D01*
X382665Y26886D01*
X382696Y26655D01*
X382717Y26423D01*
X382747Y26272D01*
X382768Y26119D01*
X382822Y25892D01*
X382868Y25664D01*
X382913Y25516D01*
X382949Y25366D01*
X383027Y25146D01*
X383096Y24924D01*
X383156Y24782D01*
X383208Y24636D01*
X383308Y24426D01*
X383399Y24211D01*
X383474Y24076D01*
X383540Y23937D01*
X383661Y23738D01*
X383774Y23534D01*
X383862Y23407D01*
X383943Y23275D01*
X384084Y23090D01*
X384217Y22899D01*
X384318Y22782D01*
X384411Y22659D01*
X384570Y22489D01*
X384723Y22313D01*
X384835Y22207D01*
X384941Y22094D01*
X385117Y21942D01*
X385287Y21782D01*
X385409Y21688D01*
X385526Y21587D01*
X385717Y21453D01*
X385902Y21312D01*
X386034Y21232D01*
X386160Y21143D01*
X386364Y21030D01*
X386563Y20908D01*
X386702Y20842D01*
X386837Y20767D01*
X387051Y20675D01*
X387261Y20575D01*
X387407Y20523D01*
X387549Y20462D01*
X387772Y20393D01*
X387991Y20315D01*
X388141Y20278D01*
X388288Y20233D01*
X388517Y20187D01*
X388743Y20132D01*
X388896Y20111D01*
X389048Y20081D01*
X389201Y20069D01*
X389510Y20027D01*
X389989Y20012D01*
X390139Y20001D01*
X735506Y20001D01*
X735720Y20012D01*
G37*
D10*
X57884Y747663D02*
X60593Y747663D01*
X60593Y738632D01*
X55174Y738632D01*
X55056Y738634D01*
X54938Y738640D01*
X54820Y738649D01*
X54703Y738663D01*
X54586Y738680D01*
X54469Y738701D01*
X54354Y738726D01*
X54239Y738755D01*
X54125Y738788D01*
X54013Y738824D01*
X53902Y738864D01*
X53792Y738907D01*
X53683Y738954D01*
X53576Y739004D01*
X53471Y739059D01*
X53368Y739116D01*
X53267Y739177D01*
X53167Y739241D01*
X53070Y739308D01*
X52975Y739378D01*
X52883Y739452D01*
X52792Y739528D01*
X52705Y739608D01*
X52620Y739690D01*
X52538Y739775D01*
X52458Y739862D01*
X52382Y739953D01*
X52308Y740045D01*
X52238Y740140D01*
X52171Y740237D01*
X52107Y740337D01*
X52046Y740438D01*
X51989Y740541D01*
X51934Y740646D01*
X51884Y740753D01*
X51837Y740862D01*
X51794Y740972D01*
X51754Y741083D01*
X51718Y741195D01*
X51685Y741309D01*
X51656Y741424D01*
X51631Y741539D01*
X51610Y741656D01*
X51593Y741773D01*
X51579Y741890D01*
X51570Y742008D01*
X51564Y742126D01*
X51562Y742244D01*
X51562Y751276D01*
X51564Y751394D01*
X51570Y751512D01*
X51579Y751630D01*
X51593Y751747D01*
X51610Y751864D01*
X51631Y751981D01*
X51656Y752096D01*
X51685Y752211D01*
X51718Y752325D01*
X51754Y752437D01*
X51794Y752548D01*
X51837Y752658D01*
X51884Y752767D01*
X51934Y752874D01*
X51988Y752979D01*
X52046Y753082D01*
X52107Y753183D01*
X52171Y753283D01*
X52238Y753380D01*
X52308Y753475D01*
X52382Y753567D01*
X52458Y753658D01*
X52538Y753745D01*
X52620Y753830D01*
X52705Y753912D01*
X52792Y753992D01*
X52883Y754068D01*
X52975Y754142D01*
X53070Y754212D01*
X53167Y754279D01*
X53267Y754343D01*
X53368Y754404D01*
X53471Y754461D01*
X53576Y754515D01*
X53683Y754566D01*
X53792Y754613D01*
X53902Y754656D01*
X54013Y754696D01*
X54125Y754732D01*
X54239Y754765D01*
X54354Y754794D01*
X54469Y754819D01*
X54586Y754840D01*
X54703Y754857D01*
X54820Y754871D01*
X54938Y754880D01*
X55056Y754886D01*
X55174Y754888D01*
X60593Y754888D01*
X70663Y744954D02*
X74727Y744954D01*
X70663Y744954D02*
X70551Y744952D01*
X70440Y744946D01*
X70329Y744936D01*
X70218Y744923D01*
X70108Y744905D01*
X69999Y744883D01*
X69890Y744858D01*
X69782Y744829D01*
X69676Y744796D01*
X69570Y744759D01*
X69466Y744719D01*
X69364Y744675D01*
X69263Y744627D01*
X69164Y744576D01*
X69066Y744521D01*
X68971Y744463D01*
X68878Y744402D01*
X68787Y744337D01*
X68698Y744269D01*
X68612Y744198D01*
X68529Y744125D01*
X68448Y744048D01*
X68369Y743968D01*
X68294Y743886D01*
X68222Y743801D01*
X68152Y743714D01*
X68086Y743624D01*
X68023Y743532D01*
X67963Y743437D01*
X67907Y743341D01*
X67854Y743243D01*
X67805Y743143D01*
X67759Y743041D01*
X67717Y742938D01*
X67678Y742833D01*
X67643Y742727D01*
X67612Y742620D01*
X67585Y742512D01*
X67561Y742403D01*
X67542Y742293D01*
X67526Y742183D01*
X67514Y742072D01*
X67506Y741960D01*
X67502Y741849D01*
X67502Y741737D01*
X67506Y741626D01*
X67514Y741514D01*
X67526Y741403D01*
X67542Y741293D01*
X67561Y741183D01*
X67585Y741074D01*
X67612Y740966D01*
X67643Y740859D01*
X67678Y740753D01*
X67717Y740648D01*
X67759Y740545D01*
X67805Y740443D01*
X67854Y740343D01*
X67907Y740245D01*
X67963Y740149D01*
X68023Y740054D01*
X68086Y739962D01*
X68152Y739872D01*
X68222Y739785D01*
X68294Y739700D01*
X68369Y739618D01*
X68448Y739538D01*
X68529Y739461D01*
X68612Y739388D01*
X68698Y739317D01*
X68787Y739249D01*
X68878Y739184D01*
X68971Y739123D01*
X69066Y739065D01*
X69164Y739010D01*
X69263Y738959D01*
X69364Y738911D01*
X69466Y738867D01*
X69570Y738827D01*
X69676Y738790D01*
X69782Y738757D01*
X69890Y738728D01*
X69999Y738703D01*
X70108Y738681D01*
X70218Y738663D01*
X70329Y738650D01*
X70440Y738640D01*
X70551Y738634D01*
X70663Y738632D01*
X74727Y738632D01*
X74727Y746760D01*
X74725Y746861D01*
X74719Y746962D01*
X74710Y747063D01*
X74697Y747164D01*
X74680Y747264D01*
X74659Y747363D01*
X74635Y747461D01*
X74607Y747558D01*
X74575Y747655D01*
X74540Y747750D01*
X74501Y747843D01*
X74459Y747935D01*
X74413Y748026D01*
X74364Y748115D01*
X74312Y748201D01*
X74256Y748286D01*
X74198Y748369D01*
X74136Y748449D01*
X74071Y748527D01*
X74004Y748603D01*
X73934Y748676D01*
X73861Y748746D01*
X73785Y748813D01*
X73707Y748878D01*
X73627Y748940D01*
X73544Y748998D01*
X73459Y749054D01*
X73373Y749106D01*
X73284Y749155D01*
X73193Y749201D01*
X73101Y749243D01*
X73008Y749282D01*
X72913Y749317D01*
X72816Y749349D01*
X72719Y749377D01*
X72621Y749401D01*
X72522Y749422D01*
X72422Y749439D01*
X72321Y749452D01*
X72220Y749461D01*
X72119Y749467D01*
X72018Y749469D01*
X68405Y749469D01*
X82238Y754888D02*
X82238Y738632D01*
X86753Y738632D01*
X86857Y738634D01*
X86960Y738640D01*
X87064Y738650D01*
X87167Y738664D01*
X87269Y738682D01*
X87370Y738703D01*
X87471Y738729D01*
X87570Y738758D01*
X87669Y738791D01*
X87766Y738828D01*
X87861Y738869D01*
X87955Y738913D01*
X88047Y738961D01*
X88137Y739012D01*
X88226Y739067D01*
X88312Y739125D01*
X88395Y739187D01*
X88477Y739251D01*
X88555Y739319D01*
X88631Y739389D01*
X88705Y739462D01*
X88775Y739539D01*
X88843Y739617D01*
X88907Y739699D01*
X88969Y739782D01*
X89027Y739868D01*
X89082Y739957D01*
X89133Y740047D01*
X89181Y740139D01*
X89225Y740233D01*
X89266Y740328D01*
X89303Y740425D01*
X89336Y740524D01*
X89365Y740623D01*
X89391Y740724D01*
X89412Y740825D01*
X89430Y740927D01*
X89444Y741030D01*
X89454Y741134D01*
X89460Y741237D01*
X89462Y741341D01*
X89463Y741341D02*
X89463Y746760D01*
X89462Y746760D02*
X89460Y746861D01*
X89454Y746962D01*
X89445Y747063D01*
X89432Y747164D01*
X89415Y747264D01*
X89394Y747363D01*
X89370Y747461D01*
X89342Y747558D01*
X89310Y747655D01*
X89275Y747750D01*
X89236Y747843D01*
X89194Y747935D01*
X89148Y748026D01*
X89099Y748115D01*
X89047Y748201D01*
X88991Y748286D01*
X88933Y748369D01*
X88871Y748449D01*
X88806Y748527D01*
X88739Y748603D01*
X88669Y748676D01*
X88596Y748746D01*
X88520Y748813D01*
X88442Y748878D01*
X88362Y748940D01*
X88279Y748998D01*
X88194Y749054D01*
X88108Y749106D01*
X88019Y749155D01*
X87928Y749201D01*
X87836Y749243D01*
X87743Y749282D01*
X87648Y749317D01*
X87551Y749349D01*
X87454Y749377D01*
X87356Y749401D01*
X87257Y749422D01*
X87157Y749439D01*
X87056Y749452D01*
X86955Y749461D01*
X86854Y749467D01*
X86753Y749469D01*
X82238Y749469D01*
X96317Y749469D02*
X96317Y738632D01*
X96317Y749469D02*
X101736Y749469D01*
X101736Y747663D01*
X106618Y749469D02*
X106618Y738632D01*
X106167Y753985D02*
X106167Y754888D01*
X107070Y754888D01*
X107070Y753985D01*
X106167Y753985D01*
X115615Y738632D02*
X120131Y738632D01*
X115615Y738632D02*
X115514Y738634D01*
X115413Y738640D01*
X115312Y738649D01*
X115211Y738662D01*
X115111Y738679D01*
X115012Y738700D01*
X114914Y738724D01*
X114817Y738752D01*
X114720Y738784D01*
X114625Y738819D01*
X114532Y738858D01*
X114440Y738900D01*
X114349Y738946D01*
X114261Y738995D01*
X114174Y739047D01*
X114089Y739103D01*
X114006Y739161D01*
X113926Y739223D01*
X113848Y739288D01*
X113772Y739355D01*
X113699Y739425D01*
X113629Y739498D01*
X113562Y739574D01*
X113497Y739652D01*
X113435Y739732D01*
X113377Y739815D01*
X113321Y739900D01*
X113269Y739987D01*
X113220Y740075D01*
X113174Y740166D01*
X113132Y740258D01*
X113093Y740351D01*
X113058Y740446D01*
X113026Y740543D01*
X112998Y740640D01*
X112974Y740738D01*
X112953Y740837D01*
X112936Y740937D01*
X112923Y741038D01*
X112914Y741139D01*
X112908Y741240D01*
X112906Y741341D01*
X112906Y745857D01*
X112908Y745976D01*
X112914Y746096D01*
X112924Y746215D01*
X112938Y746333D01*
X112955Y746452D01*
X112977Y746569D01*
X113002Y746686D01*
X113032Y746801D01*
X113065Y746916D01*
X113102Y747030D01*
X113142Y747142D01*
X113187Y747253D01*
X113235Y747362D01*
X113286Y747470D01*
X113341Y747576D01*
X113400Y747680D01*
X113462Y747782D01*
X113527Y747882D01*
X113596Y747980D01*
X113668Y748076D01*
X113743Y748169D01*
X113820Y748259D01*
X113901Y748347D01*
X113985Y748432D01*
X114072Y748514D01*
X114161Y748594D01*
X114253Y748670D01*
X114347Y748744D01*
X114444Y748814D01*
X114542Y748881D01*
X114643Y748945D01*
X114747Y749005D01*
X114852Y749062D01*
X114959Y749115D01*
X115067Y749165D01*
X115177Y749211D01*
X115289Y749253D01*
X115402Y749292D01*
X115516Y749327D01*
X115631Y749358D01*
X115748Y749386D01*
X115865Y749409D01*
X115982Y749429D01*
X116101Y749445D01*
X116220Y749457D01*
X116339Y749465D01*
X116458Y749469D01*
X116578Y749469D01*
X116697Y749465D01*
X116816Y749457D01*
X116935Y749445D01*
X117054Y749429D01*
X117171Y749409D01*
X117288Y749386D01*
X117405Y749358D01*
X117520Y749327D01*
X117634Y749292D01*
X117747Y749253D01*
X117859Y749211D01*
X117969Y749165D01*
X118077Y749115D01*
X118184Y749062D01*
X118289Y749005D01*
X118393Y748945D01*
X118494Y748881D01*
X118592Y748814D01*
X118689Y748744D01*
X118783Y748670D01*
X118875Y748594D01*
X118964Y748514D01*
X119051Y748432D01*
X119135Y748347D01*
X119216Y748259D01*
X119293Y748169D01*
X119368Y748076D01*
X119440Y747980D01*
X119509Y747882D01*
X119574Y747782D01*
X119636Y747680D01*
X119695Y747576D01*
X119750Y747470D01*
X119801Y747362D01*
X119849Y747253D01*
X119894Y747142D01*
X119934Y747030D01*
X119971Y746916D01*
X120004Y746801D01*
X120034Y746686D01*
X120059Y746569D01*
X120081Y746452D01*
X120098Y746333D01*
X120112Y746215D01*
X120122Y746096D01*
X120128Y745976D01*
X120130Y745857D01*
X120131Y745857D02*
X120131Y744051D01*
X112906Y744051D01*
X126690Y741341D02*
X126690Y754888D01*
X126690Y741341D02*
X126692Y741240D01*
X126698Y741139D01*
X126707Y741038D01*
X126720Y740937D01*
X126737Y740837D01*
X126758Y740738D01*
X126782Y740640D01*
X126810Y740543D01*
X126842Y740446D01*
X126877Y740351D01*
X126916Y740258D01*
X126958Y740166D01*
X127004Y740075D01*
X127053Y739987D01*
X127105Y739900D01*
X127161Y739815D01*
X127219Y739732D01*
X127281Y739652D01*
X127346Y739574D01*
X127413Y739498D01*
X127483Y739425D01*
X127556Y739355D01*
X127632Y739288D01*
X127710Y739223D01*
X127790Y739161D01*
X127873Y739103D01*
X127958Y739047D01*
X128045Y738995D01*
X128133Y738946D01*
X128224Y738900D01*
X128316Y738858D01*
X128409Y738819D01*
X128504Y738784D01*
X128601Y738752D01*
X128698Y738724D01*
X128796Y738700D01*
X128895Y738679D01*
X128995Y738662D01*
X129096Y738649D01*
X129197Y738640D01*
X129298Y738634D01*
X129399Y738632D01*
X143816Y738632D02*
X143816Y754888D01*
X143816Y738632D02*
X151041Y738632D01*
X156673Y742244D02*
X156673Y745857D01*
X156674Y745857D02*
X156676Y745976D01*
X156682Y746096D01*
X156692Y746215D01*
X156706Y746333D01*
X156723Y746452D01*
X156745Y746569D01*
X156770Y746686D01*
X156800Y746801D01*
X156833Y746916D01*
X156870Y747030D01*
X156910Y747142D01*
X156955Y747253D01*
X157003Y747362D01*
X157054Y747470D01*
X157109Y747576D01*
X157168Y747680D01*
X157230Y747782D01*
X157295Y747882D01*
X157364Y747980D01*
X157436Y748076D01*
X157511Y748169D01*
X157588Y748259D01*
X157669Y748347D01*
X157753Y748432D01*
X157840Y748514D01*
X157929Y748594D01*
X158021Y748670D01*
X158115Y748744D01*
X158212Y748814D01*
X158310Y748881D01*
X158411Y748945D01*
X158515Y749005D01*
X158620Y749062D01*
X158727Y749115D01*
X158835Y749165D01*
X158945Y749211D01*
X159057Y749253D01*
X159170Y749292D01*
X159284Y749327D01*
X159399Y749358D01*
X159516Y749386D01*
X159633Y749409D01*
X159750Y749429D01*
X159869Y749445D01*
X159988Y749457D01*
X160107Y749465D01*
X160226Y749469D01*
X160346Y749469D01*
X160465Y749465D01*
X160584Y749457D01*
X160703Y749445D01*
X160822Y749429D01*
X160939Y749409D01*
X161056Y749386D01*
X161173Y749358D01*
X161288Y749327D01*
X161402Y749292D01*
X161515Y749253D01*
X161627Y749211D01*
X161737Y749165D01*
X161845Y749115D01*
X161952Y749062D01*
X162057Y749005D01*
X162161Y748945D01*
X162262Y748881D01*
X162360Y748814D01*
X162457Y748744D01*
X162551Y748670D01*
X162643Y748594D01*
X162732Y748514D01*
X162819Y748432D01*
X162903Y748347D01*
X162984Y748259D01*
X163061Y748169D01*
X163136Y748076D01*
X163208Y747980D01*
X163277Y747882D01*
X163342Y747782D01*
X163404Y747680D01*
X163463Y747576D01*
X163518Y747470D01*
X163569Y747362D01*
X163617Y747253D01*
X163662Y747142D01*
X163702Y747030D01*
X163739Y746916D01*
X163772Y746801D01*
X163802Y746686D01*
X163827Y746569D01*
X163849Y746452D01*
X163866Y746333D01*
X163880Y746215D01*
X163890Y746096D01*
X163896Y745976D01*
X163898Y745857D01*
X163898Y742244D01*
X163896Y742125D01*
X163890Y742005D01*
X163880Y741886D01*
X163866Y741768D01*
X163849Y741649D01*
X163827Y741532D01*
X163802Y741415D01*
X163772Y741300D01*
X163739Y741185D01*
X163702Y741071D01*
X163662Y740959D01*
X163617Y740848D01*
X163569Y740739D01*
X163518Y740631D01*
X163463Y740525D01*
X163404Y740421D01*
X163342Y740319D01*
X163277Y740219D01*
X163208Y740121D01*
X163136Y740025D01*
X163061Y739932D01*
X162984Y739842D01*
X162903Y739754D01*
X162819Y739669D01*
X162732Y739587D01*
X162643Y739507D01*
X162551Y739431D01*
X162457Y739357D01*
X162360Y739287D01*
X162262Y739220D01*
X162161Y739156D01*
X162057Y739096D01*
X161952Y739039D01*
X161845Y738986D01*
X161737Y738936D01*
X161627Y738890D01*
X161515Y738848D01*
X161402Y738809D01*
X161288Y738774D01*
X161173Y738743D01*
X161056Y738715D01*
X160939Y738692D01*
X160822Y738672D01*
X160703Y738656D01*
X160584Y738644D01*
X160465Y738636D01*
X160346Y738632D01*
X160226Y738632D01*
X160107Y738636D01*
X159988Y738644D01*
X159869Y738656D01*
X159750Y738672D01*
X159633Y738692D01*
X159516Y738715D01*
X159399Y738743D01*
X159284Y738774D01*
X159170Y738809D01*
X159057Y738848D01*
X158945Y738890D01*
X158835Y738936D01*
X158727Y738986D01*
X158620Y739039D01*
X158515Y739096D01*
X158411Y739156D01*
X158310Y739220D01*
X158212Y739287D01*
X158115Y739357D01*
X158021Y739431D01*
X157929Y739507D01*
X157840Y739587D01*
X157753Y739669D01*
X157669Y739754D01*
X157588Y739842D01*
X157511Y739932D01*
X157436Y740025D01*
X157364Y740121D01*
X157295Y740219D01*
X157230Y740319D01*
X157168Y740421D01*
X157109Y740525D01*
X157054Y740631D01*
X157003Y740739D01*
X156955Y740848D01*
X156910Y740959D01*
X156870Y741071D01*
X156833Y741185D01*
X156800Y741300D01*
X156770Y741415D01*
X156745Y741532D01*
X156723Y741649D01*
X156706Y741768D01*
X156692Y741886D01*
X156682Y742005D01*
X156676Y742125D01*
X156674Y742244D01*
X170815Y749469D02*
X170815Y733213D01*
X170815Y749469D02*
X175330Y749469D01*
X175434Y749467D01*
X175537Y749461D01*
X175641Y749451D01*
X175744Y749437D01*
X175846Y749419D01*
X175947Y749398D01*
X176048Y749372D01*
X176147Y749343D01*
X176246Y749310D01*
X176343Y749273D01*
X176438Y749232D01*
X176532Y749188D01*
X176624Y749140D01*
X176714Y749089D01*
X176803Y749034D01*
X176889Y748976D01*
X176972Y748914D01*
X177054Y748850D01*
X177132Y748782D01*
X177208Y748712D01*
X177282Y748639D01*
X177352Y748562D01*
X177420Y748484D01*
X177484Y748402D01*
X177546Y748319D01*
X177604Y748233D01*
X177659Y748144D01*
X177710Y748054D01*
X177758Y747962D01*
X177802Y747868D01*
X177843Y747773D01*
X177880Y747676D01*
X177913Y747577D01*
X177942Y747478D01*
X177968Y747377D01*
X177989Y747276D01*
X178007Y747174D01*
X178021Y747071D01*
X178031Y746967D01*
X178037Y746864D01*
X178039Y746760D01*
X178039Y741341D01*
X178037Y741240D01*
X178031Y741139D01*
X178022Y741038D01*
X178009Y740937D01*
X177992Y740837D01*
X177971Y740738D01*
X177947Y740640D01*
X177919Y740543D01*
X177887Y740446D01*
X177852Y740351D01*
X177813Y740258D01*
X177771Y740166D01*
X177725Y740075D01*
X177676Y739987D01*
X177624Y739900D01*
X177568Y739815D01*
X177510Y739732D01*
X177448Y739652D01*
X177383Y739574D01*
X177316Y739498D01*
X177246Y739425D01*
X177173Y739355D01*
X177097Y739288D01*
X177019Y739223D01*
X176939Y739161D01*
X176856Y739103D01*
X176771Y739047D01*
X176685Y738995D01*
X176596Y738946D01*
X176505Y738900D01*
X176413Y738858D01*
X176320Y738819D01*
X176225Y738784D01*
X176128Y738752D01*
X176031Y738724D01*
X175933Y738700D01*
X175834Y738679D01*
X175734Y738662D01*
X175633Y738649D01*
X175532Y738640D01*
X175431Y738634D01*
X175330Y738632D01*
X170815Y738632D01*
X186998Y738632D02*
X191513Y738632D01*
X186998Y738632D02*
X186897Y738634D01*
X186796Y738640D01*
X186695Y738649D01*
X186594Y738662D01*
X186494Y738679D01*
X186395Y738700D01*
X186297Y738724D01*
X186200Y738752D01*
X186103Y738784D01*
X186008Y738819D01*
X185915Y738858D01*
X185823Y738900D01*
X185732Y738946D01*
X185644Y738995D01*
X185557Y739047D01*
X185472Y739103D01*
X185389Y739161D01*
X185309Y739223D01*
X185231Y739288D01*
X185155Y739355D01*
X185082Y739425D01*
X185012Y739498D01*
X184945Y739574D01*
X184880Y739652D01*
X184818Y739732D01*
X184760Y739815D01*
X184704Y739900D01*
X184652Y739987D01*
X184603Y740075D01*
X184557Y740166D01*
X184515Y740258D01*
X184476Y740351D01*
X184441Y740446D01*
X184409Y740543D01*
X184381Y740640D01*
X184357Y740738D01*
X184336Y740837D01*
X184319Y740937D01*
X184306Y741038D01*
X184297Y741139D01*
X184291Y741240D01*
X184289Y741341D01*
X184288Y741341D02*
X184288Y745857D01*
X184289Y745857D02*
X184291Y745976D01*
X184297Y746096D01*
X184307Y746215D01*
X184321Y746333D01*
X184338Y746452D01*
X184360Y746569D01*
X184385Y746686D01*
X184415Y746801D01*
X184448Y746916D01*
X184485Y747030D01*
X184525Y747142D01*
X184570Y747253D01*
X184618Y747362D01*
X184669Y747470D01*
X184724Y747576D01*
X184783Y747680D01*
X184845Y747782D01*
X184910Y747882D01*
X184979Y747980D01*
X185051Y748076D01*
X185126Y748169D01*
X185203Y748259D01*
X185284Y748347D01*
X185368Y748432D01*
X185455Y748514D01*
X185544Y748594D01*
X185636Y748670D01*
X185730Y748744D01*
X185827Y748814D01*
X185925Y748881D01*
X186026Y748945D01*
X186130Y749005D01*
X186235Y749062D01*
X186342Y749115D01*
X186450Y749165D01*
X186560Y749211D01*
X186672Y749253D01*
X186785Y749292D01*
X186899Y749327D01*
X187014Y749358D01*
X187131Y749386D01*
X187248Y749409D01*
X187365Y749429D01*
X187484Y749445D01*
X187603Y749457D01*
X187722Y749465D01*
X187841Y749469D01*
X187961Y749469D01*
X188080Y749465D01*
X188199Y749457D01*
X188318Y749445D01*
X188437Y749429D01*
X188554Y749409D01*
X188671Y749386D01*
X188788Y749358D01*
X188903Y749327D01*
X189017Y749292D01*
X189130Y749253D01*
X189242Y749211D01*
X189352Y749165D01*
X189460Y749115D01*
X189567Y749062D01*
X189672Y749005D01*
X189776Y748945D01*
X189877Y748881D01*
X189975Y748814D01*
X190072Y748744D01*
X190166Y748670D01*
X190258Y748594D01*
X190347Y748514D01*
X190434Y748432D01*
X190518Y748347D01*
X190599Y748259D01*
X190676Y748169D01*
X190751Y748076D01*
X190823Y747980D01*
X190892Y747882D01*
X190957Y747782D01*
X191019Y747680D01*
X191078Y747576D01*
X191133Y747470D01*
X191184Y747362D01*
X191232Y747253D01*
X191277Y747142D01*
X191317Y747030D01*
X191354Y746916D01*
X191387Y746801D01*
X191417Y746686D01*
X191442Y746569D01*
X191464Y746452D01*
X191481Y746333D01*
X191495Y746215D01*
X191505Y746096D01*
X191511Y745976D01*
X191513Y745857D01*
X191513Y744051D01*
X184288Y744051D01*
X197314Y749469D02*
X204539Y749469D01*
X197314Y738632D01*
X204539Y738632D01*
X222389Y738632D02*
X226001Y738632D01*
X222389Y738632D02*
X222271Y738634D01*
X222153Y738640D01*
X222035Y738649D01*
X221918Y738663D01*
X221801Y738680D01*
X221684Y738701D01*
X221569Y738726D01*
X221454Y738755D01*
X221340Y738788D01*
X221228Y738824D01*
X221117Y738864D01*
X221007Y738907D01*
X220898Y738954D01*
X220791Y739004D01*
X220686Y739059D01*
X220583Y739116D01*
X220482Y739177D01*
X220382Y739241D01*
X220285Y739308D01*
X220190Y739378D01*
X220098Y739452D01*
X220007Y739528D01*
X219920Y739608D01*
X219835Y739690D01*
X219753Y739775D01*
X219673Y739862D01*
X219597Y739953D01*
X219523Y740045D01*
X219453Y740140D01*
X219386Y740237D01*
X219322Y740337D01*
X219261Y740438D01*
X219204Y740541D01*
X219149Y740646D01*
X219099Y740753D01*
X219052Y740862D01*
X219009Y740972D01*
X218969Y741083D01*
X218933Y741195D01*
X218900Y741309D01*
X218871Y741424D01*
X218846Y741539D01*
X218825Y741656D01*
X218808Y741773D01*
X218794Y741890D01*
X218785Y742008D01*
X218779Y742126D01*
X218777Y742244D01*
X218776Y742244D02*
X218776Y751276D01*
X218777Y751276D02*
X218779Y751394D01*
X218785Y751512D01*
X218794Y751630D01*
X218808Y751747D01*
X218825Y751864D01*
X218846Y751981D01*
X218871Y752096D01*
X218900Y752211D01*
X218933Y752325D01*
X218969Y752437D01*
X219009Y752548D01*
X219052Y752658D01*
X219099Y752767D01*
X219149Y752874D01*
X219203Y752979D01*
X219261Y753082D01*
X219322Y753183D01*
X219386Y753283D01*
X219453Y753380D01*
X219523Y753475D01*
X219597Y753567D01*
X219673Y753658D01*
X219753Y753745D01*
X219835Y753830D01*
X219920Y753912D01*
X220007Y753992D01*
X220098Y754068D01*
X220190Y754142D01*
X220285Y754212D01*
X220382Y754279D01*
X220482Y754343D01*
X220583Y754404D01*
X220686Y754461D01*
X220791Y754515D01*
X220898Y754566D01*
X221007Y754613D01*
X221117Y754656D01*
X221228Y754696D01*
X221340Y754732D01*
X221454Y754765D01*
X221569Y754794D01*
X221684Y754819D01*
X221801Y754840D01*
X221918Y754857D01*
X222035Y754871D01*
X222153Y754880D01*
X222271Y754886D01*
X222389Y754888D01*
X226001Y754888D01*
X51562Y728218D02*
X51562Y711962D01*
X51562Y728218D02*
X56078Y728218D01*
X56209Y728216D01*
X56341Y728210D01*
X56472Y728201D01*
X56602Y728187D01*
X56733Y728170D01*
X56862Y728149D01*
X56991Y728125D01*
X57119Y728096D01*
X57247Y728064D01*
X57373Y728028D01*
X57498Y727989D01*
X57623Y727946D01*
X57745Y727899D01*
X57867Y727849D01*
X57987Y727795D01*
X58105Y727738D01*
X58221Y727677D01*
X58336Y727613D01*
X58449Y727546D01*
X58560Y727475D01*
X58668Y727401D01*
X58775Y727324D01*
X58879Y727244D01*
X58981Y727161D01*
X59080Y727076D01*
X59177Y726987D01*
X59271Y726895D01*
X59363Y726801D01*
X59452Y726704D01*
X59537Y726605D01*
X59620Y726503D01*
X59700Y726399D01*
X59777Y726292D01*
X59851Y726184D01*
X59922Y726073D01*
X59989Y725960D01*
X60053Y725845D01*
X60114Y725729D01*
X60171Y725611D01*
X60225Y725491D01*
X60275Y725369D01*
X60322Y725247D01*
X60365Y725122D01*
X60404Y724997D01*
X60440Y724871D01*
X60472Y724743D01*
X60501Y724615D01*
X60525Y724486D01*
X60546Y724357D01*
X60563Y724226D01*
X60577Y724096D01*
X60586Y723965D01*
X60592Y723833D01*
X60594Y723702D01*
X60593Y723702D02*
X60593Y716478D01*
X60594Y716478D02*
X60592Y716347D01*
X60586Y716215D01*
X60577Y716084D01*
X60563Y715954D01*
X60546Y715823D01*
X60525Y715694D01*
X60501Y715565D01*
X60472Y715437D01*
X60440Y715309D01*
X60404Y715183D01*
X60365Y715058D01*
X60322Y714933D01*
X60275Y714811D01*
X60225Y714689D01*
X60171Y714569D01*
X60114Y714451D01*
X60053Y714335D01*
X59989Y714220D01*
X59922Y714107D01*
X59851Y713996D01*
X59777Y713888D01*
X59700Y713781D01*
X59620Y713677D01*
X59537Y713575D01*
X59452Y713476D01*
X59363Y713379D01*
X59271Y713285D01*
X59177Y713193D01*
X59080Y713104D01*
X58981Y713019D01*
X58879Y712936D01*
X58775Y712856D01*
X58668Y712779D01*
X58560Y712705D01*
X58449Y712634D01*
X58336Y712567D01*
X58221Y712503D01*
X58105Y712442D01*
X57987Y712385D01*
X57867Y712331D01*
X57745Y712281D01*
X57623Y712234D01*
X57498Y712191D01*
X57373Y712152D01*
X57247Y712116D01*
X57119Y712084D01*
X56991Y712055D01*
X56862Y712031D01*
X56732Y712010D01*
X56602Y711993D01*
X56472Y711979D01*
X56341Y711970D01*
X56209Y711964D01*
X56078Y711962D01*
X51562Y711962D01*
X72612Y711962D02*
X72730Y711964D01*
X72848Y711970D01*
X72966Y711979D01*
X73083Y711993D01*
X73200Y712010D01*
X73317Y712031D01*
X73432Y712056D01*
X73547Y712085D01*
X73661Y712118D01*
X73773Y712154D01*
X73884Y712194D01*
X73994Y712237D01*
X74103Y712284D01*
X74210Y712334D01*
X74315Y712389D01*
X74418Y712446D01*
X74519Y712507D01*
X74619Y712571D01*
X74716Y712638D01*
X74811Y712708D01*
X74903Y712782D01*
X74994Y712858D01*
X75081Y712938D01*
X75166Y713020D01*
X75248Y713105D01*
X75328Y713192D01*
X75404Y713283D01*
X75478Y713375D01*
X75548Y713470D01*
X75615Y713567D01*
X75679Y713667D01*
X75740Y713768D01*
X75797Y713871D01*
X75852Y713976D01*
X75902Y714083D01*
X75949Y714192D01*
X75992Y714302D01*
X76032Y714413D01*
X76068Y714525D01*
X76101Y714639D01*
X76130Y714754D01*
X76155Y714869D01*
X76176Y714986D01*
X76193Y715103D01*
X76207Y715220D01*
X76216Y715338D01*
X76222Y715456D01*
X76224Y715574D01*
X72612Y711962D02*
X72429Y711964D01*
X72247Y711971D01*
X72065Y711982D01*
X71883Y711997D01*
X71701Y712017D01*
X71520Y712040D01*
X71340Y712069D01*
X71160Y712101D01*
X70981Y712138D01*
X70804Y712179D01*
X70627Y712225D01*
X70451Y712274D01*
X70277Y712328D01*
X70103Y712386D01*
X69932Y712448D01*
X69762Y712514D01*
X69593Y712585D01*
X69426Y712659D01*
X69261Y712737D01*
X69098Y712819D01*
X68937Y712905D01*
X68778Y712995D01*
X68621Y713089D01*
X68467Y713186D01*
X68315Y713287D01*
X68165Y713392D01*
X68018Y713500D01*
X67874Y713611D01*
X67732Y713726D01*
X67593Y713845D01*
X67457Y713967D01*
X67324Y714092D01*
X67194Y714220D01*
X67645Y724606D02*
X67647Y724724D01*
X67653Y724842D01*
X67662Y724960D01*
X67676Y725077D01*
X67693Y725194D01*
X67714Y725311D01*
X67739Y725426D01*
X67768Y725541D01*
X67801Y725655D01*
X67837Y725767D01*
X67877Y725878D01*
X67920Y725988D01*
X67967Y726097D01*
X68017Y726204D01*
X68072Y726309D01*
X68129Y726412D01*
X68190Y726513D01*
X68254Y726613D01*
X68321Y726710D01*
X68391Y726805D01*
X68465Y726897D01*
X68541Y726988D01*
X68621Y727075D01*
X68703Y727160D01*
X68788Y727242D01*
X68875Y727322D01*
X68966Y727398D01*
X69058Y727472D01*
X69153Y727542D01*
X69250Y727609D01*
X69350Y727673D01*
X69451Y727734D01*
X69554Y727792D01*
X69659Y727846D01*
X69766Y727896D01*
X69875Y727943D01*
X69985Y727987D01*
X70096Y728026D01*
X70209Y728062D01*
X70322Y728095D01*
X70437Y728124D01*
X70552Y728149D01*
X70669Y728170D01*
X70786Y728187D01*
X70903Y728201D01*
X71021Y728210D01*
X71139Y728216D01*
X71257Y728218D01*
X71418Y728216D01*
X71580Y728210D01*
X71741Y728201D01*
X71902Y728187D01*
X72062Y728170D01*
X72222Y728149D01*
X72382Y728124D01*
X72541Y728095D01*
X72699Y728063D01*
X72856Y728027D01*
X73012Y727987D01*
X73168Y727943D01*
X73322Y727895D01*
X73475Y727844D01*
X73627Y727790D01*
X73778Y727731D01*
X73927Y727670D01*
X74074Y727604D01*
X74220Y727535D01*
X74365Y727463D01*
X74507Y727387D01*
X74648Y727308D01*
X74787Y727226D01*
X74923Y727140D01*
X75058Y727051D01*
X75191Y726959D01*
X75321Y726863D01*
X69451Y721445D02*
X69350Y721507D01*
X69250Y721572D01*
X69153Y721641D01*
X69058Y721713D01*
X68965Y721787D01*
X68875Y721865D01*
X68787Y721946D01*
X68702Y722029D01*
X68620Y722115D01*
X68541Y722204D01*
X68464Y722295D01*
X68391Y722389D01*
X68320Y722485D01*
X68253Y722583D01*
X68189Y722683D01*
X68128Y722786D01*
X68071Y722890D01*
X68017Y722996D01*
X67967Y723104D01*
X67920Y723213D01*
X67876Y723324D01*
X67836Y723436D01*
X67800Y723550D01*
X67768Y723664D01*
X67739Y723780D01*
X67714Y723896D01*
X67693Y724013D01*
X67676Y724131D01*
X67662Y724249D01*
X67653Y724368D01*
X67647Y724487D01*
X67645Y724606D01*
X74418Y718735D02*
X74519Y718673D01*
X74619Y718608D01*
X74716Y718539D01*
X74811Y718467D01*
X74904Y718393D01*
X74994Y718315D01*
X75082Y718234D01*
X75167Y718151D01*
X75249Y718065D01*
X75328Y717976D01*
X75405Y717885D01*
X75478Y717791D01*
X75549Y717695D01*
X75616Y717597D01*
X75680Y717497D01*
X75741Y717394D01*
X75798Y717290D01*
X75852Y717184D01*
X75902Y717076D01*
X75949Y716967D01*
X75993Y716856D01*
X76033Y716744D01*
X76069Y716630D01*
X76101Y716516D01*
X76130Y716400D01*
X76155Y716284D01*
X76176Y716167D01*
X76193Y716049D01*
X76207Y715931D01*
X76216Y715812D01*
X76222Y715693D01*
X76224Y715574D01*
X74418Y718735D02*
X69451Y721445D01*
X83035Y728218D02*
X83035Y711962D01*
X83035Y728218D02*
X87551Y728218D01*
X87684Y728216D01*
X87816Y728210D01*
X87948Y728200D01*
X88080Y728187D01*
X88212Y728169D01*
X88342Y728148D01*
X88473Y728123D01*
X88602Y728094D01*
X88730Y728061D01*
X88858Y728025D01*
X88984Y727985D01*
X89109Y727941D01*
X89233Y727893D01*
X89355Y727842D01*
X89476Y727787D01*
X89595Y727729D01*
X89713Y727667D01*
X89828Y727602D01*
X89942Y727533D01*
X90053Y727462D01*
X90162Y727386D01*
X90269Y727308D01*
X90374Y727227D01*
X90476Y727142D01*
X90576Y727055D01*
X90673Y726965D01*
X90768Y726872D01*
X90859Y726776D01*
X90948Y726678D01*
X91034Y726577D01*
X91117Y726473D01*
X91197Y726367D01*
X91273Y726259D01*
X91347Y726149D01*
X91417Y726036D01*
X91484Y725922D01*
X91547Y725805D01*
X91607Y725687D01*
X91664Y725567D01*
X91717Y725445D01*
X91766Y725322D01*
X91812Y725198D01*
X91854Y725072D01*
X91892Y724945D01*
X91927Y724817D01*
X91958Y724688D01*
X91985Y724559D01*
X92008Y724428D01*
X92028Y724297D01*
X92043Y724165D01*
X92055Y724033D01*
X92063Y723901D01*
X92067Y723768D01*
X92067Y723636D01*
X92063Y723503D01*
X92055Y723371D01*
X92043Y723239D01*
X92028Y723107D01*
X92008Y722976D01*
X91985Y722845D01*
X91958Y722716D01*
X91927Y722587D01*
X91892Y722459D01*
X91854Y722332D01*
X91812Y722206D01*
X91766Y722082D01*
X91717Y721959D01*
X91664Y721837D01*
X91607Y721717D01*
X91547Y721599D01*
X91484Y721482D01*
X91417Y721368D01*
X91347Y721255D01*
X91273Y721145D01*
X91197Y721037D01*
X91117Y720931D01*
X91034Y720827D01*
X90948Y720726D01*
X90859Y720628D01*
X90768Y720532D01*
X90673Y720439D01*
X90576Y720349D01*
X90476Y720262D01*
X90374Y720177D01*
X90269Y720096D01*
X90162Y720018D01*
X90053Y719942D01*
X89942Y719871D01*
X89828Y719802D01*
X89713Y719737D01*
X89595Y719675D01*
X89476Y719617D01*
X89355Y719562D01*
X89233Y719511D01*
X89109Y719463D01*
X88984Y719419D01*
X88858Y719379D01*
X88730Y719343D01*
X88602Y719310D01*
X88473Y719281D01*
X88342Y719256D01*
X88212Y719235D01*
X88080Y719217D01*
X87948Y719204D01*
X87816Y719194D01*
X87684Y719188D01*
X87551Y719186D01*
X87551Y719187D02*
X83035Y719187D01*
X105611Y722799D02*
X109224Y711962D01*
X112836Y722799D01*
X118776Y724606D02*
X123292Y728218D01*
X123292Y711962D01*
X127807Y711962D02*
X118776Y711962D01*
X133782Y711962D02*
X133782Y712865D01*
X134685Y712865D01*
X134685Y711962D01*
X133782Y711962D01*
X140660Y720090D02*
X140664Y720410D01*
X140675Y720729D01*
X140694Y721049D01*
X140721Y721367D01*
X140755Y721685D01*
X140797Y722002D01*
X140847Y722318D01*
X140904Y722633D01*
X140968Y722946D01*
X141040Y723258D01*
X141119Y723568D01*
X141206Y723875D01*
X141300Y724181D01*
X141401Y724484D01*
X141510Y724785D01*
X141625Y725083D01*
X141748Y725379D01*
X141878Y725671D01*
X142015Y725960D01*
X142014Y725961D02*
X142053Y726069D01*
X142096Y726176D01*
X142142Y726281D01*
X142193Y726385D01*
X142246Y726487D01*
X142303Y726587D01*
X142364Y726685D01*
X142428Y726780D01*
X142495Y726874D01*
X142566Y726965D01*
X142639Y727054D01*
X142716Y727140D01*
X142795Y727223D01*
X142877Y727304D01*
X142962Y727382D01*
X143050Y727456D01*
X143140Y727528D01*
X143232Y727596D01*
X143327Y727662D01*
X143424Y727724D01*
X143523Y727782D01*
X143625Y727838D01*
X143727Y727889D01*
X143832Y727937D01*
X143938Y727982D01*
X144046Y728023D01*
X144155Y728060D01*
X144265Y728093D01*
X144377Y728122D01*
X144489Y728148D01*
X144602Y728170D01*
X144716Y728187D01*
X144830Y728201D01*
X144945Y728211D01*
X145060Y728217D01*
X145175Y728219D01*
X145175Y728218D02*
X145290Y728216D01*
X145405Y728210D01*
X145520Y728200D01*
X145634Y728186D01*
X145748Y728169D01*
X145861Y728147D01*
X145973Y728121D01*
X146085Y728092D01*
X146195Y728059D01*
X146304Y728022D01*
X146412Y727981D01*
X146518Y727936D01*
X146623Y727888D01*
X146725Y727837D01*
X146826Y727781D01*
X146926Y727723D01*
X147023Y727661D01*
X147117Y727596D01*
X147210Y727527D01*
X147300Y727455D01*
X147388Y727381D01*
X147473Y727303D01*
X147555Y727222D01*
X147634Y727139D01*
X147711Y727053D01*
X147784Y726964D01*
X147855Y726873D01*
X147922Y726779D01*
X147986Y726684D01*
X148047Y726586D01*
X148104Y726486D01*
X148157Y726384D01*
X148208Y726280D01*
X148254Y726175D01*
X148297Y726068D01*
X148336Y725960D01*
X148473Y725671D01*
X148603Y725379D01*
X148726Y725083D01*
X148841Y724785D01*
X148950Y724484D01*
X149051Y724181D01*
X149145Y723875D01*
X149232Y723568D01*
X149311Y723258D01*
X149383Y722946D01*
X149447Y722633D01*
X149504Y722318D01*
X149554Y722002D01*
X149596Y721685D01*
X149630Y721367D01*
X149657Y721049D01*
X149676Y720729D01*
X149687Y720410D01*
X149691Y720090D01*
X140660Y720090D02*
X140664Y719770D01*
X140675Y719451D01*
X140694Y719131D01*
X140721Y718813D01*
X140755Y718495D01*
X140797Y718178D01*
X140847Y717862D01*
X140904Y717547D01*
X140968Y717234D01*
X141040Y716922D01*
X141119Y716612D01*
X141206Y716305D01*
X141300Y715999D01*
X141401Y715696D01*
X141510Y715395D01*
X141625Y715097D01*
X141748Y714801D01*
X141878Y714509D01*
X142015Y714220D01*
X142014Y714220D02*
X142053Y714112D01*
X142096Y714005D01*
X142142Y713900D01*
X142193Y713796D01*
X142246Y713694D01*
X142303Y713594D01*
X142364Y713496D01*
X142428Y713401D01*
X142495Y713307D01*
X142566Y713216D01*
X142639Y713127D01*
X142716Y713041D01*
X142795Y712958D01*
X142877Y712877D01*
X142962Y712799D01*
X143050Y712725D01*
X143140Y712653D01*
X143233Y712584D01*
X143327Y712519D01*
X143424Y712457D01*
X143524Y712399D01*
X143625Y712343D01*
X143727Y712292D01*
X143832Y712244D01*
X143938Y712199D01*
X144046Y712158D01*
X144155Y712121D01*
X144265Y712088D01*
X144377Y712059D01*
X144489Y712033D01*
X144602Y712011D01*
X144716Y711994D01*
X144830Y711980D01*
X144945Y711970D01*
X145060Y711964D01*
X145175Y711962D01*
X148336Y714220D02*
X148473Y714509D01*
X148603Y714801D01*
X148726Y715097D01*
X148841Y715395D01*
X148950Y715696D01*
X149051Y715999D01*
X149145Y716305D01*
X149232Y716612D01*
X149311Y716922D01*
X149383Y717234D01*
X149447Y717547D01*
X149504Y717862D01*
X149554Y718178D01*
X149596Y718495D01*
X149630Y718813D01*
X149657Y719131D01*
X149676Y719451D01*
X149687Y719770D01*
X149691Y720090D01*
X148336Y714220D02*
X148297Y714112D01*
X148254Y714005D01*
X148208Y713900D01*
X148157Y713796D01*
X148104Y713694D01*
X148047Y713594D01*
X147986Y713496D01*
X147922Y713401D01*
X147855Y713307D01*
X147784Y713216D01*
X147711Y713127D01*
X147634Y713041D01*
X147555Y712958D01*
X147473Y712877D01*
X147388Y712799D01*
X147300Y712725D01*
X147210Y712653D01*
X147117Y712584D01*
X147023Y712519D01*
X146926Y712457D01*
X146826Y712399D01*
X146725Y712343D01*
X146622Y712292D01*
X146518Y712244D01*
X146412Y712199D01*
X146304Y712158D01*
X146195Y712121D01*
X146085Y712088D01*
X145973Y712059D01*
X145861Y712033D01*
X145748Y712011D01*
X145634Y711994D01*
X145520Y711980D01*
X145405Y711970D01*
X145290Y711964D01*
X145175Y711962D01*
X141563Y715574D02*
X148788Y724606D01*
D11*
X656100Y126900D03*
X656100Y152300D03*
X656100Y177700D03*
X656100Y203100D03*
X656100Y228500D03*
X656100Y253900D03*
X656100Y279300D03*
X656100Y304700D03*
X656100Y330100D03*
X656100Y355500D03*
X656100Y380900D03*
X656100Y406300D03*
X656100Y431700D03*
X656100Y457100D03*
X656100Y482500D03*
X402050Y126900D03*
X402050Y152300D03*
X402050Y177700D03*
X402050Y203100D03*
X402050Y228500D03*
X402050Y253900D03*
X402050Y279300D03*
X402050Y304700D03*
X402050Y330100D03*
X402050Y355500D03*
X402050Y380900D03*
X402050Y406300D03*
X402050Y431700D03*
X402050Y457100D03*
X402050Y482500D03*
D12*
X352171Y279400D02*
X333629Y279400D01*
X333629Y304800D02*
X352171Y304800D01*
X352171Y330200D02*
X333629Y330200D01*
X333629Y355600D02*
X352171Y355600D01*
X352171Y381000D02*
X333629Y381000D01*
X333629Y406400D02*
X352171Y406400D01*
X352171Y431800D02*
X333629Y431800D01*
X333629Y457200D02*
X352171Y457200D01*
X352171Y482600D02*
X333629Y482600D01*
D13*
X190500Y472200D02*
X190500Y442200D01*
X114300Y442200D02*
X114300Y472200D01*
D12*
X727329Y685800D02*
X745871Y685800D01*
X745871Y660400D02*
X727329Y660400D01*
X727329Y635000D02*
X745871Y635000D01*
X745871Y609600D02*
X727329Y609600D01*
X727329Y584200D02*
X745871Y584200D01*
X745871Y558800D02*
X727329Y558800D01*
X727329Y533400D02*
X745871Y533400D01*
X745871Y508000D02*
X727329Y508000D01*
X727329Y482600D02*
X745871Y482600D01*
X930529Y660400D02*
X949071Y660400D01*
X949071Y635000D02*
X930529Y635000D01*
X930529Y609600D02*
X949071Y609600D01*
X949071Y584200D02*
X930529Y584200D01*
X930529Y558800D02*
X949071Y558800D01*
X949071Y533400D02*
X930529Y533400D01*
D14*
X330200Y190500D03*
X304800Y190500D03*
X304800Y114300D03*
X330200Y114300D03*
X279400Y190500D03*
X254000Y190500D03*
X279400Y114300D03*
X254000Y114300D03*
D15*
X406400Y596900D03*
X63500Y139700D03*
X63500Y165100D03*
X63500Y101600D03*
X63500Y190500D03*
X63500Y50800D03*
X63500Y76200D03*
X342900Y520700D03*
X317500Y520700D03*
X292100Y520700D03*
X266700Y520700D03*
D14*
X711200Y76200D03*
X736600Y76200D03*
X736600Y152400D03*
X711200Y152400D03*
X762000Y76200D03*
X787400Y76200D03*
X762000Y152400D03*
X787400Y152400D03*
D16*
X736600Y203200D03*
X812800Y203200D03*
D15*
X952500Y152400D03*
X952500Y101600D03*
X952500Y127000D03*
X952500Y266700D03*
X952500Y215900D03*
X952500Y241300D03*
D16*
X88900Y50800D03*
X114300Y50800D03*
D17*
X215900Y38100D03*
X139700Y38100D03*
D16*
X88900Y76200D03*
X114300Y76200D03*
D17*
X215900Y63500D03*
X139700Y63500D03*
X355600Y88900D03*
X279400Y88900D03*
X215900Y88900D03*
X139700Y88900D03*
D18*
X355600Y41910D03*
D19*
X355600Y59690D03*
D17*
X317500Y50800D03*
X241300Y50800D03*
D16*
X88900Y139700D03*
X114300Y139700D03*
X88900Y165100D03*
X114300Y165100D03*
D17*
X215900Y114300D03*
X139700Y114300D03*
X215900Y152400D03*
X139700Y152400D03*
X317500Y228600D03*
X241300Y228600D03*
D20*
X355600Y224790D03*
D19*
X355600Y207010D03*
D17*
X215900Y190500D03*
X139700Y190500D03*
X215900Y228600D03*
X139700Y228600D03*
D21*
X711200Y203200D03*
X711200Y177800D03*
X812800Y152400D03*
X812800Y76200D03*
D17*
X838200Y177800D03*
X762000Y177800D03*
D20*
X850900Y72390D03*
D19*
X850900Y54610D03*
D16*
X850900Y152400D03*
X927100Y152400D03*
X850900Y101600D03*
X927100Y101600D03*
D22*
X910590Y63500D03*
D19*
X892810Y63500D03*
D17*
X762000Y50800D03*
X685800Y50800D03*
D14*
X723900Y228600D03*
X749300Y228600D03*
X749300Y304800D03*
X723900Y304800D03*
X774700Y228600D03*
X800100Y228600D03*
X774700Y304800D03*
X800100Y304800D03*
D23*
X838200Y228600D03*
X838200Y304800D03*
D17*
X762000Y342900D03*
X736600Y342900D03*
D21*
X952500Y368300D03*
X952500Y292100D03*
X698500Y304800D03*
X698500Y228600D03*
D18*
X876300Y334010D03*
D19*
X876300Y351790D03*
D23*
X927100Y266700D03*
X927100Y342900D03*
D21*
X876300Y292100D03*
X876300Y215900D03*
D22*
X834390Y342900D03*
D19*
X816610Y342900D03*
D16*
X876300Y190500D03*
X952500Y190500D03*
D21*
X901700Y317500D03*
X901700Y241300D03*
D24*
X482600Y640080D03*
D25*
X482600Y604520D03*
D26*
X609600Y604520D03*
D25*
X609600Y640080D03*
D15*
X406400Y622300D03*
D16*
X850900Y127000D03*
X927100Y127000D03*
D27*
X974916Y297432D02*
X945999Y326349D01*
X933606Y338742D01*
X974916Y297432D02*
X974916Y289170D01*
X958392Y272646D01*
X933606Y338742D02*
X927100Y342900D01*
X958392Y272646D02*
X952500Y266700D01*
X950130Y148716D02*
X933606Y148716D01*
X927100Y152400D01*
X950130Y148716D02*
X952500Y152400D01*
X958392Y156978D02*
X958392Y190026D01*
X958392Y156978D02*
X952500Y152400D01*
X974916Y247860D02*
X958392Y264384D01*
X974916Y247860D02*
X974916Y206550D01*
X958392Y190026D01*
X958392Y264384D02*
X952500Y266700D01*
X952500Y190500D02*
X958392Y190026D01*
X685746Y123930D02*
X685746Y57834D01*
X685746Y123930D02*
X660960Y148716D01*
X685746Y57834D02*
X685800Y50800D01*
X660960Y148716D02*
X656100Y152300D01*
X652698Y156978D02*
X404838Y156978D01*
X402050Y152300D01*
X652698Y156978D02*
X656100Y152300D01*
X132192Y231336D02*
X99144Y231336D01*
X66096Y198288D01*
X132192Y231336D02*
X139700Y228600D01*
X66096Y198288D02*
X63500Y190500D01*
X231336Y140454D02*
X330480Y140454D01*
X231336Y140454D02*
X223074Y132192D01*
X206550Y132192D01*
X156978Y181764D01*
X156978Y206550D01*
X140454Y223074D01*
X139700Y228600D01*
X41310Y123930D02*
X57834Y107406D01*
X41310Y123930D02*
X41310Y173502D01*
X57834Y190026D01*
X57834Y107406D02*
X63500Y101600D01*
X57834Y190026D02*
X63500Y190500D01*
X627394Y624088D02*
X714970Y624088D01*
X718794Y627912D01*
X735318Y627912D01*
X627394Y624088D02*
X626770Y621690D01*
X609600Y604520D01*
X735318Y627912D02*
X736600Y635000D01*
X743580Y512244D02*
X751842Y512244D01*
X764235Y524637D02*
X768366Y528768D01*
X764235Y524637D02*
X751842Y512244D01*
X768366Y528768D02*
X768366Y619650D01*
X760104Y627912D01*
X743580Y627912D01*
X743580Y512244D02*
X736600Y508000D01*
X743580Y627912D02*
X736600Y635000D01*
X974916Y355266D02*
X945999Y326349D01*
X974916Y355266D02*
X974916Y371790D01*
X826200Y520506D01*
X768366Y520506D01*
X764235Y524637D01*
D28*
X330480Y140454D03*
D27*
X801414Y305694D02*
X834462Y305694D01*
X801414Y305694D02*
X800100Y304800D01*
X834462Y305694D02*
X838200Y304800D01*
X793152Y181764D02*
X793152Y156978D01*
X793152Y181764D02*
X809676Y198288D01*
X793152Y156978D02*
X787400Y152400D01*
X809676Y198288D02*
X812800Y203200D01*
X817938Y280908D02*
X801414Y297432D01*
X817938Y280908D02*
X817938Y206550D01*
X801414Y297432D02*
X800100Y304800D01*
X817938Y206550D02*
X812800Y203200D01*
X603126Y644436D02*
X487458Y644436D01*
X482600Y640080D01*
X603126Y644436D02*
X609600Y640080D01*
X479196Y603126D02*
X421362Y603126D01*
X413100Y594864D01*
X479196Y603126D02*
X482600Y604520D01*
X413100Y594864D02*
X406400Y596900D01*
X677484Y181764D02*
X689877Y169371D01*
X710532Y148716D01*
X677484Y181764D02*
X677484Y247860D01*
X727056Y297432D01*
X711200Y152400D02*
X710532Y148716D01*
X727056Y297432D02*
X723900Y304800D01*
X388314Y115668D02*
X380052Y115668D01*
X330480Y115668D01*
X388314Y115668D02*
X396576Y123930D01*
X330480Y115668D02*
X330200Y114300D01*
X396576Y123930D02*
X402050Y126900D01*
X380052Y239598D02*
X347004Y272646D01*
X380052Y239598D02*
X380052Y115668D01*
X347004Y272646D02*
X342900Y279400D01*
X677484Y156978D02*
X689877Y169371D01*
X404838Y594864D02*
X268208Y594864D01*
X210374Y537030D01*
X404838Y594864D02*
X406400Y596900D01*
D28*
X677484Y156978D03*
D27*
X342900Y279400D02*
X292100Y279400D01*
X210374Y361126D01*
X210374Y537030D01*
X338742Y231336D02*
X355266Y231336D01*
X338742Y231336D02*
X313956Y256122D01*
X239598Y256122D01*
X235467Y251991D02*
X214812Y231336D01*
X235467Y251991D02*
X239598Y256122D01*
X355266Y231336D02*
X355600Y224790D01*
X215900Y228600D02*
X214812Y231336D01*
X115668Y371790D02*
X115668Y454410D01*
X115668Y371790D02*
X235467Y251991D01*
X115668Y454410D02*
X114300Y457200D01*
X330480Y41310D02*
X355266Y41310D01*
X330480Y41310D02*
X322218Y49572D01*
X355266Y41310D02*
X355600Y41910D01*
X322218Y49572D02*
X317500Y50800D01*
X330480Y305694D02*
X338742Y305694D01*
X330480Y305694D02*
X313956Y322218D01*
X313956Y388314D01*
X338742Y413100D01*
X338742Y305694D02*
X342900Y304800D01*
X342900Y406400D02*
X338742Y413100D01*
X347004Y355266D02*
X355266Y355266D01*
X380052Y380052D01*
X380052Y487458D01*
X396576Y503982D01*
X503982Y503982D01*
X652698Y355266D01*
X347004Y355266D02*
X342900Y355600D01*
X652698Y355266D02*
X656100Y355500D01*
X338742Y437886D02*
X313956Y437886D01*
X239598Y512244D01*
X239598Y528768D01*
X280908Y570078D01*
X673046Y570078D01*
X706094Y603126D01*
X735318Y603126D01*
X342900Y431800D02*
X338742Y437886D01*
X735318Y603126D02*
X736600Y609600D01*
X289170Y520506D02*
X272646Y520506D01*
X266700Y520700D01*
X289170Y520506D02*
X292100Y520700D01*
X347004Y520506D02*
X347004Y487458D01*
X342900Y482600D01*
X342900Y520700D02*
X347004Y520506D01*
X338742Y520506D02*
X322218Y520506D01*
X317500Y520700D01*
X338742Y520506D02*
X342900Y520700D01*
X313956Y520506D02*
X297432Y520506D01*
X292100Y520700D01*
X313956Y520506D02*
X317500Y520700D01*
X718794Y578340D02*
X735318Y578340D01*
X718794Y578340D02*
X677484Y537030D01*
X677484Y470934D01*
X660960Y454410D01*
X735318Y578340D02*
X736600Y584200D01*
X660960Y454410D02*
X656100Y457100D01*
X677484Y433448D02*
X677484Y272646D01*
X677484Y433448D02*
X702270Y458234D01*
X702270Y512244D01*
X718794Y528768D01*
X735318Y528768D01*
X736600Y533400D01*
D28*
X677484Y272646D03*
D27*
X760104Y347004D02*
X760104Y462672D01*
X743580Y479196D01*
X760104Y347004D02*
X762000Y342900D01*
X743580Y479196D02*
X736600Y482600D01*
X735318Y74358D02*
X718794Y74358D01*
X711200Y76200D01*
X735318Y74358D02*
X736600Y76200D01*
X842724Y49572D02*
X850986Y49572D01*
X842724Y49572D02*
X817938Y74358D01*
X850900Y54610D02*
X850986Y49572D01*
X817938Y74358D02*
X812800Y76200D01*
X751842Y99144D02*
X735318Y82620D01*
X751842Y99144D02*
X793152Y99144D01*
X809676Y82620D01*
X736600Y76200D02*
X735318Y82620D01*
X809676Y82620D02*
X812800Y76200D01*
X82620Y49572D02*
X66096Y49572D01*
X82620Y49572D02*
X88900Y50800D01*
X66096Y49572D02*
X63500Y50800D01*
X115668Y49572D02*
X123930Y49572D01*
X132192Y41310D01*
X115668Y49572D02*
X114300Y50800D01*
X132192Y41310D02*
X139700Y38100D01*
X82620Y74358D02*
X66096Y74358D01*
X82620Y74358D02*
X88900Y76200D01*
X66096Y74358D02*
X63500Y76200D01*
X115668Y74358D02*
X123930Y74358D01*
X132192Y66096D01*
X115668Y74358D02*
X114300Y76200D01*
X132192Y66096D02*
X139700Y63500D01*
X280908Y66096D02*
X280908Y82620D01*
X279400Y88900D01*
X280908Y90882D02*
X280908Y107406D01*
X279400Y114300D01*
X280908Y90882D02*
X279400Y88900D01*
X219864Y38100D02*
X215900Y38100D01*
X215900Y25400D01*
X240212Y25400D01*
X280908Y66096D01*
X214812Y66096D02*
X214812Y82620D01*
X214812Y66096D02*
X215900Y63500D01*
X214812Y82620D02*
X215900Y88900D01*
X223074Y90882D02*
X247860Y115668D01*
X254000Y114300D01*
X223074Y90882D02*
X215900Y88900D01*
X355266Y82620D02*
X355266Y66096D01*
X355600Y59690D01*
X355266Y82620D02*
X355600Y88900D01*
X322218Y90882D02*
X305694Y107406D01*
X322218Y90882D02*
X355266Y90882D01*
X305694Y107406D02*
X304800Y114300D01*
X355266Y90882D02*
X355600Y88900D01*
X82620Y140454D02*
X66096Y140454D01*
X82620Y140454D02*
X88900Y139700D01*
X66096Y140454D02*
X63500Y139700D01*
X66096Y165240D02*
X82620Y165240D01*
X88900Y165100D01*
X66096Y165240D02*
X63500Y165100D01*
X123930Y156978D02*
X140454Y156978D01*
X123930Y156978D02*
X115668Y165240D01*
X140454Y156978D02*
X139700Y152400D01*
X115668Y165240D02*
X114300Y165100D01*
X115668Y132192D02*
X132192Y115668D01*
X115668Y132192D02*
X114300Y139700D01*
X132192Y115668D02*
X139700Y114300D01*
X214812Y165240D02*
X214812Y190026D01*
X214812Y165240D02*
X214812Y156978D01*
X215900Y152400D01*
X214812Y190026D02*
X215900Y190500D01*
X214812Y165240D02*
X280908Y165240D01*
X304800Y165100D02*
X304800Y190500D01*
X304800Y165100D02*
X281048Y165100D01*
X280908Y165240D01*
X272646Y206550D02*
X247860Y231336D01*
X241300Y228600D01*
X279400Y203200D02*
X279400Y190500D01*
X279400Y203200D02*
X276050Y206550D01*
X272646Y206550D01*
X338742Y190026D02*
X345049Y196333D01*
X347004Y198288D02*
X355266Y206550D01*
X338742Y190026D02*
X330480Y190026D01*
X355266Y206550D02*
X355600Y207010D01*
X330200Y190500D02*
X330480Y190026D01*
X338742Y190026D02*
X317500Y211268D01*
X317500Y228600D01*
X768366Y148716D02*
X768366Y140454D01*
X776628Y132192D01*
X793152Y132192D01*
X809676Y148716D01*
X768366Y148716D02*
X762000Y152400D01*
X809676Y148716D02*
X812800Y152400D01*
X817938Y156978D02*
X834462Y173502D01*
X838200Y177800D01*
X817938Y156978D02*
X812800Y152400D01*
X859248Y173502D02*
X892296Y140454D01*
X859248Y173502D02*
X859248Y181764D01*
X842724Y198288D01*
X834462Y198288D01*
X817938Y181764D01*
X760104Y181764D02*
X735318Y156978D01*
X736600Y152400D01*
X762000Y177800D02*
X760104Y181764D01*
D28*
X892296Y140454D03*
X817938Y181764D03*
D27*
X850986Y99144D02*
X850986Y74358D01*
X850900Y72390D01*
X826200Y132192D02*
X850986Y156978D01*
X826200Y132192D02*
X826200Y123930D01*
X850986Y99144D01*
X850900Y152400D02*
X850986Y156978D01*
X850900Y101600D02*
X850986Y99144D01*
X933606Y99144D02*
X950130Y99144D01*
X933606Y99144D02*
X927100Y101600D01*
X950130Y99144D02*
X952500Y101600D01*
X917082Y66096D02*
X850986Y132192D01*
X910590Y63500D02*
X917082Y66096D01*
X850900Y127000D02*
X850986Y132192D01*
X805238Y49572D02*
X768366Y49572D01*
X805238Y49572D02*
X830024Y24786D01*
X884034Y24786D01*
X908820Y49572D01*
X908820Y57834D01*
X768366Y49572D02*
X762000Y50800D01*
X908820Y57834D02*
X910590Y63500D01*
X933606Y123930D02*
X950130Y123930D01*
X933606Y123930D02*
X927100Y127000D01*
X950130Y123930D02*
X952500Y127000D01*
X743580Y231336D02*
X727056Y231336D01*
X723900Y228600D01*
X743580Y231336D02*
X749300Y228600D01*
X751842Y231336D02*
X793152Y272646D01*
X751842Y231336D02*
X749300Y228600D01*
D28*
X793152Y272646D03*
D27*
X702270Y305694D02*
X702270Y313956D01*
X710532Y322218D01*
X760104Y322218D01*
X764235Y318087D02*
X776628Y305694D01*
X764235Y318087D02*
X760104Y322218D01*
X702270Y305694D02*
X698500Y304800D01*
X774700Y304800D02*
X776628Y305694D01*
X817938Y371790D02*
X950130Y371790D01*
X817938Y371790D02*
X764235Y318087D01*
X950130Y371790D02*
X952500Y368300D01*
X702270Y235160D02*
X702270Y231336D01*
X702270Y235160D02*
X755100Y287990D01*
X702270Y231336D02*
X698500Y228600D01*
X755100Y287990D02*
X749300Y304800D01*
X892296Y272646D02*
X925344Y272646D01*
X892296Y272646D02*
X875772Y289170D01*
X925344Y272646D02*
X927100Y266700D01*
X875772Y289170D02*
X876300Y292100D01*
X875772Y214812D02*
X950130Y214812D01*
X876300Y215900D02*
X875772Y214812D01*
X950130Y214812D02*
X952500Y215900D01*
X859248Y313956D02*
X834462Y338742D01*
X859248Y313956D02*
X900558Y313956D01*
X834462Y338742D02*
X834390Y342900D01*
X901700Y317500D02*
X900558Y313956D01*
X850986Y214812D02*
X875772Y190026D01*
X850986Y214812D02*
X859248Y223074D01*
X859248Y280908D01*
X850986Y289170D01*
X859248Y297432D01*
X859248Y313956D01*
X876300Y190500D02*
X875772Y190026D01*
X908820Y239598D02*
X950130Y239598D01*
X908820Y239598D02*
X901700Y241300D01*
X950130Y239598D02*
X952500Y241300D01*
X735318Y198288D02*
X710532Y173502D01*
X735318Y198288D02*
X736600Y203200D01*
X711200Y177800D02*
X710532Y173502D01*
M02*
