M48
;GenerationSoftware,Autodesk,EAGLE,9.6.2*%
;CreationDate,2023-02-12T22:58:49Z*%
FMAT,2
ICI,OFF
METRIC,TZ,000.000
T7C0.500
T6C0.711
T5C0.813
T4C1.000
T3C1.016
T2C1.143
T1C2.000
%
G90
M71
T1
X11430Y45720
X19050Y45720
T2
X34290Y48260
X73660Y66040
X73660Y68580
X34290Y45720
X34290Y43180
X34290Y40640
X34290Y38100
X34290Y30480
X34290Y35560
X34290Y33020
X34290Y27940
X93980Y53340
X93980Y55880
X93980Y58420
X93980Y60960
X93980Y63500
X93980Y66040
X73660Y48260
X73660Y50800
X73660Y53340
X73660Y55880
X73660Y58420
X73660Y60960
X73660Y63500
T3
X95250Y24130
X95250Y21590
X95250Y26670
X95250Y12700
X95250Y10160
X29210Y52070
X26670Y52070
X40640Y59690
X6350Y13970
X6350Y16510
X40640Y62230
X6350Y5080
X95250Y15240
X6350Y10160
X6350Y19050
X6350Y7620
X34290Y52070
X31750Y52070
T4
X65610Y12690
X65610Y15230
X65610Y17770
X65610Y22850
X65610Y25390
X65610Y27930
X40205Y20310
X40205Y17770
X40205Y15230
X40205Y12690
X65610Y48250
X65610Y45710
X65610Y43170
X65610Y40630
X65610Y38090
X65610Y35550
X65610Y33010
X65610Y30470
X40205Y45710
X40205Y43170
X65610Y20310
X40205Y40630
X40205Y38090
X40205Y35550
X40205Y48250
X40205Y33010
X40205Y30470
X40205Y27930
X40205Y25390
X40205Y22850
T5
X30480Y19050
X30480Y11430
X33020Y11430
X27940Y19050
X25400Y19050
X27940Y11430
X25400Y11430
X71120Y7620
X73660Y7620
X73660Y15240
X71120Y15240
X76200Y7620
X78740Y7620
X76200Y15240
X78740Y15240
X73660Y20320
X81280Y20320
X8890Y5080
X11430Y5080
X21590Y3810
X13970Y3810
X8890Y7620
X11430Y7620
X21590Y6350
X13970Y6350
X35560Y8890
X27940Y8890
X21590Y8890
X13970Y8890
X31750Y5080
X24130Y5080
X8890Y13970
X11430Y13970
X8890Y16510
X11430Y16510
X21590Y11430
X13970Y11430
X21590Y15240
X13970Y15240
X31750Y22860
X24130Y22860
X21590Y19050
X13970Y19050
X21590Y22860
X13970Y22860
X71120Y20320
X71120Y17780
X81280Y15240
X81280Y7620
X83820Y17780
X76200Y17780
X95250Y36830
X85090Y15240
X92710Y15240
X85090Y10160
X92710Y10160
X76200Y5080
X68580Y5080
X72390Y22860
X74930Y22860
X74930Y30480
X72390Y30480
X77470Y22860
X80010Y22860
X77470Y30480
X80010Y30480
X83820Y22860
X83820Y30480
X76200Y34290
X73660Y34290
X92710Y12700
X95250Y29210
X69850Y30480
X69850Y22860
X92710Y26670
X92710Y34290
X87630Y29210
X87630Y21590
X87630Y19050
X95250Y19050
X90170Y31750
X90170Y24130
X48260Y64008
X48260Y60452
X60960Y60452
X60960Y64008
X33020Y19050
X85090Y12700
T6
X87630Y35179
X85090Y5461
X35560Y4191
X83439Y34290
X81661Y34290
X35560Y5969
X91059Y6350
X89281Y6350
X35560Y22479
X35560Y20701
X87630Y33401
X85090Y7239
T7
X67748Y27265
X67748Y15698
X33048Y14045
X79315Y27265
X81794Y18176
X89230Y14045
M30